G04 EAGLE Gerber X2 export*
%TF.Part,Single*%
%TF.FileFunction,Copper,L2,Bot,Mixed*%
%TF.FilePolarity,Positive*%
%TF.GenerationSoftware,Autodesk,EAGLE,8.7.1*%
%TF.CreationDate,2019-11-11T18:06:01Z*%
G75*
%MOMM*%
%FSLAX34Y34*%
%LPD*%
%AMOC8*
5,1,8,0,0,1.08239X$1,22.5*%
G01*
%ADD10C,1.524000*%
%ADD11C,0.756400*%
%ADD12C,0.254000*%
%ADD13C,0.152400*%
%ADD14C,0.656400*%
%ADD15C,0.304800*%
%ADD16C,0.127000*%

G36*
X2716Y-360429D02*
X2716Y-360429D01*
X2796Y-360434D01*
X31810Y-359080D01*
X31924Y-359064D01*
X32004Y-359063D01*
X60813Y-355364D01*
X60926Y-355339D01*
X61006Y-355332D01*
X89421Y-349313D01*
X89532Y-349279D01*
X89610Y-349265D01*
X92971Y-348263D01*
X93048Y-348232D01*
X93103Y-348217D01*
X93175Y-348181D01*
X93378Y-348100D01*
X93382Y-348098D01*
X93385Y-348097D01*
X95950Y-346778D01*
X101428Y-345126D01*
X102210Y-344890D01*
X103846Y-344396D01*
X103878Y-344384D01*
X103904Y-344378D01*
X120970Y-338761D01*
X121068Y-338718D01*
X121140Y-338697D01*
X154317Y-324926D01*
X154447Y-324857D01*
X154536Y-324822D01*
X186163Y-307789D01*
X186286Y-307708D01*
X186370Y-307664D01*
X216127Y-287541D01*
X216241Y-287448D01*
X216320Y-287396D01*
X243906Y-264387D01*
X243993Y-264300D01*
X244073Y-264232D01*
X244084Y-264223D01*
X244087Y-264220D01*
X269220Y-238561D01*
X269313Y-238447D01*
X269381Y-238379D01*
X291813Y-210323D01*
X291894Y-210200D01*
X291955Y-210126D01*
X311457Y-179960D01*
X311525Y-179829D01*
X311578Y-179750D01*
X327952Y-147777D01*
X328007Y-147640D01*
X328052Y-147556D01*
X341133Y-114101D01*
X341174Y-113959D01*
X341210Y-113871D01*
X350866Y-79272D01*
X350892Y-79127D01*
X350919Y-79035D01*
X357052Y-43641D01*
X357064Y-43494D01*
X357081Y-43400D01*
X359630Y-7570D01*
X359627Y-7422D01*
X359635Y-7327D01*
X358572Y28579D01*
X358554Y28725D01*
X358553Y28820D01*
X355187Y54530D01*
X355172Y54600D01*
X355165Y54672D01*
X355124Y54814D01*
X355091Y54958D01*
X355063Y55024D01*
X355043Y55094D01*
X354977Y55226D01*
X354919Y55362D01*
X354879Y55422D01*
X354847Y55486D01*
X354758Y55604D01*
X354676Y55727D01*
X354626Y55779D01*
X354583Y55837D01*
X354474Y55937D01*
X354372Y56043D01*
X354313Y56085D01*
X354260Y56134D01*
X354135Y56212D01*
X354015Y56298D01*
X353949Y56329D01*
X353888Y56367D01*
X353751Y56422D01*
X353617Y56485D01*
X353548Y56503D01*
X353481Y56530D01*
X353336Y56559D01*
X353193Y56596D01*
X353121Y56601D01*
X353050Y56616D01*
X352902Y56618D01*
X352755Y56629D01*
X352684Y56621D01*
X352611Y56622D01*
X352466Y56597D01*
X352319Y56581D01*
X352250Y56561D01*
X352179Y56549D01*
X352040Y56498D01*
X351898Y56456D01*
X351834Y56423D01*
X351767Y56399D01*
X351639Y56324D01*
X351508Y56256D01*
X351450Y56212D01*
X351388Y56176D01*
X351277Y56079D01*
X351159Y55989D01*
X351111Y55936D01*
X351057Y55889D01*
X350964Y55773D01*
X350865Y55664D01*
X350828Y55602D01*
X350783Y55546D01*
X350713Y55416D01*
X350635Y55290D01*
X350609Y55223D01*
X350575Y55159D01*
X350545Y55056D01*
X350477Y54881D01*
X350448Y54729D01*
X350420Y54636D01*
X350264Y53752D01*
X348310Y50684D01*
X345329Y48597D01*
X341778Y47809D01*
X323187Y51088D01*
X320118Y53042D01*
X318032Y56022D01*
X317244Y59574D01*
X317876Y63157D01*
X319831Y66225D01*
X322811Y68312D01*
X326362Y69099D01*
X344954Y65821D01*
X348022Y63866D01*
X349687Y61489D01*
X349738Y61428D01*
X349782Y61362D01*
X349879Y61261D01*
X349970Y61154D01*
X350031Y61103D01*
X350087Y61046D01*
X350201Y60964D01*
X350309Y60875D01*
X350379Y60837D01*
X350444Y60791D01*
X350571Y60731D01*
X350694Y60663D01*
X350769Y60638D01*
X350841Y60604D01*
X350977Y60569D01*
X351110Y60524D01*
X351188Y60513D01*
X351265Y60493D01*
X351405Y60483D01*
X351544Y60463D01*
X351624Y60466D01*
X351703Y60460D01*
X351843Y60476D01*
X351983Y60481D01*
X352060Y60499D01*
X352139Y60508D01*
X352274Y60548D01*
X352411Y60579D01*
X352484Y60610D01*
X352560Y60633D01*
X352685Y60697D01*
X352814Y60752D01*
X352880Y60797D01*
X352951Y60833D01*
X353062Y60918D01*
X353179Y60996D01*
X353236Y61051D01*
X353299Y61100D01*
X353393Y61204D01*
X353494Y61302D01*
X353540Y61367D01*
X353593Y61426D01*
X353666Y61545D01*
X353748Y61659D01*
X353781Y61731D01*
X353823Y61799D01*
X353874Y61930D01*
X353933Y62057D01*
X353953Y62134D01*
X353982Y62208D01*
X354008Y62347D01*
X354043Y62482D01*
X354049Y62561D01*
X354064Y62640D01*
X354062Y62745D01*
X354074Y62920D01*
X354056Y63084D01*
X354054Y63185D01*
X353891Y64438D01*
X353867Y64542D01*
X353860Y64617D01*
X352384Y71695D01*
X352355Y71789D01*
X352336Y71885D01*
X352291Y71999D01*
X352256Y72115D01*
X352211Y72202D01*
X352174Y72293D01*
X352110Y72396D01*
X352054Y72504D01*
X351993Y72582D01*
X351941Y72665D01*
X351859Y72755D01*
X351784Y72851D01*
X351711Y72916D01*
X351644Y72988D01*
X351547Y73062D01*
X351457Y73143D01*
X351373Y73194D01*
X351294Y73253D01*
X351185Y73307D01*
X351081Y73370D01*
X350989Y73405D01*
X350902Y73449D01*
X350785Y73483D01*
X350671Y73526D01*
X350574Y73544D01*
X350480Y73571D01*
X350359Y73583D01*
X350239Y73605D01*
X350141Y73605D01*
X350044Y73615D01*
X349949Y73605D01*
X349801Y73605D01*
X349609Y73569D01*
X349501Y73558D01*
X346188Y72824D01*
X327597Y76102D01*
X324529Y78056D01*
X322442Y81036D01*
X321655Y84588D01*
X322287Y88171D01*
X324241Y91239D01*
X327221Y93326D01*
X330773Y94113D01*
X345282Y91555D01*
X345414Y91544D01*
X345545Y91523D01*
X345632Y91526D01*
X345720Y91518D01*
X345851Y91531D01*
X345983Y91535D01*
X346069Y91553D01*
X346156Y91562D01*
X346283Y91598D01*
X346413Y91626D01*
X346494Y91659D01*
X346578Y91683D01*
X346696Y91742D01*
X346819Y91793D01*
X346892Y91840D01*
X346971Y91879D01*
X347076Y91959D01*
X347187Y92031D01*
X347251Y92091D01*
X347321Y92143D01*
X347411Y92240D01*
X347507Y92331D01*
X347559Y92402D01*
X347618Y92466D01*
X347689Y92578D01*
X347767Y92685D01*
X347805Y92764D01*
X347852Y92838D01*
X347901Y92961D01*
X347958Y93080D01*
X347982Y93164D01*
X348014Y93245D01*
X348040Y93375D01*
X348075Y93503D01*
X348080Y93575D01*
X348100Y93676D01*
X348104Y93945D01*
X348111Y94048D01*
X347972Y96899D01*
X347911Y97333D01*
X347899Y97369D01*
X347895Y97399D01*
X345414Y106773D01*
X345375Y106882D01*
X345357Y106960D01*
X335679Y134345D01*
X335631Y134451D01*
X335606Y134527D01*
X323743Y161039D01*
X323687Y161140D01*
X323656Y161214D01*
X309686Y186679D01*
X309622Y186775D01*
X309585Y186847D01*
X293600Y211097D01*
X293528Y211188D01*
X293486Y211256D01*
X275589Y234133D01*
X275510Y234217D01*
X275463Y234282D01*
X259071Y252059D01*
X259047Y252081D01*
X259026Y252106D01*
X258947Y252171D01*
X258745Y252353D01*
X258659Y252406D01*
X258603Y252452D01*
X252343Y256483D01*
X248174Y260402D01*
X247165Y261349D01*
X246333Y262132D01*
X246306Y262153D01*
X246288Y262173D01*
X232890Y274143D01*
X232804Y274207D01*
X232750Y274259D01*
X204236Y296106D01*
X204111Y296184D01*
X204036Y296243D01*
X173472Y315116D01*
X173340Y315182D01*
X173259Y315233D01*
X141146Y330849D01*
X141142Y330850D01*
X141139Y330852D01*
X140944Y330925D01*
X140736Y331004D01*
X140732Y331005D01*
X140728Y331006D01*
X140521Y331043D01*
X140304Y331082D01*
X140300Y331082D01*
X140296Y331083D01*
X140085Y331082D01*
X139865Y331081D01*
X139861Y331080D01*
X139857Y331080D01*
X139649Y331040D01*
X139434Y331000D01*
X139430Y330999D01*
X139426Y330998D01*
X139228Y330921D01*
X139024Y330843D01*
X139021Y330841D01*
X139017Y330839D01*
X138838Y330729D01*
X138650Y330614D01*
X138647Y330611D01*
X138644Y330609D01*
X138487Y330468D01*
X138323Y330320D01*
X138321Y330317D01*
X138318Y330315D01*
X138186Y330143D01*
X138055Y329973D01*
X138054Y329969D01*
X138051Y329966D01*
X137954Y329776D01*
X137855Y329583D01*
X137854Y329579D01*
X137852Y329576D01*
X137790Y329370D01*
X137728Y329163D01*
X137728Y329159D01*
X137726Y329155D01*
X137703Y328934D01*
X137680Y328726D01*
X137680Y328723D01*
X137679Y328719D01*
X137696Y328504D01*
X137711Y328289D01*
X137712Y328285D01*
X137712Y328281D01*
X137720Y328256D01*
X137821Y327864D01*
X137849Y327804D01*
X137863Y327756D01*
X138339Y326608D01*
X138339Y307730D01*
X136946Y304368D01*
X134374Y301796D01*
X131013Y300404D01*
X127375Y300404D01*
X124014Y301796D01*
X121441Y304368D01*
X120049Y307730D01*
X120049Y326608D01*
X121441Y329969D01*
X124014Y332541D01*
X124240Y332635D01*
X124417Y332728D01*
X124596Y332818D01*
X124612Y332830D01*
X124629Y332839D01*
X124786Y332963D01*
X124946Y333084D01*
X124959Y333098D01*
X124974Y333110D01*
X125106Y333260D01*
X125241Y333408D01*
X125251Y333425D01*
X125264Y333439D01*
X125367Y333611D01*
X125473Y333781D01*
X125480Y333799D01*
X125490Y333816D01*
X125560Y334003D01*
X125633Y334189D01*
X125637Y334208D01*
X125644Y334227D01*
X125679Y334424D01*
X125717Y334620D01*
X125717Y334639D01*
X125721Y334659D01*
X125720Y334860D01*
X125722Y335059D01*
X125718Y335078D01*
X125718Y335097D01*
X125681Y335294D01*
X125646Y335491D01*
X125640Y335510D01*
X125636Y335528D01*
X125564Y335715D01*
X125494Y335903D01*
X125484Y335919D01*
X125477Y335938D01*
X125372Y336108D01*
X125270Y336280D01*
X125257Y336295D01*
X125247Y336311D01*
X125113Y336460D01*
X124981Y336610D01*
X124966Y336622D01*
X124953Y336637D01*
X124794Y336759D01*
X124637Y336883D01*
X124622Y336891D01*
X124604Y336904D01*
X124214Y337103D01*
X124176Y337114D01*
X124149Y337128D01*
X107013Y343422D01*
X106871Y343460D01*
X106781Y343494D01*
X71990Y352432D01*
X71844Y352455D01*
X71752Y352480D01*
X36239Y357879D01*
X36091Y357888D01*
X35997Y357903D01*
X121Y359709D01*
X-26Y359703D01*
X-121Y359709D01*
X-35997Y357903D01*
X-36143Y357883D01*
X-36239Y357879D01*
X-71752Y352480D01*
X-71895Y352445D01*
X-71990Y352432D01*
X-106781Y343494D01*
X-106921Y343445D01*
X-107013Y343422D01*
X-121824Y337982D01*
X-122003Y337897D01*
X-122187Y337813D01*
X-122203Y337802D01*
X-122220Y337794D01*
X-122381Y337678D01*
X-122547Y337562D01*
X-122560Y337548D01*
X-122576Y337537D01*
X-122714Y337393D01*
X-122855Y337250D01*
X-122866Y337234D01*
X-122879Y337220D01*
X-122989Y337053D01*
X-123102Y336887D01*
X-123110Y336869D01*
X-123120Y336853D01*
X-123198Y336668D01*
X-123279Y336486D01*
X-123283Y336467D01*
X-123291Y336449D01*
X-123334Y336252D01*
X-123380Y336059D01*
X-123381Y336039D01*
X-123385Y336020D01*
X-123392Y335820D01*
X-123402Y335620D01*
X-123400Y335601D01*
X-123400Y335582D01*
X-123371Y335384D01*
X-123345Y335185D01*
X-123339Y335167D01*
X-123336Y335148D01*
X-123271Y334959D01*
X-123209Y334768D01*
X-123200Y334751D01*
X-123194Y334732D01*
X-123096Y334559D01*
X-123000Y334382D01*
X-122988Y334367D01*
X-122979Y334350D01*
X-122851Y334196D01*
X-122725Y334040D01*
X-122710Y334027D01*
X-122698Y334013D01*
X-122545Y333885D01*
X-122393Y333754D01*
X-122378Y333746D01*
X-122361Y333732D01*
X-121978Y333516D01*
X-121941Y333504D01*
X-121915Y333489D01*
X-119626Y332541D01*
X-117054Y329969D01*
X-115661Y326608D01*
X-115661Y307730D01*
X-117054Y304368D01*
X-119626Y301796D01*
X-122987Y300404D01*
X-126625Y300404D01*
X-129986Y301796D01*
X-132559Y304368D01*
X-133951Y307730D01*
X-133951Y326608D01*
X-132677Y329684D01*
X-132646Y329782D01*
X-132606Y329876D01*
X-132581Y329991D01*
X-132546Y330103D01*
X-132534Y330205D01*
X-132512Y330305D01*
X-132508Y330422D01*
X-132494Y330539D01*
X-132500Y330641D01*
X-132497Y330743D01*
X-132514Y330859D01*
X-132522Y330977D01*
X-132546Y331076D01*
X-132561Y331177D01*
X-132599Y331288D01*
X-132628Y331402D01*
X-132670Y331496D01*
X-132703Y331592D01*
X-132761Y331695D01*
X-132810Y331802D01*
X-132868Y331886D01*
X-132918Y331975D01*
X-132994Y332065D01*
X-133061Y332162D01*
X-133134Y332234D01*
X-133199Y332312D01*
X-133290Y332388D01*
X-133373Y332470D01*
X-133458Y332528D01*
X-133536Y332593D01*
X-133639Y332651D01*
X-133736Y332717D01*
X-133829Y332758D01*
X-133919Y332808D01*
X-134030Y332847D01*
X-134137Y332894D01*
X-134237Y332917D01*
X-134334Y332951D01*
X-134450Y332968D01*
X-134564Y332995D01*
X-134667Y333000D01*
X-134768Y333015D01*
X-134885Y333011D01*
X-135003Y333017D01*
X-135104Y333004D01*
X-135207Y333000D01*
X-135297Y332978D01*
X-135438Y332960D01*
X-135631Y332897D01*
X-135737Y332871D01*
X-140732Y331037D01*
X-140865Y330974D01*
X-140955Y330942D01*
X-173259Y315233D01*
X-173386Y315157D01*
X-173472Y315116D01*
X-204036Y296243D01*
X-204154Y296155D01*
X-204236Y296106D01*
X-232750Y274259D01*
X-232829Y274187D01*
X-232890Y274143D01*
X-233753Y273373D01*
X-233753Y273372D01*
X-236452Y270960D01*
X-236453Y270960D01*
X-244552Y263724D01*
X-246288Y262173D01*
X-246311Y262148D01*
X-246333Y262132D01*
X-248174Y260402D01*
X-252343Y256483D01*
X-255603Y254384D01*
X-255949Y254114D01*
X-255970Y254090D01*
X-255990Y254075D01*
X-262797Y247371D01*
X-262871Y247284D01*
X-262929Y247230D01*
X-281721Y225496D01*
X-281787Y225403D01*
X-281841Y225345D01*
X-298832Y202176D01*
X-298891Y202078D01*
X-298940Y202015D01*
X-314021Y177560D01*
X-314071Y177458D01*
X-314115Y177392D01*
X-327190Y151807D01*
X-327232Y151701D01*
X-327271Y151632D01*
X-338254Y125083D01*
X-338288Y124974D01*
X-338321Y124901D01*
X-347143Y97558D01*
X-347168Y97447D01*
X-347195Y97372D01*
X-348093Y93569D01*
X-348117Y93405D01*
X-348130Y93339D01*
X-348131Y93303D01*
X-348155Y93135D01*
X-348155Y93133D01*
X-348155Y93132D01*
X-348293Y90294D01*
X-350141Y82427D01*
X-350179Y82265D01*
X-350184Y82231D01*
X-350192Y82205D01*
X-353860Y64617D01*
X-353872Y64511D01*
X-353891Y64438D01*
X-358553Y28820D01*
X-358559Y28673D01*
X-358572Y28579D01*
X-359635Y-7327D01*
X-359626Y-7474D01*
X-359630Y-7569D01*
X-357081Y-43400D01*
X-357058Y-43546D01*
X-357052Y-43641D01*
X-350919Y-79035D01*
X-350881Y-79178D01*
X-350866Y-79272D01*
X-341210Y-113871D01*
X-341157Y-114009D01*
X-341133Y-114101D01*
X-328052Y-147556D01*
X-327986Y-147688D01*
X-327952Y-147777D01*
X-311578Y-179750D01*
X-311499Y-179874D01*
X-311457Y-179960D01*
X-291955Y-210126D01*
X-291864Y-210243D01*
X-291813Y-210323D01*
X-269381Y-238379D01*
X-269279Y-238486D01*
X-269220Y-238561D01*
X-244084Y-264223D01*
X-243972Y-264318D01*
X-243906Y-264387D01*
X-216320Y-287396D01*
X-216199Y-287479D01*
X-216127Y-287541D01*
X-186370Y-307664D01*
X-186241Y-307735D01*
X-186163Y-307789D01*
X-154536Y-324822D01*
X-154400Y-324880D01*
X-154317Y-324926D01*
X-121140Y-338697D01*
X-121038Y-338729D01*
X-120970Y-338761D01*
X-103904Y-344378D01*
X-103871Y-344386D01*
X-103846Y-344396D01*
X-102689Y-344745D01*
X-101434Y-345124D01*
X-101428Y-345126D01*
X-95950Y-346778D01*
X-95087Y-347221D01*
X-94680Y-347386D01*
X-94660Y-347390D01*
X-94645Y-347396D01*
X-84344Y-350330D01*
X-84231Y-350352D01*
X-84154Y-350376D01*
X-55668Y-356046D01*
X-55553Y-356058D01*
X-55475Y-356076D01*
X-26623Y-359422D01*
X-26507Y-359424D01*
X-26428Y-359436D01*
X2600Y-360435D01*
X2716Y-360429D01*
G37*
%LPC*%
G36*
X-239230Y-142487D02*
X-239230Y-142487D01*
X-253338Y-128379D01*
X-253349Y-128369D01*
X-253359Y-128358D01*
X-253519Y-128228D01*
X-253676Y-128098D01*
X-253688Y-128091D01*
X-253700Y-128082D01*
X-253880Y-127983D01*
X-254058Y-127883D01*
X-254072Y-127878D01*
X-254085Y-127871D01*
X-254279Y-127807D01*
X-254473Y-127741D01*
X-254488Y-127739D01*
X-254502Y-127734D01*
X-254573Y-127726D01*
X-254907Y-127676D01*
X-254986Y-127679D01*
X-255044Y-127672D01*
X-255496Y-127672D01*
X-257263Y-126940D01*
X-258615Y-125588D01*
X-259347Y-123822D01*
X-259347Y-121909D01*
X-258615Y-120143D01*
X-257263Y-118791D01*
X-255496Y-118059D01*
X-253584Y-118059D01*
X-251817Y-118791D01*
X-250465Y-120143D01*
X-249733Y-121909D01*
X-249733Y-122362D01*
X-249732Y-122376D01*
X-249733Y-122391D01*
X-249712Y-122594D01*
X-249693Y-122799D01*
X-249689Y-122813D01*
X-249688Y-122827D01*
X-249630Y-123024D01*
X-249575Y-123221D01*
X-249568Y-123234D01*
X-249564Y-123248D01*
X-249472Y-123432D01*
X-249382Y-123615D01*
X-249373Y-123627D01*
X-249367Y-123640D01*
X-249322Y-123696D01*
X-249121Y-123968D01*
X-249063Y-124022D01*
X-249027Y-124067D01*
X-238638Y-134456D01*
X-238574Y-134509D01*
X-238516Y-134569D01*
X-238405Y-134650D01*
X-238300Y-134737D01*
X-238228Y-134778D01*
X-238161Y-134826D01*
X-238037Y-134885D01*
X-237918Y-134952D01*
X-237839Y-134979D01*
X-237764Y-135015D01*
X-237632Y-135050D01*
X-237503Y-135094D01*
X-237421Y-135107D01*
X-237340Y-135128D01*
X-237204Y-135139D01*
X-237069Y-135159D01*
X-236986Y-135156D01*
X-236903Y-135163D01*
X-236767Y-135149D01*
X-236630Y-135144D01*
X-236549Y-135126D01*
X-236466Y-135117D01*
X-236335Y-135079D01*
X-236201Y-135050D01*
X-236125Y-135017D01*
X-236045Y-134994D01*
X-235923Y-134932D01*
X-235797Y-134879D01*
X-235728Y-134834D01*
X-235653Y-134796D01*
X-235573Y-134732D01*
X-235430Y-134638D01*
X-235307Y-134521D01*
X-235226Y-134456D01*
X-136583Y-35813D01*
X-106731Y-35813D01*
X-106682Y-35809D01*
X-106634Y-35811D01*
X-106464Y-35789D01*
X-106294Y-35773D01*
X-106247Y-35760D01*
X-106199Y-35754D01*
X-106036Y-35701D01*
X-105872Y-35655D01*
X-105828Y-35633D01*
X-105781Y-35618D01*
X-105631Y-35537D01*
X-105477Y-35462D01*
X-105438Y-35433D01*
X-105395Y-35410D01*
X-105262Y-35302D01*
X-105125Y-35201D01*
X-105091Y-35165D01*
X-105053Y-35134D01*
X-104942Y-35005D01*
X-104825Y-34880D01*
X-104799Y-34839D01*
X-104767Y-34802D01*
X-104714Y-34705D01*
X-104589Y-34510D01*
X-104543Y-34397D01*
X-104502Y-34324D01*
X-103559Y-32046D01*
X-102066Y-30553D01*
X-100123Y-29748D01*
X-100019Y-29694D01*
X-99911Y-29648D01*
X-99825Y-29592D01*
X-99734Y-29544D01*
X-99642Y-29472D01*
X-99544Y-29407D01*
X-99470Y-29337D01*
X-99389Y-29273D01*
X-99311Y-29185D01*
X-99227Y-29104D01*
X-99167Y-29021D01*
X-99099Y-28944D01*
X-99039Y-28843D01*
X-98970Y-28748D01*
X-98926Y-28656D01*
X-98873Y-28568D01*
X-98832Y-28458D01*
X-98782Y-28352D01*
X-98755Y-28253D01*
X-98719Y-28157D01*
X-98699Y-28041D01*
X-98668Y-27928D01*
X-98660Y-27826D01*
X-98642Y-27725D01*
X-98643Y-27607D01*
X-98634Y-27490D01*
X-98644Y-27388D01*
X-98645Y-27286D01*
X-98667Y-27171D01*
X-98679Y-27054D01*
X-98708Y-26955D01*
X-98727Y-26855D01*
X-98769Y-26745D01*
X-98802Y-26633D01*
X-98849Y-26541D01*
X-98886Y-26446D01*
X-98947Y-26346D01*
X-99000Y-26241D01*
X-99052Y-26176D01*
X-99116Y-26072D01*
X-99272Y-25900D01*
X-99340Y-25814D01*
X-130339Y5185D01*
X-130429Y5260D01*
X-130512Y5342D01*
X-130597Y5400D01*
X-130676Y5465D01*
X-130778Y5523D01*
X-130875Y5589D01*
X-130969Y5630D01*
X-131058Y5681D01*
X-131169Y5719D01*
X-131277Y5766D01*
X-131376Y5789D01*
X-131474Y5823D01*
X-131590Y5840D01*
X-131704Y5867D01*
X-131806Y5872D01*
X-131908Y5887D01*
X-132025Y5883D01*
X-132142Y5889D01*
X-132244Y5876D01*
X-132346Y5872D01*
X-132461Y5847D01*
X-132577Y5832D01*
X-132675Y5800D01*
X-132775Y5778D01*
X-132883Y5732D01*
X-132994Y5696D01*
X-133085Y5647D01*
X-133179Y5608D01*
X-133277Y5543D01*
X-133380Y5487D01*
X-133460Y5423D01*
X-133546Y5367D01*
X-133631Y5286D01*
X-133722Y5212D01*
X-133789Y5134D01*
X-133863Y5063D01*
X-133932Y4968D01*
X-134008Y4880D01*
X-134049Y4806D01*
X-134120Y4708D01*
X-134146Y4653D01*
X-135678Y3121D01*
X-137628Y2313D01*
X-139740Y2313D01*
X-141733Y3139D01*
X-141782Y3175D01*
X-141887Y3262D01*
X-141960Y3303D01*
X-142027Y3352D01*
X-142151Y3410D01*
X-142270Y3477D01*
X-142349Y3504D01*
X-142424Y3540D01*
X-142555Y3575D01*
X-142685Y3619D01*
X-142767Y3632D01*
X-142848Y3653D01*
X-142984Y3664D01*
X-143119Y3684D01*
X-143202Y3681D01*
X-143285Y3688D01*
X-143421Y3674D01*
X-143558Y3669D01*
X-143639Y3651D01*
X-143722Y3643D01*
X-143853Y3604D01*
X-143986Y3575D01*
X-144063Y3542D01*
X-144143Y3519D01*
X-144265Y3458D01*
X-144391Y3404D01*
X-144460Y3359D01*
X-144534Y3321D01*
X-144615Y3257D01*
X-144758Y3164D01*
X-144787Y3136D01*
X-146772Y2313D01*
X-148884Y2313D01*
X-150834Y3121D01*
X-152327Y4614D01*
X-153135Y6564D01*
X-153135Y8676D01*
X-152326Y10627D01*
X-152325Y10628D01*
X-152195Y10788D01*
X-152064Y10945D01*
X-152057Y10957D01*
X-152048Y10969D01*
X-151950Y11149D01*
X-151849Y11327D01*
X-151845Y11341D01*
X-151838Y11354D01*
X-151774Y11548D01*
X-151707Y11743D01*
X-151705Y11757D01*
X-151701Y11771D01*
X-151692Y11842D01*
X-151643Y12177D01*
X-151645Y12255D01*
X-151639Y12313D01*
X-151639Y243263D01*
X-98616Y296286D01*
X-98519Y296402D01*
X-98416Y296513D01*
X-98379Y296571D01*
X-98335Y296623D01*
X-98261Y296755D01*
X-98180Y296882D01*
X-98154Y296946D01*
X-98120Y297006D01*
X-98071Y297149D01*
X-98014Y297289D01*
X-98000Y297356D01*
X-97978Y297421D01*
X-97956Y297571D01*
X-97925Y297719D01*
X-97923Y297787D01*
X-97913Y297855D01*
X-97919Y298006D01*
X-97915Y298157D01*
X-97926Y298225D01*
X-97928Y298293D01*
X-97961Y298441D01*
X-97985Y298591D01*
X-98008Y298655D01*
X-98023Y298722D01*
X-98081Y298861D01*
X-98132Y299004D01*
X-98167Y299063D01*
X-98193Y299126D01*
X-98276Y299253D01*
X-98352Y299384D01*
X-98396Y299436D01*
X-98434Y299493D01*
X-98538Y299603D01*
X-98637Y299718D01*
X-98690Y299761D01*
X-98737Y299810D01*
X-98860Y299899D01*
X-98977Y299994D01*
X-99038Y300027D01*
X-99093Y300067D01*
X-99230Y300132D01*
X-99362Y300205D01*
X-99428Y300226D01*
X-99489Y300256D01*
X-99636Y300295D01*
X-99779Y300342D01*
X-99837Y300349D01*
X-99913Y300369D01*
X-100250Y300396D01*
X-100322Y300404D01*
X-101225Y300404D01*
X-104586Y301796D01*
X-107159Y304368D01*
X-108551Y307730D01*
X-108551Y326608D01*
X-107159Y329969D01*
X-104586Y332541D01*
X-101225Y333933D01*
X-97587Y333933D01*
X-94226Y332541D01*
X-92191Y330506D01*
X-92127Y330453D01*
X-92070Y330393D01*
X-91959Y330313D01*
X-91854Y330225D01*
X-91782Y330185D01*
X-91714Y330136D01*
X-91591Y330077D01*
X-91471Y330010D01*
X-91393Y329983D01*
X-91318Y329948D01*
X-91186Y329912D01*
X-91056Y329868D01*
X-90974Y329856D01*
X-90894Y329834D01*
X-90758Y329824D01*
X-90622Y329803D01*
X-90539Y329806D01*
X-90456Y329800D01*
X-90320Y329814D01*
X-90184Y329819D01*
X-90103Y329836D01*
X-90020Y329845D01*
X-89888Y329884D01*
X-89755Y329913D01*
X-89679Y329945D01*
X-89599Y329968D01*
X-89477Y330030D01*
X-89351Y330083D01*
X-89281Y330129D01*
X-89207Y330166D01*
X-89126Y330231D01*
X-88984Y330324D01*
X-88861Y330442D01*
X-88780Y330506D01*
X-79193Y340093D01*
X-77147Y342139D01*
X63431Y342139D01*
X71943Y333627D01*
X71981Y333595D01*
X72014Y333559D01*
X72149Y333455D01*
X72281Y333346D01*
X72323Y333322D01*
X72362Y333292D01*
X72514Y333214D01*
X72663Y333131D01*
X72709Y333115D01*
X72753Y333093D01*
X72917Y333044D01*
X73078Y332989D01*
X73126Y332981D01*
X73173Y332967D01*
X73343Y332949D01*
X73512Y332924D01*
X73561Y332926D01*
X73610Y332920D01*
X73780Y332933D01*
X73951Y332939D01*
X73999Y332950D01*
X74047Y332953D01*
X74153Y332984D01*
X74379Y333033D01*
X74492Y333081D01*
X74572Y333104D01*
X76575Y333933D01*
X80213Y333933D01*
X83574Y332541D01*
X86146Y329969D01*
X87539Y326608D01*
X87539Y307730D01*
X86146Y304368D01*
X83574Y301796D01*
X80213Y300404D01*
X76575Y300404D01*
X73214Y301796D01*
X70641Y304368D01*
X69249Y307730D01*
X69249Y326608D01*
X69583Y327413D01*
X69597Y327460D01*
X69618Y327504D01*
X69662Y327669D01*
X69713Y327832D01*
X69719Y327881D01*
X69732Y327928D01*
X69745Y328098D01*
X69765Y328268D01*
X69762Y328317D01*
X69766Y328366D01*
X69749Y328535D01*
X69738Y328706D01*
X69726Y328753D01*
X69721Y328802D01*
X69673Y328966D01*
X69632Y329132D01*
X69611Y329176D01*
X69598Y329223D01*
X69521Y329376D01*
X69450Y329531D01*
X69422Y329571D01*
X69400Y329615D01*
X69331Y329701D01*
X69199Y329891D01*
X69112Y329977D01*
X69060Y330042D01*
X62243Y336859D01*
X62232Y336868D01*
X62223Y336879D01*
X62064Y337008D01*
X61906Y337140D01*
X61893Y337147D01*
X61882Y337156D01*
X61703Y337254D01*
X61524Y337355D01*
X61510Y337359D01*
X61497Y337366D01*
X61303Y337430D01*
X61108Y337497D01*
X61094Y337499D01*
X61080Y337503D01*
X61009Y337512D01*
X60674Y337561D01*
X60595Y337559D01*
X60538Y337565D01*
X58172Y337565D01*
X57987Y337548D01*
X57802Y337537D01*
X57769Y337528D01*
X57735Y337525D01*
X57556Y337475D01*
X57376Y337430D01*
X57345Y337416D01*
X57312Y337407D01*
X57146Y337325D01*
X56977Y337249D01*
X56949Y337229D01*
X56918Y337214D01*
X56769Y337104D01*
X56617Y336997D01*
X56593Y336973D01*
X56565Y336953D01*
X56439Y336817D01*
X56308Y336685D01*
X56289Y336657D01*
X56266Y336632D01*
X56166Y336476D01*
X56062Y336322D01*
X56048Y336291D01*
X56029Y336262D01*
X55960Y336091D01*
X55885Y335921D01*
X55877Y335887D01*
X55864Y335856D01*
X55826Y335675D01*
X55784Y335494D01*
X55782Y335460D01*
X55775Y335426D01*
X55771Y335241D01*
X55761Y335056D01*
X55766Y335022D01*
X55765Y334987D01*
X55795Y334804D01*
X55819Y334620D01*
X55829Y334588D01*
X55835Y334554D01*
X55897Y334379D01*
X55954Y334203D01*
X55971Y334173D01*
X55982Y334141D01*
X56075Y333980D01*
X56163Y333817D01*
X56185Y333790D01*
X56202Y333761D01*
X56322Y333620D01*
X56438Y333475D01*
X56464Y333453D01*
X56487Y333427D01*
X56631Y333309D01*
X56771Y333189D01*
X56797Y333175D01*
X56827Y333150D01*
X57212Y332940D01*
X57233Y332933D01*
X57248Y332924D01*
X58174Y332541D01*
X60746Y329969D01*
X62139Y326608D01*
X62139Y307730D01*
X60746Y304368D01*
X58174Y301796D01*
X54813Y300404D01*
X51175Y300404D01*
X47814Y301796D01*
X45241Y304368D01*
X43849Y307730D01*
X43849Y319202D01*
X43848Y319216D01*
X43849Y319231D01*
X43828Y319434D01*
X43809Y319639D01*
X43805Y319653D01*
X43804Y319667D01*
X43746Y319864D01*
X43691Y320061D01*
X43684Y320075D01*
X43680Y320088D01*
X43588Y320271D01*
X43498Y320456D01*
X43489Y320467D01*
X43482Y320480D01*
X43438Y320537D01*
X43236Y320808D01*
X43179Y320862D01*
X43143Y320908D01*
X40856Y323194D01*
X40740Y323290D01*
X40630Y323394D01*
X40572Y323431D01*
X40519Y323474D01*
X40387Y323549D01*
X40260Y323630D01*
X40196Y323656D01*
X40137Y323689D01*
X39994Y323738D01*
X39853Y323796D01*
X39786Y323809D01*
X39722Y323832D01*
X39572Y323854D01*
X39424Y323885D01*
X39355Y323886D01*
X39287Y323896D01*
X39136Y323891D01*
X38985Y323894D01*
X38917Y323884D01*
X38849Y323881D01*
X38701Y323849D01*
X38552Y323825D01*
X38487Y323802D01*
X38420Y323787D01*
X38281Y323728D01*
X38138Y323677D01*
X38079Y323643D01*
X38016Y323617D01*
X37890Y323534D01*
X37758Y323458D01*
X37706Y323413D01*
X37649Y323376D01*
X37540Y323271D01*
X37425Y323173D01*
X37381Y323120D01*
X37332Y323072D01*
X37243Y322950D01*
X37148Y322832D01*
X37115Y322772D01*
X37075Y322717D01*
X37010Y322580D01*
X36937Y322447D01*
X36916Y322382D01*
X36887Y322320D01*
X36848Y322174D01*
X36800Y322030D01*
X36794Y321973D01*
X36773Y321896D01*
X36747Y321560D01*
X36739Y321488D01*
X36739Y307730D01*
X35346Y304368D01*
X32774Y301796D01*
X29413Y300404D01*
X26035Y300404D01*
X25952Y300396D01*
X25869Y300398D01*
X25734Y300376D01*
X25598Y300364D01*
X25518Y300341D01*
X25436Y300328D01*
X25307Y300282D01*
X25175Y300245D01*
X25101Y300209D01*
X25023Y300181D01*
X24904Y300113D01*
X24781Y300052D01*
X24715Y300003D01*
X24643Y299961D01*
X24539Y299873D01*
X24429Y299791D01*
X24372Y299730D01*
X24309Y299677D01*
X24223Y299570D01*
X24129Y299470D01*
X24085Y299401D01*
X24032Y299336D01*
X23967Y299216D01*
X23893Y299101D01*
X23861Y299024D01*
X23822Y298951D01*
X23779Y298821D01*
X23727Y298694D01*
X23711Y298613D01*
X23685Y298534D01*
X23673Y298431D01*
X23638Y298265D01*
X23634Y298094D01*
X23623Y297992D01*
X23623Y283007D01*
X23633Y282891D01*
X23634Y282773D01*
X23653Y282673D01*
X23663Y282570D01*
X23694Y282457D01*
X23716Y282342D01*
X23753Y282247D01*
X23781Y282148D01*
X23833Y282043D01*
X23875Y281933D01*
X23929Y281846D01*
X23974Y281754D01*
X24044Y281660D01*
X24105Y281560D01*
X24174Y281484D01*
X24235Y281401D01*
X24321Y281321D01*
X24400Y281234D01*
X24481Y281172D01*
X24556Y281102D01*
X24655Y281038D01*
X24748Y280967D01*
X24839Y280921D01*
X24926Y280865D01*
X25034Y280821D01*
X25139Y280768D01*
X25237Y280738D01*
X25332Y280700D01*
X25447Y280676D01*
X25559Y280642D01*
X25662Y280631D01*
X25762Y280611D01*
X25879Y280608D01*
X25996Y280595D01*
X26098Y280603D01*
X26201Y280601D01*
X26317Y280619D01*
X26433Y280628D01*
X26514Y280651D01*
X26634Y280671D01*
X26852Y280748D01*
X26958Y280779D01*
X28947Y281603D01*
X30859Y281603D01*
X32626Y280871D01*
X33978Y279519D01*
X34710Y277752D01*
X34710Y275840D01*
X33978Y274073D01*
X32769Y272864D01*
X32760Y272853D01*
X32749Y272844D01*
X32619Y272684D01*
X32489Y272527D01*
X32482Y272515D01*
X32472Y272503D01*
X32374Y272323D01*
X32274Y272145D01*
X32269Y272131D01*
X32262Y272118D01*
X32198Y271924D01*
X32131Y271729D01*
X32129Y271715D01*
X32125Y271701D01*
X32117Y271630D01*
X32067Y271295D01*
X32070Y271217D01*
X32063Y271159D01*
X32063Y182758D01*
X28822Y179516D01*
X24633Y179516D01*
X24618Y179515D01*
X24604Y179516D01*
X24400Y179495D01*
X24196Y179476D01*
X24182Y179473D01*
X24167Y179471D01*
X23970Y179413D01*
X23773Y179358D01*
X23760Y179352D01*
X23746Y179348D01*
X23563Y179255D01*
X23379Y179165D01*
X23367Y179156D01*
X23354Y179150D01*
X23298Y179105D01*
X23027Y178904D01*
X22973Y178846D01*
X22927Y178810D01*
X972Y156855D01*
X89Y156855D01*
X-127Y156835D01*
X-340Y156816D01*
X-344Y156815D01*
X-348Y156815D01*
X-561Y156755D01*
X-763Y156699D01*
X-767Y156697D01*
X-771Y156696D01*
X-965Y156601D01*
X-1158Y156507D01*
X-1161Y156505D01*
X-1165Y156503D01*
X-1517Y156242D01*
X-1556Y156201D01*
X-1590Y156174D01*
X-110987Y50102D01*
X-111073Y50002D01*
X-111165Y49909D01*
X-111215Y49836D01*
X-111273Y49769D01*
X-111339Y49656D01*
X-111394Y49576D01*
X-112172Y48941D01*
X-112259Y48855D01*
X-112326Y48804D01*
X-113055Y48096D01*
X-113156Y48058D01*
X-113218Y48018D01*
X-113312Y47974D01*
X-113528Y47819D01*
X-113616Y47762D01*
X-121014Y41725D01*
X-121111Y41629D01*
X-121215Y41541D01*
X-121267Y41476D01*
X-121327Y41417D01*
X-121405Y41306D01*
X-121491Y41200D01*
X-121532Y41127D01*
X-121580Y41058D01*
X-121636Y40935D01*
X-121702Y40815D01*
X-121728Y40736D01*
X-121763Y40660D01*
X-121796Y40528D01*
X-121839Y40398D01*
X-121847Y40329D01*
X-121871Y40234D01*
X-121890Y39955D01*
X-121901Y39856D01*
X-121901Y38909D01*
X-122633Y37143D01*
X-123985Y35790D01*
X-125751Y35059D01*
X-127664Y35059D01*
X-129430Y35790D01*
X-130987Y37347D01*
X-131014Y37370D01*
X-131038Y37396D01*
X-131183Y37510D01*
X-131324Y37628D01*
X-131355Y37645D01*
X-131383Y37667D01*
X-131546Y37753D01*
X-131707Y37843D01*
X-131740Y37854D01*
X-131772Y37871D01*
X-131948Y37925D01*
X-132122Y37985D01*
X-132157Y37990D01*
X-132191Y38001D01*
X-132374Y38023D01*
X-132556Y38050D01*
X-132591Y38048D01*
X-132627Y38053D01*
X-132810Y38041D01*
X-132994Y38035D01*
X-133029Y38027D01*
X-133065Y38025D01*
X-133243Y37980D01*
X-133423Y37940D01*
X-133456Y37926D01*
X-133490Y37918D01*
X-133658Y37841D01*
X-133827Y37770D01*
X-133857Y37750D01*
X-133890Y37736D01*
X-133974Y37673D01*
X-134194Y37529D01*
X-134270Y37457D01*
X-134330Y37413D01*
X-135869Y35990D01*
X-136012Y35832D01*
X-136154Y35676D01*
X-136158Y35670D01*
X-136163Y35664D01*
X-136275Y35482D01*
X-136386Y35303D01*
X-136389Y35297D01*
X-136393Y35291D01*
X-136469Y35093D01*
X-136547Y34895D01*
X-136548Y34888D01*
X-136551Y34881D01*
X-136590Y34676D01*
X-136631Y34464D01*
X-136631Y34458D01*
X-136633Y34450D01*
X-136635Y34011D01*
X-136626Y33959D01*
X-136625Y33918D01*
X-135664Y26255D01*
X-135638Y26140D01*
X-135623Y26023D01*
X-135591Y25926D01*
X-135570Y25827D01*
X-135524Y25718D01*
X-135488Y25606D01*
X-135439Y25516D01*
X-135400Y25422D01*
X-135335Y25324D01*
X-135279Y25220D01*
X-135215Y25140D01*
X-135159Y25055D01*
X-135078Y24970D01*
X-135003Y24878D01*
X-134926Y24811D01*
X-134856Y24738D01*
X-134760Y24669D01*
X-134671Y24592D01*
X-134598Y24551D01*
X-134500Y24481D01*
X-134290Y24380D01*
X-134193Y24327D01*
X-134154Y24311D01*
X-132661Y22818D01*
X-131853Y20868D01*
X-131853Y18756D01*
X-132735Y16628D01*
X-132741Y16619D01*
X-132800Y16496D01*
X-132866Y16377D01*
X-132894Y16298D01*
X-132929Y16223D01*
X-132965Y16091D01*
X-133009Y15962D01*
X-133021Y15880D01*
X-133043Y15799D01*
X-133053Y15663D01*
X-133074Y15528D01*
X-133071Y15444D01*
X-133077Y15361D01*
X-133063Y15226D01*
X-133059Y15089D01*
X-133041Y15008D01*
X-133032Y14925D01*
X-132994Y14794D01*
X-132964Y14661D01*
X-132932Y14584D01*
X-132909Y14504D01*
X-132847Y14382D01*
X-132794Y14256D01*
X-132748Y14187D01*
X-132711Y14112D01*
X-132647Y14031D01*
X-132553Y13889D01*
X-132435Y13766D01*
X-132371Y13685D01*
X-89647Y-29039D01*
X-89636Y-29048D01*
X-89627Y-29059D01*
X-89467Y-29189D01*
X-89310Y-29320D01*
X-89297Y-29327D01*
X-89286Y-29336D01*
X-89106Y-29434D01*
X-88928Y-29535D01*
X-88914Y-29539D01*
X-88901Y-29546D01*
X-88707Y-29610D01*
X-88512Y-29677D01*
X-88498Y-29679D01*
X-88484Y-29683D01*
X-88413Y-29692D01*
X-88078Y-29741D01*
X-87999Y-29739D01*
X-87942Y-29745D01*
X-87336Y-29745D01*
X-85386Y-30553D01*
X-84711Y-31228D01*
X-84569Y-31347D01*
X-84430Y-31469D01*
X-84401Y-31487D01*
X-84374Y-31509D01*
X-84212Y-31600D01*
X-84054Y-31695D01*
X-84022Y-31707D01*
X-83992Y-31724D01*
X-83816Y-31784D01*
X-83643Y-31849D01*
X-83609Y-31855D01*
X-83576Y-31866D01*
X-83393Y-31893D01*
X-83211Y-31926D01*
X-83176Y-31925D01*
X-83142Y-31930D01*
X-82957Y-31924D01*
X-82772Y-31923D01*
X-82738Y-31917D01*
X-82704Y-31915D01*
X-82523Y-31876D01*
X-82341Y-31841D01*
X-82309Y-31828D01*
X-82275Y-31821D01*
X-82105Y-31749D01*
X-81932Y-31682D01*
X-81902Y-31664D01*
X-81871Y-31651D01*
X-81716Y-31549D01*
X-81558Y-31452D01*
X-81533Y-31429D01*
X-81504Y-31410D01*
X-81370Y-31282D01*
X-81232Y-31158D01*
X-81212Y-31130D01*
X-81187Y-31107D01*
X-81078Y-30957D01*
X-80965Y-30809D01*
X-80950Y-30779D01*
X-80930Y-30751D01*
X-80851Y-30584D01*
X-80766Y-30418D01*
X-80756Y-30385D01*
X-80742Y-30354D01*
X-80694Y-30175D01*
X-80641Y-29998D01*
X-80637Y-29964D01*
X-80628Y-29931D01*
X-80614Y-29746D01*
X-80594Y-29561D01*
X-80596Y-29527D01*
X-80594Y-29493D01*
X-80613Y-29309D01*
X-80626Y-29124D01*
X-80635Y-29095D01*
X-80639Y-29057D01*
X-80762Y-28635D01*
X-80772Y-28616D01*
X-80777Y-28599D01*
X-82189Y-25191D01*
X-85508Y-8506D01*
X-85508Y8506D01*
X-82189Y25191D01*
X-75679Y40907D01*
X-66228Y55052D01*
X-54199Y67081D01*
X-40054Y76532D01*
X-24337Y83042D01*
X-7653Y86361D01*
X9359Y86361D01*
X26044Y83042D01*
X41760Y76532D01*
X55905Y67081D01*
X67934Y55052D01*
X77385Y40907D01*
X83895Y25191D01*
X87214Y8506D01*
X87214Y-8506D01*
X83895Y-25191D01*
X77385Y-40907D01*
X67934Y-55052D01*
X55905Y-67081D01*
X41760Y-76532D01*
X26044Y-83042D01*
X9359Y-86361D01*
X-7653Y-86361D01*
X-24337Y-83042D01*
X-40054Y-76532D01*
X-54199Y-67081D01*
X-66228Y-55052D01*
X-75679Y-40907D01*
X-78444Y-34230D01*
X-78531Y-34067D01*
X-78612Y-33900D01*
X-78633Y-33872D01*
X-78649Y-33842D01*
X-78763Y-33696D01*
X-78873Y-33547D01*
X-78898Y-33524D01*
X-78920Y-33497D01*
X-79059Y-33374D01*
X-79194Y-33248D01*
X-79223Y-33229D01*
X-79249Y-33207D01*
X-79408Y-33111D01*
X-79564Y-33011D01*
X-79596Y-32998D01*
X-79625Y-32981D01*
X-79799Y-32916D01*
X-79970Y-32846D01*
X-80004Y-32839D01*
X-80036Y-32827D01*
X-80219Y-32794D01*
X-80400Y-32757D01*
X-80434Y-32756D01*
X-80468Y-32750D01*
X-80653Y-32751D01*
X-80839Y-32747D01*
X-80873Y-32752D01*
X-80907Y-32753D01*
X-81089Y-32787D01*
X-81272Y-32817D01*
X-81304Y-32828D01*
X-81338Y-32835D01*
X-81511Y-32902D01*
X-81685Y-32964D01*
X-81715Y-32981D01*
X-81747Y-32994D01*
X-81905Y-33091D01*
X-82065Y-33184D01*
X-82091Y-33206D01*
X-82121Y-33224D01*
X-82258Y-33348D01*
X-82399Y-33469D01*
X-82421Y-33495D01*
X-82446Y-33518D01*
X-82559Y-33665D01*
X-82676Y-33809D01*
X-82692Y-33839D01*
X-82713Y-33866D01*
X-82797Y-34031D01*
X-82886Y-34194D01*
X-82897Y-34227D01*
X-82913Y-34257D01*
X-82966Y-34435D01*
X-83023Y-34611D01*
X-83027Y-34641D01*
X-83038Y-34678D01*
X-83085Y-35114D01*
X-83083Y-35136D01*
X-83085Y-35154D01*
X-83085Y-36108D01*
X-83893Y-38058D01*
X-85386Y-39551D01*
X-87336Y-40359D01*
X-89448Y-40359D01*
X-91398Y-39551D01*
X-92020Y-38929D01*
X-92084Y-38875D01*
X-92142Y-38815D01*
X-92253Y-38735D01*
X-92358Y-38648D01*
X-92430Y-38607D01*
X-92497Y-38558D01*
X-92621Y-38500D01*
X-92740Y-38433D01*
X-92819Y-38406D01*
X-92894Y-38370D01*
X-93026Y-38335D01*
X-93155Y-38291D01*
X-93237Y-38278D01*
X-93318Y-38257D01*
X-93454Y-38246D01*
X-93589Y-38226D01*
X-93672Y-38229D01*
X-93755Y-38222D01*
X-93891Y-38236D01*
X-94028Y-38241D01*
X-94109Y-38259D01*
X-94192Y-38267D01*
X-94323Y-38306D01*
X-94456Y-38335D01*
X-94533Y-38368D01*
X-94613Y-38391D01*
X-94735Y-38453D01*
X-94861Y-38506D01*
X-94930Y-38551D01*
X-95004Y-38589D01*
X-95085Y-38653D01*
X-95228Y-38746D01*
X-95351Y-38864D01*
X-95432Y-38929D01*
X-96054Y-39551D01*
X-98004Y-40359D01*
X-98610Y-40359D01*
X-98624Y-40360D01*
X-98639Y-40359D01*
X-98842Y-40380D01*
X-98916Y-40387D01*
X-110877Y-40387D01*
X-111028Y-40401D01*
X-111179Y-40406D01*
X-111245Y-40420D01*
X-111314Y-40427D01*
X-111460Y-40468D01*
X-111607Y-40500D01*
X-111670Y-40527D01*
X-111736Y-40545D01*
X-111872Y-40612D01*
X-112012Y-40670D01*
X-112069Y-40708D01*
X-112130Y-40738D01*
X-112252Y-40828D01*
X-112379Y-40911D01*
X-112428Y-40959D01*
X-112483Y-40999D01*
X-112586Y-41110D01*
X-112696Y-41215D01*
X-112736Y-41270D01*
X-112783Y-41320D01*
X-112864Y-41448D01*
X-112953Y-41570D01*
X-112982Y-41632D01*
X-113019Y-41690D01*
X-113076Y-41830D01*
X-113141Y-41967D01*
X-113159Y-42033D01*
X-113184Y-42096D01*
X-113215Y-42244D01*
X-113254Y-42391D01*
X-113260Y-42459D01*
X-113274Y-42526D01*
X-113277Y-42677D01*
X-113289Y-42828D01*
X-113282Y-42896D01*
X-113283Y-42965D01*
X-113259Y-43114D01*
X-113244Y-43265D01*
X-113224Y-43330D01*
X-113213Y-43398D01*
X-113163Y-43540D01*
X-113120Y-43686D01*
X-113089Y-43747D01*
X-113066Y-43811D01*
X-112991Y-43942D01*
X-112922Y-44077D01*
X-112886Y-44123D01*
X-112847Y-44191D01*
X-112627Y-44449D01*
X-112582Y-44505D01*
X-111325Y-45762D01*
X-110517Y-47712D01*
X-110517Y-49123D01*
X-110516Y-49138D01*
X-110517Y-49152D01*
X-110496Y-49356D01*
X-110477Y-49560D01*
X-110473Y-49574D01*
X-110472Y-49589D01*
X-110414Y-49786D01*
X-110359Y-49983D01*
X-110353Y-49996D01*
X-110348Y-50010D01*
X-110256Y-50193D01*
X-110166Y-50377D01*
X-110157Y-50389D01*
X-110151Y-50402D01*
X-110106Y-50458D01*
X-109905Y-50729D01*
X-109847Y-50783D01*
X-109811Y-50829D01*
X-68637Y-92003D01*
X-68626Y-92012D01*
X-68616Y-92023D01*
X-68456Y-92153D01*
X-68300Y-92284D01*
X-68287Y-92291D01*
X-68276Y-92300D01*
X-68095Y-92398D01*
X-67917Y-92499D01*
X-67903Y-92503D01*
X-67890Y-92510D01*
X-67696Y-92574D01*
X-67502Y-92641D01*
X-67488Y-92643D01*
X-67474Y-92647D01*
X-67402Y-92656D01*
X-67068Y-92705D01*
X-66989Y-92703D01*
X-66931Y-92709D01*
X158883Y-92709D01*
X158897Y-92708D01*
X158912Y-92709D01*
X159115Y-92688D01*
X159320Y-92669D01*
X159334Y-92665D01*
X159348Y-92664D01*
X159545Y-92606D01*
X159742Y-92551D01*
X159755Y-92545D01*
X159769Y-92540D01*
X159953Y-92448D01*
X160136Y-92358D01*
X160148Y-92349D01*
X160161Y-92343D01*
X160218Y-92298D01*
X160489Y-92097D01*
X160514Y-92069D01*
X160521Y-92064D01*
X160551Y-92032D01*
X160588Y-92003D01*
X161586Y-91005D01*
X163536Y-90197D01*
X165648Y-90197D01*
X167598Y-91005D01*
X169091Y-92498D01*
X169899Y-94448D01*
X169899Y-96560D01*
X169091Y-98510D01*
X167598Y-100003D01*
X165648Y-100811D01*
X163536Y-100811D01*
X161586Y-100003D01*
X160588Y-99005D01*
X160577Y-98996D01*
X160568Y-98985D01*
X160408Y-98855D01*
X160251Y-98724D01*
X160239Y-98717D01*
X160227Y-98708D01*
X160047Y-98610D01*
X159869Y-98509D01*
X159855Y-98505D01*
X159842Y-98498D01*
X159648Y-98434D01*
X159453Y-98367D01*
X159439Y-98365D01*
X159425Y-98361D01*
X159354Y-98352D01*
X159019Y-98303D01*
X158941Y-98305D01*
X158883Y-98299D01*
X-70246Y-98299D01*
X-113763Y-54781D01*
X-113771Y-54774D01*
X-113778Y-54767D01*
X-113781Y-54765D01*
X-113784Y-54761D01*
X-113944Y-54631D01*
X-114100Y-54500D01*
X-114113Y-54493D01*
X-114124Y-54484D01*
X-114305Y-54386D01*
X-114483Y-54285D01*
X-114497Y-54281D01*
X-114510Y-54274D01*
X-114704Y-54210D01*
X-114898Y-54143D01*
X-114912Y-54141D01*
X-114926Y-54137D01*
X-114998Y-54128D01*
X-115332Y-54079D01*
X-115411Y-54081D01*
X-115469Y-54075D01*
X-116880Y-54075D01*
X-118830Y-53267D01*
X-120323Y-51774D01*
X-121131Y-49824D01*
X-121131Y-47712D01*
X-120323Y-45762D01*
X-119066Y-44505D01*
X-118969Y-44389D01*
X-118865Y-44278D01*
X-118829Y-44220D01*
X-118785Y-44167D01*
X-118711Y-44036D01*
X-118629Y-43908D01*
X-118603Y-43845D01*
X-118570Y-43785D01*
X-118521Y-43642D01*
X-118464Y-43502D01*
X-118450Y-43435D01*
X-118427Y-43370D01*
X-118405Y-43220D01*
X-118374Y-43072D01*
X-118373Y-43004D01*
X-118363Y-42936D01*
X-118368Y-42785D01*
X-118365Y-42633D01*
X-118376Y-42565D01*
X-118378Y-42497D01*
X-118410Y-42349D01*
X-118435Y-42200D01*
X-118457Y-42136D01*
X-118472Y-42069D01*
X-118531Y-41929D01*
X-118582Y-41787D01*
X-118616Y-41727D01*
X-118643Y-41664D01*
X-118726Y-41538D01*
X-118801Y-41407D01*
X-118846Y-41355D01*
X-118883Y-41297D01*
X-118988Y-41188D01*
X-119086Y-41073D01*
X-119139Y-41030D01*
X-119187Y-40980D01*
X-119309Y-40892D01*
X-119427Y-40796D01*
X-119487Y-40763D01*
X-119542Y-40723D01*
X-119679Y-40658D01*
X-119812Y-40586D01*
X-119877Y-40564D01*
X-119939Y-40535D01*
X-120085Y-40496D01*
X-120229Y-40449D01*
X-120287Y-40442D01*
X-120363Y-40422D01*
X-120700Y-40395D01*
X-120771Y-40387D01*
X-133690Y-40387D01*
X-133704Y-40388D01*
X-133719Y-40387D01*
X-133922Y-40408D01*
X-134127Y-40427D01*
X-134141Y-40431D01*
X-134155Y-40432D01*
X-134352Y-40490D01*
X-134549Y-40545D01*
X-134562Y-40551D01*
X-134576Y-40556D01*
X-134760Y-40648D01*
X-134943Y-40738D01*
X-134955Y-40747D01*
X-134968Y-40753D01*
X-135024Y-40798D01*
X-135296Y-40999D01*
X-135350Y-41057D01*
X-135395Y-41093D01*
X-233219Y-138917D01*
X-233228Y-138928D01*
X-233239Y-138937D01*
X-233369Y-139097D01*
X-233500Y-139254D01*
X-233507Y-139267D01*
X-233516Y-139278D01*
X-233614Y-139458D01*
X-233715Y-139636D01*
X-233719Y-139650D01*
X-233726Y-139663D01*
X-233790Y-139857D01*
X-233857Y-140052D01*
X-233859Y-140066D01*
X-233863Y-140080D01*
X-233872Y-140151D01*
X-233921Y-140486D01*
X-233919Y-140565D01*
X-233925Y-140622D01*
X-233925Y-140701D01*
X-235711Y-142487D01*
X-239230Y-142487D01*
G37*
%LPD*%
%LPC*%
G36*
X301133Y-73983D02*
X301133Y-73983D01*
X298065Y-72028D01*
X295978Y-69048D01*
X295191Y-65496D01*
X295823Y-61914D01*
X297777Y-58846D01*
X300757Y-56759D01*
X304309Y-55971D01*
X322900Y-59250D01*
X325968Y-61204D01*
X328055Y-64184D01*
X328843Y-67736D01*
X328211Y-71319D01*
X326256Y-74387D01*
X323276Y-76474D01*
X319724Y-77261D01*
X301133Y-73983D01*
G37*
%LPD*%
%LPC*%
G36*
X318776Y26073D02*
X318776Y26073D01*
X315708Y28028D01*
X313621Y31008D01*
X312833Y34560D01*
X313465Y38143D01*
X315420Y41211D01*
X318400Y43298D01*
X321952Y44085D01*
X340543Y40807D01*
X343611Y38852D01*
X345698Y35872D01*
X346485Y32320D01*
X345854Y28738D01*
X343899Y25669D01*
X340919Y23583D01*
X337367Y22795D01*
X318776Y26073D01*
G37*
%LPD*%
%LPC*%
G36*
X305544Y-48969D02*
X305544Y-48969D01*
X302476Y-47014D01*
X300389Y-44034D01*
X299601Y-40482D01*
X300233Y-36900D01*
X302188Y-33831D01*
X305168Y-31745D01*
X308720Y-30957D01*
X327311Y-34235D01*
X330379Y-36190D01*
X332466Y-39170D01*
X333253Y-42722D01*
X332622Y-46305D01*
X330667Y-49373D01*
X327687Y-51460D01*
X324135Y-52247D01*
X305544Y-48969D01*
G37*
%LPD*%
%LPC*%
G36*
X309955Y-23955D02*
X309955Y-23955D01*
X306886Y-22000D01*
X304800Y-19020D01*
X304012Y-15468D01*
X304644Y-11886D01*
X306599Y-8817D01*
X309579Y-6731D01*
X313130Y-5943D01*
X331722Y-9221D01*
X334790Y-11176D01*
X336877Y-14156D01*
X337664Y-17708D01*
X337032Y-21291D01*
X335078Y-24359D01*
X332097Y-26445D01*
X328546Y-27233D01*
X309955Y-23955D01*
G37*
%LPD*%
%LPC*%
G36*
X314365Y1059D02*
X314365Y1059D01*
X311297Y3014D01*
X309210Y5994D01*
X308423Y9546D01*
X309055Y13129D01*
X311009Y16197D01*
X313989Y18283D01*
X317541Y19071D01*
X336132Y15793D01*
X339200Y13838D01*
X341287Y10858D01*
X342075Y7306D01*
X341443Y3724D01*
X339488Y655D01*
X336508Y-1431D01*
X332956Y-2219D01*
X314365Y1059D01*
G37*
%LPD*%
%LPC*%
G36*
X106333Y319708D02*
X106333Y319708D01*
X106333Y334647D01*
X107694Y334205D01*
X109119Y333479D01*
X110413Y332539D01*
X111544Y331408D01*
X112484Y330114D01*
X113210Y328689D01*
X113704Y327168D01*
X113955Y325588D01*
X113954Y319708D01*
X106333Y319708D01*
G37*
%LPD*%
%LPC*%
G36*
X106333Y314629D02*
X106333Y314629D01*
X113954Y314629D01*
X113955Y308749D01*
X113704Y307169D01*
X113210Y305648D01*
X112484Y304223D01*
X111544Y302929D01*
X110413Y301798D01*
X109119Y300858D01*
X107694Y300132D01*
X106333Y299690D01*
X106333Y314629D01*
G37*
%LPD*%
%LPC*%
G36*
X93633Y319708D02*
X93633Y319708D01*
X93633Y325588D01*
X93883Y327168D01*
X94378Y328689D01*
X95104Y330114D01*
X96044Y331408D01*
X97175Y332539D01*
X98468Y333479D01*
X99893Y334205D01*
X101254Y334647D01*
X101254Y319708D01*
X93633Y319708D01*
G37*
%LPD*%
%LPC*%
G36*
X99893Y300132D02*
X99893Y300132D01*
X98468Y300858D01*
X97175Y301798D01*
X96044Y302929D01*
X95104Y304223D01*
X94378Y305648D01*
X93883Y307169D01*
X93633Y308749D01*
X93633Y314629D01*
X101254Y314629D01*
X101254Y299690D01*
X99893Y300132D01*
G37*
%LPD*%
D10*
X-124806Y309549D02*
X-124806Y324789D01*
X-99406Y324789D02*
X-99406Y309549D01*
X-74006Y309549D02*
X-74006Y324789D01*
X-48606Y324789D02*
X-48606Y309549D01*
X-23206Y309549D02*
X-23206Y324789D01*
X2194Y324789D02*
X2194Y309549D01*
X27594Y309549D02*
X27594Y324789D01*
X52994Y324789D02*
X52994Y309549D01*
X78394Y309549D02*
X78394Y324789D01*
X103794Y324789D02*
X103794Y309549D01*
X129194Y309549D02*
X129194Y324789D01*
X330977Y84792D02*
X345985Y82145D01*
X341574Y57131D02*
X326566Y59777D01*
X322155Y34763D02*
X337164Y32117D01*
X332753Y7103D02*
X317745Y9749D01*
X313334Y-15265D02*
X328342Y-17911D01*
X323932Y-42925D02*
X308923Y-40279D01*
X304513Y-65293D02*
X319521Y-67939D01*
D11*
X225552Y-111760D03*
X-307847Y-75834D03*
X-245719Y-147870D03*
X-142150Y-32844D03*
X-164587Y49139D03*
D12*
X-69088Y-95504D02*
X164592Y-95504D01*
X-69088Y-95504D02*
X-115824Y-48768D01*
D11*
X164592Y-95504D03*
X-115824Y-48768D03*
D13*
X-102108Y-38100D02*
X-135636Y-38100D01*
X-102108Y-38100D02*
X-100584Y-38100D01*
X-135636Y-38100D02*
X-236974Y-139438D01*
X-102108Y-38100D02*
X-99060Y-35052D01*
D11*
X-99060Y-35052D03*
D14*
X-254540Y-122866D03*
D15*
X-237968Y-139438D01*
X-236974Y-139438D01*
D13*
X-138684Y7620D02*
X-146304Y15240D01*
X-146304Y219456D01*
X-60960Y304800D01*
X-60960Y329184D01*
X-53340Y336804D01*
X32004Y336804D01*
X41148Y327660D01*
X41148Y326136D01*
X48768Y318516D01*
X51816Y318516D01*
X52994Y317169D01*
D11*
X-138684Y7620D03*
D13*
X-147828Y7620D02*
X-147828Y12192D01*
X-149352Y13716D01*
X-149352Y242316D01*
X-86868Y304800D01*
X-86868Y329184D01*
X-76200Y339852D01*
X62484Y339852D01*
X77724Y324612D01*
X77724Y318516D01*
X78394Y317169D01*
D11*
X-147828Y7620D03*
D13*
X-110254Y88565D02*
X-109728Y219456D01*
X-24384Y304800D01*
X-24384Y316992D01*
X-23206Y317169D01*
D11*
X-110254Y88565D03*
D13*
X-91440Y-32004D02*
X-88392Y-35052D01*
X-91440Y-32004D02*
X-91440Y-30480D01*
X-135636Y13716D01*
X-140208Y13716D01*
X-143256Y16764D01*
X-143256Y211836D01*
X-48768Y306324D01*
X-48768Y316992D01*
X-48606Y317169D01*
D11*
X-88392Y-35052D03*
D13*
X-137160Y19812D02*
X-139195Y36030D01*
X21336Y184404D01*
X21336Y300228D01*
X27432Y306324D01*
X27432Y316992D01*
X27594Y317169D01*
D11*
X-137160Y19812D03*
D14*
X-126708Y39865D03*
D16*
X22739Y181676D02*
X27927Y181676D01*
X-113689Y50491D02*
X-126708Y39865D01*
X-113689Y50491D02*
X-1764Y159014D01*
X77Y159014D01*
X22739Y181676D01*
X27927Y181676D02*
X29903Y183652D01*
X29903Y276796D01*
D14*
X29903Y276796D03*
M02*
