M48
;GenerationSoftware,Autodesk,EAGLE,8.7.1*%
;CreationDate,2019-11-11T18:06:00Z*%
FMAT,2
ICI,OFF
METRIC,TZ,000.000
T3C0.250
T2C0.350
T1C1.016
%
G90
M71
T1
X-9941Y31717
X31643Y-4160
X32084Y-1659
X32525Y843
X32966Y3344
X33407Y5845
X33848Y8347
X12919Y31717
X10379Y31717
X7839Y31717
X5299Y31717
X2759Y31717
X219Y31717
X-2321Y31717
X-4861Y31717
X-7401Y31717
X-12481Y31717
X31202Y-6662
T2
X-13716Y1981
X-8839Y-3505
X-11025Y8857
X-14783Y762
X-13868Y762
X-9906Y-3505
X-11582Y-4877
X16459Y-9550
X-16459Y4914
X-14215Y-3284
X-24572Y-14787
X-30785Y-7583
X22555Y-11176
T3
X2990Y27680
X-12671Y3987
X-25454Y-12287
M30