G04 EAGLE Gerber X2 export*
%TF.Part,Single*%
%TF.FileFunction,Legend,Top,1*%
%TF.FilePolarity,Positive*%
%TF.GenerationSoftware,Autodesk,EAGLE,8.7.1*%
%TF.CreationDate,2019-11-11T18:06:01Z*%
G75*
%MOMM*%
%FSLAX34Y34*%
%LPD*%
%AMOC8*
5,1,8,0,0,1.08239X$1,22.5*%
G01*
%ADD10C,0.050800*%
%ADD11C,0.101600*%
%ADD12C,0.250000*%
%ADD13C,0.127000*%
%ADD14C,0.200000*%
%ADD15C,0.076200*%
%ADD16C,0.152400*%
%ADD17C,0.762000*%
%ADD18R,0.762000X0.508000*%
%ADD19R,0.762000X1.016000*%
%ADD20C,0.400000*%


D10*
X-136203Y292982D02*
X-136203Y298570D01*
X-134340Y295465D01*
X-132477Y298570D01*
X-132477Y292982D01*
X-129402Y292982D02*
X-129402Y298570D01*
X-130023Y292982D02*
X-128781Y292982D01*
X-128781Y298570D02*
X-130023Y298570D01*
X-124885Y292982D02*
X-124815Y292984D01*
X-124746Y292990D01*
X-124677Y293000D01*
X-124609Y293013D01*
X-124541Y293031D01*
X-124475Y293052D01*
X-124410Y293077D01*
X-124346Y293105D01*
X-124284Y293137D01*
X-124224Y293172D01*
X-124166Y293211D01*
X-124111Y293253D01*
X-124057Y293298D01*
X-124007Y293346D01*
X-123959Y293396D01*
X-123914Y293450D01*
X-123872Y293505D01*
X-123833Y293563D01*
X-123798Y293623D01*
X-123766Y293685D01*
X-123738Y293749D01*
X-123713Y293814D01*
X-123692Y293880D01*
X-123674Y293948D01*
X-123661Y294016D01*
X-123651Y294085D01*
X-123645Y294154D01*
X-123643Y294224D01*
X-124885Y292982D02*
X-124984Y292984D01*
X-125082Y292989D01*
X-125180Y292999D01*
X-125278Y293012D01*
X-125375Y293028D01*
X-125472Y293048D01*
X-125567Y293072D01*
X-125662Y293100D01*
X-125756Y293131D01*
X-125848Y293165D01*
X-125939Y293203D01*
X-126029Y293244D01*
X-126117Y293289D01*
X-126203Y293337D01*
X-126287Y293388D01*
X-126369Y293442D01*
X-126450Y293500D01*
X-126528Y293560D01*
X-126603Y293623D01*
X-126677Y293689D01*
X-126747Y293758D01*
X-126593Y297328D02*
X-126591Y297398D01*
X-126585Y297467D01*
X-126575Y297536D01*
X-126562Y297604D01*
X-126544Y297672D01*
X-126523Y297738D01*
X-126498Y297803D01*
X-126470Y297867D01*
X-126438Y297929D01*
X-126403Y297989D01*
X-126364Y298047D01*
X-126322Y298102D01*
X-126277Y298156D01*
X-126229Y298206D01*
X-126179Y298254D01*
X-126125Y298299D01*
X-126070Y298341D01*
X-126012Y298380D01*
X-125952Y298415D01*
X-125890Y298447D01*
X-125826Y298475D01*
X-125761Y298500D01*
X-125695Y298521D01*
X-125627Y298539D01*
X-125559Y298552D01*
X-125490Y298562D01*
X-125421Y298568D01*
X-125351Y298570D01*
X-125257Y298568D01*
X-125164Y298562D01*
X-125071Y298553D01*
X-124978Y298540D01*
X-124886Y298523D01*
X-124795Y298503D01*
X-124704Y298478D01*
X-124615Y298451D01*
X-124527Y298419D01*
X-124440Y298384D01*
X-124354Y298346D01*
X-124271Y298304D01*
X-124188Y298259D01*
X-124108Y298211D01*
X-124030Y298159D01*
X-123954Y298104D01*
X-125972Y296242D02*
X-126031Y296278D01*
X-126087Y296318D01*
X-126141Y296361D01*
X-126193Y296406D01*
X-126242Y296455D01*
X-126288Y296506D01*
X-126331Y296559D01*
X-126372Y296615D01*
X-126409Y296673D01*
X-126444Y296733D01*
X-126474Y296794D01*
X-126502Y296857D01*
X-126526Y296922D01*
X-126546Y296988D01*
X-126563Y297055D01*
X-126576Y297122D01*
X-126585Y297190D01*
X-126591Y297259D01*
X-126593Y297328D01*
X-124265Y295310D02*
X-124206Y295274D01*
X-124150Y295234D01*
X-124096Y295191D01*
X-124044Y295146D01*
X-123995Y295097D01*
X-123949Y295046D01*
X-123906Y294993D01*
X-123865Y294937D01*
X-123828Y294879D01*
X-123793Y294820D01*
X-123763Y294758D01*
X-123735Y294695D01*
X-123711Y294630D01*
X-123691Y294564D01*
X-123674Y294497D01*
X-123661Y294430D01*
X-123652Y294362D01*
X-123646Y294293D01*
X-123644Y294224D01*
X-124265Y295310D02*
X-125972Y296242D01*
X-121445Y297018D02*
X-121445Y294534D01*
X-121444Y297018D02*
X-121442Y297095D01*
X-121436Y297173D01*
X-121427Y297249D01*
X-121413Y297326D01*
X-121396Y297401D01*
X-121375Y297475D01*
X-121350Y297549D01*
X-121322Y297621D01*
X-121290Y297691D01*
X-121255Y297760D01*
X-121216Y297827D01*
X-121174Y297892D01*
X-121129Y297955D01*
X-121081Y298016D01*
X-121030Y298074D01*
X-120976Y298129D01*
X-120919Y298182D01*
X-120860Y298231D01*
X-120798Y298278D01*
X-120734Y298322D01*
X-120668Y298362D01*
X-120600Y298399D01*
X-120530Y298433D01*
X-120459Y298463D01*
X-120386Y298489D01*
X-120312Y298512D01*
X-120237Y298531D01*
X-120162Y298546D01*
X-120085Y298558D01*
X-120008Y298566D01*
X-119931Y298570D01*
X-119853Y298570D01*
X-119776Y298566D01*
X-119699Y298558D01*
X-119622Y298546D01*
X-119547Y298531D01*
X-119472Y298512D01*
X-119398Y298489D01*
X-119325Y298463D01*
X-119254Y298433D01*
X-119184Y298399D01*
X-119116Y298362D01*
X-119050Y298322D01*
X-118986Y298278D01*
X-118924Y298231D01*
X-118865Y298182D01*
X-118808Y298129D01*
X-118754Y298074D01*
X-118703Y298016D01*
X-118655Y297955D01*
X-118610Y297892D01*
X-118568Y297827D01*
X-118529Y297760D01*
X-118494Y297691D01*
X-118462Y297621D01*
X-118434Y297549D01*
X-118409Y297475D01*
X-118388Y297401D01*
X-118371Y297326D01*
X-118357Y297249D01*
X-118348Y297173D01*
X-118342Y297095D01*
X-118340Y297018D01*
X-118340Y294534D01*
X-118342Y294457D01*
X-118348Y294379D01*
X-118357Y294303D01*
X-118371Y294226D01*
X-118388Y294151D01*
X-118409Y294077D01*
X-118434Y294003D01*
X-118462Y293931D01*
X-118494Y293861D01*
X-118529Y293792D01*
X-118568Y293725D01*
X-118610Y293660D01*
X-118655Y293597D01*
X-118703Y293536D01*
X-118754Y293478D01*
X-118808Y293423D01*
X-118865Y293370D01*
X-118924Y293321D01*
X-118986Y293274D01*
X-119050Y293230D01*
X-119116Y293190D01*
X-119184Y293153D01*
X-119254Y293119D01*
X-119325Y293089D01*
X-119398Y293063D01*
X-119472Y293040D01*
X-119547Y293021D01*
X-119622Y293006D01*
X-119699Y292994D01*
X-119776Y292986D01*
X-119853Y292982D01*
X-119931Y292982D01*
X-120008Y292986D01*
X-120085Y292994D01*
X-120162Y293006D01*
X-120237Y293021D01*
X-120312Y293040D01*
X-120386Y293063D01*
X-120459Y293089D01*
X-120530Y293119D01*
X-120600Y293153D01*
X-120668Y293190D01*
X-120734Y293230D01*
X-120798Y293274D01*
X-120860Y293321D01*
X-120919Y293370D01*
X-120976Y293423D01*
X-121030Y293478D01*
X-121081Y293536D01*
X-121129Y293597D01*
X-121174Y293660D01*
X-121216Y293725D01*
X-121255Y293792D01*
X-121290Y293861D01*
X-121322Y293931D01*
X-121350Y294003D01*
X-121375Y294077D01*
X-121396Y294151D01*
X-121413Y294226D01*
X-121427Y294303D01*
X-121436Y294379D01*
X-121442Y294457D01*
X-121444Y294534D01*
X-111486Y292724D02*
X-111486Y298312D01*
X-109623Y295208D01*
X-107761Y298312D01*
X-107761Y292724D01*
X-105140Y294277D02*
X-105140Y296760D01*
X-105138Y296837D01*
X-105132Y296915D01*
X-105123Y296991D01*
X-105109Y297068D01*
X-105092Y297143D01*
X-105071Y297217D01*
X-105046Y297291D01*
X-105018Y297363D01*
X-104986Y297433D01*
X-104951Y297502D01*
X-104912Y297569D01*
X-104870Y297634D01*
X-104825Y297697D01*
X-104777Y297758D01*
X-104726Y297816D01*
X-104672Y297871D01*
X-104615Y297924D01*
X-104556Y297973D01*
X-104494Y298020D01*
X-104430Y298064D01*
X-104364Y298104D01*
X-104296Y298141D01*
X-104226Y298175D01*
X-104155Y298205D01*
X-104082Y298231D01*
X-104008Y298254D01*
X-103933Y298273D01*
X-103858Y298288D01*
X-103781Y298300D01*
X-103704Y298308D01*
X-103627Y298312D01*
X-103549Y298312D01*
X-103472Y298308D01*
X-103395Y298300D01*
X-103318Y298288D01*
X-103243Y298273D01*
X-103168Y298254D01*
X-103094Y298231D01*
X-103021Y298205D01*
X-102950Y298175D01*
X-102880Y298141D01*
X-102812Y298104D01*
X-102746Y298064D01*
X-102682Y298020D01*
X-102620Y297973D01*
X-102561Y297924D01*
X-102504Y297871D01*
X-102450Y297816D01*
X-102399Y297758D01*
X-102351Y297697D01*
X-102306Y297634D01*
X-102264Y297569D01*
X-102225Y297502D01*
X-102190Y297433D01*
X-102158Y297363D01*
X-102130Y297291D01*
X-102105Y297217D01*
X-102084Y297143D01*
X-102067Y297068D01*
X-102053Y296991D01*
X-102044Y296915D01*
X-102038Y296837D01*
X-102036Y296760D01*
X-102036Y294277D01*
X-102038Y294200D01*
X-102044Y294122D01*
X-102053Y294046D01*
X-102067Y293969D01*
X-102084Y293894D01*
X-102105Y293820D01*
X-102130Y293746D01*
X-102158Y293674D01*
X-102190Y293604D01*
X-102225Y293535D01*
X-102264Y293468D01*
X-102306Y293403D01*
X-102351Y293340D01*
X-102399Y293279D01*
X-102450Y293221D01*
X-102504Y293166D01*
X-102561Y293113D01*
X-102620Y293064D01*
X-102682Y293017D01*
X-102746Y292973D01*
X-102812Y292933D01*
X-102880Y292896D01*
X-102950Y292862D01*
X-103021Y292832D01*
X-103094Y292806D01*
X-103168Y292783D01*
X-103243Y292764D01*
X-103318Y292749D01*
X-103395Y292737D01*
X-103472Y292729D01*
X-103549Y292725D01*
X-103627Y292725D01*
X-103704Y292729D01*
X-103781Y292737D01*
X-103858Y292749D01*
X-103933Y292764D01*
X-104008Y292783D01*
X-104082Y292806D01*
X-104155Y292832D01*
X-104226Y292862D01*
X-104296Y292896D01*
X-104364Y292933D01*
X-104430Y292973D01*
X-104494Y293017D01*
X-104556Y293064D01*
X-104615Y293113D01*
X-104672Y293166D01*
X-104726Y293221D01*
X-104777Y293279D01*
X-104825Y293340D01*
X-104870Y293403D01*
X-104912Y293468D01*
X-104951Y293535D01*
X-104986Y293604D01*
X-105018Y293674D01*
X-105046Y293746D01*
X-105071Y293820D01*
X-105092Y293894D01*
X-105109Y293969D01*
X-105123Y294046D01*
X-105132Y294122D01*
X-105138Y294200D01*
X-105140Y294277D01*
X-97974Y292724D02*
X-97904Y292726D01*
X-97835Y292732D01*
X-97766Y292742D01*
X-97698Y292755D01*
X-97630Y292773D01*
X-97564Y292794D01*
X-97499Y292819D01*
X-97435Y292847D01*
X-97373Y292879D01*
X-97313Y292914D01*
X-97255Y292953D01*
X-97200Y292995D01*
X-97146Y293040D01*
X-97096Y293088D01*
X-97048Y293138D01*
X-97003Y293192D01*
X-96961Y293247D01*
X-96922Y293305D01*
X-96887Y293365D01*
X-96855Y293427D01*
X-96827Y293491D01*
X-96802Y293556D01*
X-96781Y293622D01*
X-96763Y293690D01*
X-96750Y293758D01*
X-96740Y293827D01*
X-96734Y293896D01*
X-96732Y293966D01*
X-97974Y292725D02*
X-98073Y292727D01*
X-98171Y292732D01*
X-98269Y292742D01*
X-98367Y292755D01*
X-98464Y292771D01*
X-98561Y292791D01*
X-98656Y292815D01*
X-98751Y292843D01*
X-98845Y292874D01*
X-98937Y292908D01*
X-99028Y292946D01*
X-99118Y292987D01*
X-99206Y293032D01*
X-99292Y293080D01*
X-99376Y293131D01*
X-99458Y293185D01*
X-99539Y293243D01*
X-99617Y293303D01*
X-99692Y293366D01*
X-99766Y293432D01*
X-99836Y293501D01*
X-99682Y297071D02*
X-99680Y297141D01*
X-99674Y297210D01*
X-99664Y297279D01*
X-99651Y297347D01*
X-99633Y297415D01*
X-99612Y297481D01*
X-99587Y297546D01*
X-99559Y297610D01*
X-99527Y297672D01*
X-99492Y297732D01*
X-99453Y297790D01*
X-99411Y297845D01*
X-99366Y297899D01*
X-99318Y297949D01*
X-99268Y297997D01*
X-99214Y298042D01*
X-99159Y298084D01*
X-99101Y298123D01*
X-99041Y298158D01*
X-98979Y298190D01*
X-98915Y298218D01*
X-98850Y298243D01*
X-98784Y298264D01*
X-98716Y298282D01*
X-98648Y298295D01*
X-98579Y298305D01*
X-98510Y298311D01*
X-98440Y298313D01*
X-98440Y298312D02*
X-98346Y298310D01*
X-98253Y298304D01*
X-98160Y298295D01*
X-98067Y298282D01*
X-97975Y298265D01*
X-97884Y298245D01*
X-97793Y298220D01*
X-97704Y298193D01*
X-97616Y298161D01*
X-97529Y298126D01*
X-97443Y298088D01*
X-97360Y298046D01*
X-97277Y298001D01*
X-97197Y297953D01*
X-97119Y297901D01*
X-97043Y297846D01*
X-99061Y295985D02*
X-99120Y296021D01*
X-99176Y296061D01*
X-99230Y296104D01*
X-99282Y296149D01*
X-99331Y296198D01*
X-99377Y296249D01*
X-99420Y296302D01*
X-99461Y296358D01*
X-99498Y296416D01*
X-99533Y296476D01*
X-99563Y296537D01*
X-99591Y296600D01*
X-99615Y296665D01*
X-99635Y296731D01*
X-99652Y296798D01*
X-99665Y296865D01*
X-99674Y296933D01*
X-99680Y297002D01*
X-99682Y297071D01*
X-97354Y295052D02*
X-97295Y295016D01*
X-97239Y294976D01*
X-97185Y294933D01*
X-97133Y294888D01*
X-97084Y294839D01*
X-97038Y294788D01*
X-96995Y294735D01*
X-96954Y294679D01*
X-96917Y294621D01*
X-96882Y294562D01*
X-96852Y294500D01*
X-96824Y294437D01*
X-96800Y294372D01*
X-96780Y294306D01*
X-96763Y294239D01*
X-96750Y294172D01*
X-96741Y294104D01*
X-96735Y294035D01*
X-96733Y293966D01*
X-97353Y295053D02*
X-99061Y295984D01*
X-94079Y298312D02*
X-94079Y292724D01*
X-94699Y292724D02*
X-93458Y292724D01*
X-93458Y298312D02*
X-94699Y298312D01*
X-83104Y293239D02*
X-83034Y293241D01*
X-82965Y293247D01*
X-82896Y293257D01*
X-82828Y293270D01*
X-82760Y293288D01*
X-82694Y293309D01*
X-82629Y293334D01*
X-82565Y293362D01*
X-82503Y293394D01*
X-82443Y293429D01*
X-82385Y293468D01*
X-82330Y293510D01*
X-82276Y293555D01*
X-82226Y293603D01*
X-82178Y293653D01*
X-82133Y293707D01*
X-82091Y293762D01*
X-82052Y293820D01*
X-82017Y293880D01*
X-81985Y293942D01*
X-81957Y294006D01*
X-81932Y294071D01*
X-81911Y294137D01*
X-81893Y294205D01*
X-81880Y294273D01*
X-81870Y294342D01*
X-81864Y294411D01*
X-81862Y294481D01*
X-83104Y293240D02*
X-83203Y293242D01*
X-83301Y293247D01*
X-83399Y293257D01*
X-83497Y293270D01*
X-83594Y293286D01*
X-83691Y293306D01*
X-83786Y293330D01*
X-83881Y293358D01*
X-83975Y293389D01*
X-84067Y293423D01*
X-84158Y293461D01*
X-84248Y293502D01*
X-84336Y293547D01*
X-84422Y293595D01*
X-84506Y293646D01*
X-84588Y293700D01*
X-84669Y293758D01*
X-84747Y293818D01*
X-84822Y293881D01*
X-84896Y293947D01*
X-84966Y294016D01*
X-84812Y297586D02*
X-84810Y297656D01*
X-84804Y297725D01*
X-84794Y297794D01*
X-84781Y297862D01*
X-84763Y297930D01*
X-84742Y297996D01*
X-84717Y298061D01*
X-84689Y298125D01*
X-84657Y298187D01*
X-84622Y298247D01*
X-84583Y298305D01*
X-84541Y298360D01*
X-84496Y298414D01*
X-84448Y298464D01*
X-84398Y298512D01*
X-84344Y298557D01*
X-84289Y298599D01*
X-84231Y298638D01*
X-84171Y298673D01*
X-84109Y298705D01*
X-84045Y298733D01*
X-83980Y298758D01*
X-83914Y298779D01*
X-83846Y298797D01*
X-83778Y298810D01*
X-83709Y298820D01*
X-83640Y298826D01*
X-83570Y298828D01*
X-83570Y298827D02*
X-83476Y298825D01*
X-83383Y298819D01*
X-83290Y298810D01*
X-83197Y298797D01*
X-83105Y298780D01*
X-83014Y298760D01*
X-82923Y298735D01*
X-82834Y298708D01*
X-82746Y298676D01*
X-82659Y298641D01*
X-82573Y298603D01*
X-82490Y298561D01*
X-82407Y298516D01*
X-82327Y298468D01*
X-82249Y298416D01*
X-82173Y298361D01*
X-84191Y296500D02*
X-84250Y296536D01*
X-84306Y296576D01*
X-84360Y296619D01*
X-84412Y296664D01*
X-84461Y296713D01*
X-84507Y296764D01*
X-84550Y296817D01*
X-84591Y296873D01*
X-84628Y296931D01*
X-84663Y296991D01*
X-84693Y297052D01*
X-84721Y297115D01*
X-84745Y297180D01*
X-84765Y297246D01*
X-84782Y297313D01*
X-84795Y297380D01*
X-84804Y297448D01*
X-84810Y297517D01*
X-84812Y297586D01*
X-82484Y295567D02*
X-82425Y295531D01*
X-82369Y295491D01*
X-82315Y295448D01*
X-82263Y295403D01*
X-82214Y295354D01*
X-82168Y295303D01*
X-82125Y295250D01*
X-82084Y295194D01*
X-82047Y295136D01*
X-82012Y295077D01*
X-81982Y295015D01*
X-81954Y294952D01*
X-81930Y294887D01*
X-81910Y294821D01*
X-81893Y294754D01*
X-81880Y294687D01*
X-81871Y294619D01*
X-81865Y294550D01*
X-81863Y294481D01*
X-82483Y295568D02*
X-84191Y296499D01*
X-78438Y293239D02*
X-77196Y293239D01*
X-78438Y293239D02*
X-78508Y293241D01*
X-78577Y293247D01*
X-78646Y293257D01*
X-78714Y293270D01*
X-78782Y293288D01*
X-78848Y293309D01*
X-78913Y293334D01*
X-78977Y293362D01*
X-79039Y293394D01*
X-79099Y293429D01*
X-79157Y293468D01*
X-79212Y293510D01*
X-79266Y293555D01*
X-79316Y293603D01*
X-79364Y293653D01*
X-79409Y293707D01*
X-79451Y293762D01*
X-79490Y293820D01*
X-79525Y293880D01*
X-79557Y293942D01*
X-79585Y294006D01*
X-79610Y294071D01*
X-79631Y294137D01*
X-79649Y294205D01*
X-79662Y294273D01*
X-79672Y294342D01*
X-79678Y294411D01*
X-79680Y294481D01*
X-79680Y297586D01*
X-79678Y297656D01*
X-79672Y297725D01*
X-79662Y297794D01*
X-79649Y297862D01*
X-79631Y297930D01*
X-79610Y297996D01*
X-79585Y298061D01*
X-79557Y298125D01*
X-79525Y298187D01*
X-79490Y298247D01*
X-79451Y298305D01*
X-79409Y298360D01*
X-79364Y298414D01*
X-79316Y298464D01*
X-79266Y298512D01*
X-79212Y298557D01*
X-79157Y298599D01*
X-79099Y298638D01*
X-79039Y298673D01*
X-78977Y298705D01*
X-78913Y298733D01*
X-78848Y298758D01*
X-78782Y298779D01*
X-78714Y298797D01*
X-78646Y298810D01*
X-78577Y298820D01*
X-78508Y298826D01*
X-78438Y298828D01*
X-78438Y298827D02*
X-77196Y298827D01*
X-74898Y298827D02*
X-74898Y293239D01*
X-72414Y293239D01*
X-70071Y293239D02*
X-70071Y298827D01*
X-66966Y298827D02*
X-70071Y295412D01*
X-68829Y296654D02*
X-66966Y293239D01*
X-56646Y293497D02*
X-56646Y299085D01*
X-55094Y299085D01*
X-55017Y299083D01*
X-54939Y299077D01*
X-54863Y299068D01*
X-54786Y299054D01*
X-54711Y299037D01*
X-54637Y299016D01*
X-54563Y298991D01*
X-54491Y298963D01*
X-54421Y298931D01*
X-54352Y298896D01*
X-54285Y298857D01*
X-54220Y298815D01*
X-54157Y298770D01*
X-54096Y298722D01*
X-54038Y298671D01*
X-53983Y298617D01*
X-53930Y298560D01*
X-53881Y298501D01*
X-53834Y298439D01*
X-53790Y298375D01*
X-53750Y298309D01*
X-53713Y298241D01*
X-53679Y298171D01*
X-53649Y298100D01*
X-53623Y298027D01*
X-53600Y297953D01*
X-53581Y297878D01*
X-53566Y297803D01*
X-53554Y297726D01*
X-53546Y297649D01*
X-53542Y297572D01*
X-53542Y297494D01*
X-53546Y297417D01*
X-53554Y297340D01*
X-53566Y297263D01*
X-53581Y297188D01*
X-53600Y297113D01*
X-53623Y297039D01*
X-53649Y296966D01*
X-53679Y296895D01*
X-53713Y296825D01*
X-53750Y296757D01*
X-53790Y296691D01*
X-53834Y296627D01*
X-53881Y296565D01*
X-53930Y296506D01*
X-53983Y296449D01*
X-54038Y296395D01*
X-54096Y296344D01*
X-54157Y296296D01*
X-54220Y296251D01*
X-54285Y296209D01*
X-54352Y296170D01*
X-54421Y296135D01*
X-54491Y296103D01*
X-54563Y296075D01*
X-54637Y296050D01*
X-54711Y296029D01*
X-54786Y296012D01*
X-54863Y295998D01*
X-54939Y295989D01*
X-55017Y295983D01*
X-55094Y295981D01*
X-55094Y295980D02*
X-56646Y295980D01*
X-51159Y296601D02*
X-49607Y296601D01*
X-49530Y296599D01*
X-49452Y296593D01*
X-49376Y296584D01*
X-49299Y296570D01*
X-49224Y296553D01*
X-49150Y296532D01*
X-49076Y296507D01*
X-49004Y296479D01*
X-48934Y296447D01*
X-48865Y296412D01*
X-48798Y296373D01*
X-48733Y296331D01*
X-48670Y296286D01*
X-48609Y296238D01*
X-48551Y296187D01*
X-48496Y296133D01*
X-48443Y296076D01*
X-48394Y296017D01*
X-48347Y295955D01*
X-48303Y295891D01*
X-48263Y295825D01*
X-48226Y295757D01*
X-48192Y295687D01*
X-48162Y295616D01*
X-48136Y295543D01*
X-48113Y295469D01*
X-48094Y295394D01*
X-48079Y295319D01*
X-48067Y295242D01*
X-48059Y295165D01*
X-48055Y295088D01*
X-48055Y295010D01*
X-48059Y294933D01*
X-48067Y294856D01*
X-48079Y294779D01*
X-48094Y294704D01*
X-48113Y294629D01*
X-48136Y294555D01*
X-48162Y294482D01*
X-48192Y294411D01*
X-48226Y294341D01*
X-48263Y294273D01*
X-48303Y294207D01*
X-48347Y294143D01*
X-48394Y294081D01*
X-48443Y294022D01*
X-48496Y293965D01*
X-48551Y293911D01*
X-48609Y293860D01*
X-48670Y293812D01*
X-48733Y293767D01*
X-48798Y293725D01*
X-48865Y293686D01*
X-48934Y293651D01*
X-49004Y293619D01*
X-49076Y293591D01*
X-49150Y293566D01*
X-49224Y293545D01*
X-49299Y293528D01*
X-49376Y293514D01*
X-49452Y293505D01*
X-49530Y293499D01*
X-49607Y293497D01*
X-51159Y293497D01*
X-51159Y299085D01*
X-49607Y299085D01*
X-49537Y299083D01*
X-49468Y299077D01*
X-49399Y299067D01*
X-49331Y299054D01*
X-49263Y299036D01*
X-49197Y299015D01*
X-49132Y298990D01*
X-49068Y298962D01*
X-49006Y298930D01*
X-48946Y298895D01*
X-48888Y298856D01*
X-48833Y298814D01*
X-48779Y298769D01*
X-48729Y298721D01*
X-48681Y298671D01*
X-48636Y298617D01*
X-48594Y298562D01*
X-48555Y298504D01*
X-48520Y298444D01*
X-48488Y298382D01*
X-48460Y298318D01*
X-48435Y298253D01*
X-48414Y298187D01*
X-48396Y298119D01*
X-48383Y298051D01*
X-48373Y297982D01*
X-48367Y297913D01*
X-48365Y297843D01*
X-48367Y297773D01*
X-48373Y297704D01*
X-48383Y297635D01*
X-48396Y297567D01*
X-48414Y297499D01*
X-48435Y297433D01*
X-48460Y297368D01*
X-48488Y297304D01*
X-48520Y297242D01*
X-48555Y297182D01*
X-48594Y297124D01*
X-48636Y297069D01*
X-48681Y297015D01*
X-48729Y296965D01*
X-48779Y296917D01*
X-48833Y296872D01*
X-48888Y296830D01*
X-48946Y296791D01*
X-49006Y296756D01*
X-49068Y296724D01*
X-49132Y296696D01*
X-49197Y296671D01*
X-49263Y296650D01*
X-49331Y296632D01*
X-49399Y296619D01*
X-49468Y296609D01*
X-49537Y296603D01*
X-49607Y296601D01*
X-45939Y293497D02*
X-44387Y293497D01*
X-44310Y293499D01*
X-44232Y293505D01*
X-44156Y293514D01*
X-44079Y293528D01*
X-44004Y293545D01*
X-43930Y293566D01*
X-43856Y293591D01*
X-43784Y293619D01*
X-43714Y293651D01*
X-43645Y293686D01*
X-43578Y293725D01*
X-43513Y293767D01*
X-43450Y293812D01*
X-43389Y293860D01*
X-43331Y293911D01*
X-43276Y293965D01*
X-43223Y294022D01*
X-43174Y294081D01*
X-43127Y294143D01*
X-43083Y294207D01*
X-43043Y294273D01*
X-43006Y294341D01*
X-42972Y294411D01*
X-42942Y294482D01*
X-42916Y294555D01*
X-42893Y294629D01*
X-42874Y294704D01*
X-42859Y294779D01*
X-42847Y294856D01*
X-42839Y294933D01*
X-42835Y295010D01*
X-42835Y295088D01*
X-42839Y295165D01*
X-42847Y295242D01*
X-42859Y295319D01*
X-42874Y295394D01*
X-42893Y295469D01*
X-42916Y295543D01*
X-42942Y295616D01*
X-42972Y295687D01*
X-43006Y295757D01*
X-43043Y295825D01*
X-43083Y295891D01*
X-43127Y295955D01*
X-43174Y296017D01*
X-43223Y296076D01*
X-43276Y296133D01*
X-43331Y296187D01*
X-43389Y296238D01*
X-43450Y296286D01*
X-43513Y296331D01*
X-43578Y296373D01*
X-43645Y296412D01*
X-43714Y296447D01*
X-43784Y296479D01*
X-43856Y296507D01*
X-43930Y296532D01*
X-44004Y296553D01*
X-44079Y296570D01*
X-44156Y296584D01*
X-44232Y296593D01*
X-44310Y296599D01*
X-44387Y296601D01*
X-44076Y299085D02*
X-45939Y299085D01*
X-44076Y299085D02*
X-44006Y299083D01*
X-43937Y299077D01*
X-43868Y299067D01*
X-43800Y299054D01*
X-43732Y299036D01*
X-43666Y299015D01*
X-43601Y298990D01*
X-43537Y298962D01*
X-43475Y298930D01*
X-43415Y298895D01*
X-43357Y298856D01*
X-43302Y298814D01*
X-43248Y298769D01*
X-43198Y298721D01*
X-43150Y298671D01*
X-43105Y298617D01*
X-43063Y298562D01*
X-43024Y298504D01*
X-42989Y298444D01*
X-42957Y298382D01*
X-42929Y298318D01*
X-42904Y298253D01*
X-42883Y298187D01*
X-42865Y298119D01*
X-42852Y298051D01*
X-42842Y297982D01*
X-42836Y297913D01*
X-42834Y297843D01*
X-42836Y297773D01*
X-42842Y297704D01*
X-42852Y297635D01*
X-42865Y297567D01*
X-42883Y297499D01*
X-42904Y297433D01*
X-42929Y297368D01*
X-42957Y297304D01*
X-42989Y297242D01*
X-43024Y297182D01*
X-43063Y297124D01*
X-43105Y297069D01*
X-43150Y297015D01*
X-43198Y296965D01*
X-43248Y296917D01*
X-43302Y296872D01*
X-43357Y296830D01*
X-43415Y296791D01*
X-43475Y296756D01*
X-43537Y296724D01*
X-43601Y296696D01*
X-43666Y296671D01*
X-43732Y296650D01*
X-43800Y296632D01*
X-43868Y296619D01*
X-43937Y296609D01*
X-44006Y296603D01*
X-44076Y296601D01*
X-45318Y296601D01*
X-31672Y299342D02*
X-31672Y293754D01*
X-31672Y299342D02*
X-30119Y299342D01*
X-30042Y299340D01*
X-29964Y299334D01*
X-29888Y299325D01*
X-29811Y299311D01*
X-29736Y299294D01*
X-29662Y299273D01*
X-29588Y299248D01*
X-29516Y299220D01*
X-29446Y299188D01*
X-29377Y299153D01*
X-29310Y299114D01*
X-29245Y299072D01*
X-29182Y299027D01*
X-29121Y298979D01*
X-29063Y298928D01*
X-29008Y298874D01*
X-28955Y298817D01*
X-28906Y298758D01*
X-28859Y298696D01*
X-28815Y298632D01*
X-28775Y298566D01*
X-28738Y298498D01*
X-28704Y298428D01*
X-28674Y298357D01*
X-28648Y298284D01*
X-28625Y298210D01*
X-28606Y298135D01*
X-28591Y298060D01*
X-28579Y297983D01*
X-28571Y297906D01*
X-28567Y297829D01*
X-28567Y297751D01*
X-28571Y297674D01*
X-28579Y297597D01*
X-28591Y297520D01*
X-28606Y297445D01*
X-28625Y297370D01*
X-28648Y297296D01*
X-28674Y297223D01*
X-28704Y297152D01*
X-28738Y297082D01*
X-28775Y297014D01*
X-28815Y296948D01*
X-28859Y296884D01*
X-28906Y296822D01*
X-28955Y296763D01*
X-29008Y296706D01*
X-29063Y296652D01*
X-29121Y296601D01*
X-29182Y296553D01*
X-29245Y296508D01*
X-29310Y296466D01*
X-29377Y296427D01*
X-29446Y296392D01*
X-29516Y296360D01*
X-29588Y296332D01*
X-29662Y296307D01*
X-29736Y296286D01*
X-29811Y296269D01*
X-29888Y296255D01*
X-29964Y296246D01*
X-30042Y296240D01*
X-30119Y296238D01*
X-31672Y296238D01*
X-26185Y296859D02*
X-24633Y296859D01*
X-24556Y296857D01*
X-24478Y296851D01*
X-24402Y296842D01*
X-24325Y296828D01*
X-24250Y296811D01*
X-24176Y296790D01*
X-24102Y296765D01*
X-24030Y296737D01*
X-23960Y296705D01*
X-23891Y296670D01*
X-23824Y296631D01*
X-23759Y296589D01*
X-23696Y296544D01*
X-23635Y296496D01*
X-23577Y296445D01*
X-23522Y296391D01*
X-23469Y296334D01*
X-23420Y296275D01*
X-23373Y296213D01*
X-23329Y296149D01*
X-23289Y296083D01*
X-23252Y296015D01*
X-23218Y295945D01*
X-23188Y295874D01*
X-23162Y295801D01*
X-23139Y295727D01*
X-23120Y295652D01*
X-23105Y295577D01*
X-23093Y295500D01*
X-23085Y295423D01*
X-23081Y295346D01*
X-23081Y295268D01*
X-23085Y295191D01*
X-23093Y295114D01*
X-23105Y295037D01*
X-23120Y294962D01*
X-23139Y294887D01*
X-23162Y294813D01*
X-23188Y294740D01*
X-23218Y294669D01*
X-23252Y294599D01*
X-23289Y294531D01*
X-23329Y294465D01*
X-23373Y294401D01*
X-23420Y294339D01*
X-23469Y294280D01*
X-23522Y294223D01*
X-23577Y294169D01*
X-23635Y294118D01*
X-23696Y294070D01*
X-23759Y294025D01*
X-23824Y293983D01*
X-23891Y293944D01*
X-23960Y293909D01*
X-24030Y293877D01*
X-24102Y293849D01*
X-24176Y293824D01*
X-24250Y293803D01*
X-24325Y293786D01*
X-24402Y293772D01*
X-24478Y293763D01*
X-24556Y293757D01*
X-24633Y293755D01*
X-24633Y293754D02*
X-26185Y293754D01*
X-26185Y299342D01*
X-24633Y299342D01*
X-24633Y299343D02*
X-24563Y299341D01*
X-24494Y299335D01*
X-24425Y299325D01*
X-24357Y299312D01*
X-24289Y299294D01*
X-24223Y299273D01*
X-24158Y299248D01*
X-24094Y299220D01*
X-24032Y299188D01*
X-23972Y299153D01*
X-23914Y299114D01*
X-23859Y299072D01*
X-23805Y299027D01*
X-23755Y298979D01*
X-23707Y298929D01*
X-23662Y298875D01*
X-23620Y298820D01*
X-23581Y298762D01*
X-23546Y298702D01*
X-23514Y298640D01*
X-23486Y298576D01*
X-23461Y298511D01*
X-23440Y298445D01*
X-23422Y298377D01*
X-23409Y298309D01*
X-23399Y298240D01*
X-23393Y298171D01*
X-23391Y298101D01*
X-23393Y298031D01*
X-23399Y297962D01*
X-23409Y297893D01*
X-23422Y297825D01*
X-23440Y297757D01*
X-23461Y297691D01*
X-23486Y297626D01*
X-23514Y297562D01*
X-23546Y297500D01*
X-23581Y297440D01*
X-23620Y297382D01*
X-23662Y297327D01*
X-23707Y297273D01*
X-23755Y297223D01*
X-23805Y297175D01*
X-23859Y297130D01*
X-23914Y297088D01*
X-23972Y297049D01*
X-24032Y297014D01*
X-24094Y296982D01*
X-24158Y296954D01*
X-24223Y296929D01*
X-24289Y296908D01*
X-24357Y296890D01*
X-24425Y296877D01*
X-24494Y296867D01*
X-24563Y296861D01*
X-24633Y296859D01*
X-20965Y296548D02*
X-20963Y296679D01*
X-20958Y296809D01*
X-20948Y296939D01*
X-20935Y297069D01*
X-20919Y297199D01*
X-20899Y297328D01*
X-20875Y297456D01*
X-20847Y297583D01*
X-20816Y297710D01*
X-20781Y297836D01*
X-20743Y297961D01*
X-20701Y298085D01*
X-20656Y298207D01*
X-20607Y298328D01*
X-20555Y298448D01*
X-20499Y298566D01*
X-20500Y298567D02*
X-20477Y298627D01*
X-20451Y298687D01*
X-20422Y298744D01*
X-20389Y298800D01*
X-20353Y298854D01*
X-20315Y298906D01*
X-20273Y298956D01*
X-20229Y299003D01*
X-20182Y299048D01*
X-20132Y299090D01*
X-20081Y299129D01*
X-20027Y299165D01*
X-19971Y299198D01*
X-19914Y299228D01*
X-19855Y299255D01*
X-19794Y299278D01*
X-19733Y299298D01*
X-19670Y299314D01*
X-19606Y299327D01*
X-19542Y299336D01*
X-19478Y299341D01*
X-19413Y299343D01*
X-19348Y299341D01*
X-19284Y299336D01*
X-19220Y299327D01*
X-19156Y299314D01*
X-19093Y299298D01*
X-19032Y299278D01*
X-18971Y299255D01*
X-18912Y299228D01*
X-18855Y299198D01*
X-18799Y299165D01*
X-18745Y299129D01*
X-18694Y299090D01*
X-18644Y299048D01*
X-18597Y299003D01*
X-18553Y298956D01*
X-18511Y298906D01*
X-18473Y298854D01*
X-18437Y298800D01*
X-18404Y298744D01*
X-18375Y298687D01*
X-18349Y298627D01*
X-18326Y298567D01*
X-18326Y298566D02*
X-18270Y298448D01*
X-18218Y298328D01*
X-18169Y298207D01*
X-18124Y298085D01*
X-18082Y297961D01*
X-18044Y297836D01*
X-18009Y297710D01*
X-17978Y297584D01*
X-17950Y297456D01*
X-17926Y297328D01*
X-17906Y297199D01*
X-17890Y297069D01*
X-17877Y296939D01*
X-17867Y296809D01*
X-17862Y296679D01*
X-17860Y296548D01*
X-20965Y296548D02*
X-20963Y296417D01*
X-20958Y296287D01*
X-20948Y296157D01*
X-20935Y296027D01*
X-20919Y295897D01*
X-20899Y295769D01*
X-20875Y295640D01*
X-20847Y295513D01*
X-20816Y295386D01*
X-20781Y295260D01*
X-20743Y295135D01*
X-20701Y295012D01*
X-20656Y294889D01*
X-20607Y294768D01*
X-20555Y294648D01*
X-20499Y294530D01*
X-20500Y294530D02*
X-20477Y294470D01*
X-20451Y294410D01*
X-20422Y294353D01*
X-20389Y294297D01*
X-20353Y294243D01*
X-20315Y294191D01*
X-20273Y294141D01*
X-20229Y294094D01*
X-20182Y294049D01*
X-20132Y294007D01*
X-20081Y293968D01*
X-20027Y293932D01*
X-19971Y293899D01*
X-19914Y293869D01*
X-19855Y293842D01*
X-19794Y293819D01*
X-19733Y293799D01*
X-19670Y293783D01*
X-19606Y293770D01*
X-19542Y293761D01*
X-19478Y293756D01*
X-19413Y293754D01*
X-18326Y294530D02*
X-18270Y294648D01*
X-18218Y294768D01*
X-18169Y294889D01*
X-18124Y295011D01*
X-18082Y295135D01*
X-18044Y295260D01*
X-18009Y295386D01*
X-17978Y295512D01*
X-17950Y295640D01*
X-17926Y295768D01*
X-17906Y295897D01*
X-17890Y296027D01*
X-17877Y296157D01*
X-17867Y296287D01*
X-17862Y296417D01*
X-17860Y296548D01*
X-18326Y294530D02*
X-18349Y294470D01*
X-18375Y294410D01*
X-18404Y294353D01*
X-18437Y294297D01*
X-18473Y294243D01*
X-18511Y294191D01*
X-18553Y294141D01*
X-18597Y294094D01*
X-18644Y294049D01*
X-18694Y294007D01*
X-18745Y293968D01*
X-18799Y293932D01*
X-18855Y293899D01*
X-18912Y293869D01*
X-18971Y293842D01*
X-19032Y293819D01*
X-19093Y293799D01*
X-19156Y293783D01*
X-19220Y293770D01*
X-19284Y293761D01*
X-19348Y293756D01*
X-19413Y293754D01*
X-20654Y294996D02*
X-18171Y298101D01*
X-6955Y299085D02*
X-6955Y293497D01*
X-5092Y295980D02*
X-6955Y299085D01*
X-5092Y295980D02*
X-3230Y299085D01*
X-3230Y293497D01*
X577Y293497D02*
X577Y299085D01*
X-975Y299085D02*
X2129Y299085D01*
X4328Y299085D02*
X4328Y293497D01*
X4328Y299085D02*
X5880Y299085D01*
X5956Y299083D01*
X6032Y299078D01*
X6108Y299068D01*
X6183Y299055D01*
X6257Y299038D01*
X6331Y299018D01*
X6403Y298994D01*
X6474Y298967D01*
X6544Y298936D01*
X6612Y298902D01*
X6678Y298864D01*
X6742Y298823D01*
X6805Y298780D01*
X6865Y298733D01*
X6922Y298683D01*
X6977Y298630D01*
X7030Y298575D01*
X7080Y298518D01*
X7127Y298458D01*
X7170Y298395D01*
X7211Y298331D01*
X7249Y298265D01*
X7283Y298197D01*
X7314Y298127D01*
X7341Y298056D01*
X7365Y297983D01*
X7385Y297910D01*
X7402Y297836D01*
X7415Y297761D01*
X7425Y297685D01*
X7430Y297609D01*
X7432Y297533D01*
X7433Y297533D02*
X7433Y295049D01*
X7432Y295049D02*
X7430Y294970D01*
X7424Y294892D01*
X7414Y294814D01*
X7400Y294737D01*
X7382Y294660D01*
X7361Y294584D01*
X7335Y294510D01*
X7306Y294437D01*
X7273Y294366D01*
X7237Y294296D01*
X7197Y294228D01*
X7154Y294162D01*
X7107Y294099D01*
X7058Y294038D01*
X7005Y293980D01*
X6949Y293924D01*
X6891Y293871D01*
X6830Y293822D01*
X6767Y293775D01*
X6701Y293732D01*
X6633Y293692D01*
X6564Y293656D01*
X6492Y293623D01*
X6419Y293594D01*
X6345Y293568D01*
X6269Y293547D01*
X6192Y293529D01*
X6115Y293515D01*
X6037Y293505D01*
X5959Y293499D01*
X5880Y293497D01*
X4328Y293497D01*
X18277Y293239D02*
X18277Y298827D01*
X20139Y295723D01*
X22002Y298827D01*
X22002Y293239D01*
X25809Y293239D02*
X25809Y298827D01*
X27361Y298827D02*
X24256Y298827D01*
X30602Y293239D02*
X31844Y293239D01*
X30602Y293239D02*
X30532Y293241D01*
X30463Y293247D01*
X30394Y293257D01*
X30326Y293270D01*
X30258Y293288D01*
X30192Y293309D01*
X30127Y293334D01*
X30063Y293362D01*
X30001Y293394D01*
X29941Y293429D01*
X29883Y293468D01*
X29828Y293510D01*
X29774Y293555D01*
X29724Y293603D01*
X29676Y293653D01*
X29631Y293707D01*
X29589Y293762D01*
X29550Y293820D01*
X29515Y293880D01*
X29483Y293942D01*
X29455Y294006D01*
X29430Y294071D01*
X29409Y294137D01*
X29391Y294205D01*
X29378Y294273D01*
X29368Y294342D01*
X29362Y294411D01*
X29360Y294481D01*
X29361Y294481D02*
X29361Y297586D01*
X29360Y297586D02*
X29362Y297656D01*
X29368Y297725D01*
X29378Y297794D01*
X29391Y297862D01*
X29409Y297930D01*
X29430Y297996D01*
X29455Y298061D01*
X29483Y298125D01*
X29515Y298187D01*
X29550Y298247D01*
X29589Y298305D01*
X29631Y298360D01*
X29676Y298414D01*
X29724Y298464D01*
X29774Y298512D01*
X29828Y298557D01*
X29883Y298599D01*
X29941Y298638D01*
X30001Y298673D01*
X30063Y298705D01*
X30127Y298733D01*
X30192Y298758D01*
X30258Y298779D01*
X30326Y298797D01*
X30394Y298810D01*
X30463Y298820D01*
X30532Y298826D01*
X30602Y298828D01*
X30602Y298827D02*
X31844Y298827D01*
X46916Y293239D02*
X46986Y293241D01*
X47055Y293247D01*
X47124Y293257D01*
X47192Y293270D01*
X47260Y293288D01*
X47326Y293309D01*
X47391Y293334D01*
X47455Y293362D01*
X47517Y293394D01*
X47577Y293429D01*
X47635Y293468D01*
X47690Y293510D01*
X47744Y293555D01*
X47794Y293603D01*
X47842Y293653D01*
X47887Y293707D01*
X47929Y293762D01*
X47968Y293820D01*
X48003Y293880D01*
X48035Y293942D01*
X48063Y294006D01*
X48088Y294071D01*
X48109Y294137D01*
X48127Y294205D01*
X48140Y294273D01*
X48150Y294342D01*
X48156Y294411D01*
X48158Y294481D01*
X46916Y293240D02*
X46817Y293242D01*
X46719Y293247D01*
X46621Y293257D01*
X46523Y293270D01*
X46426Y293286D01*
X46329Y293306D01*
X46234Y293330D01*
X46139Y293358D01*
X46045Y293389D01*
X45953Y293423D01*
X45862Y293461D01*
X45772Y293502D01*
X45684Y293547D01*
X45598Y293595D01*
X45514Y293646D01*
X45432Y293700D01*
X45351Y293758D01*
X45273Y293818D01*
X45198Y293881D01*
X45124Y293947D01*
X45054Y294016D01*
X45208Y297586D02*
X45210Y297656D01*
X45216Y297725D01*
X45226Y297794D01*
X45239Y297862D01*
X45257Y297930D01*
X45278Y297996D01*
X45303Y298061D01*
X45331Y298125D01*
X45363Y298187D01*
X45398Y298247D01*
X45437Y298305D01*
X45479Y298360D01*
X45524Y298414D01*
X45572Y298464D01*
X45622Y298512D01*
X45676Y298557D01*
X45731Y298599D01*
X45789Y298638D01*
X45849Y298673D01*
X45911Y298705D01*
X45975Y298733D01*
X46040Y298758D01*
X46106Y298779D01*
X46174Y298797D01*
X46242Y298810D01*
X46311Y298820D01*
X46380Y298826D01*
X46450Y298828D01*
X46450Y298827D02*
X46544Y298825D01*
X46637Y298819D01*
X46730Y298810D01*
X46823Y298797D01*
X46915Y298780D01*
X47006Y298760D01*
X47097Y298735D01*
X47186Y298708D01*
X47274Y298676D01*
X47361Y298641D01*
X47447Y298603D01*
X47530Y298561D01*
X47612Y298516D01*
X47693Y298468D01*
X47771Y298416D01*
X47847Y298361D01*
X45829Y296500D02*
X45770Y296536D01*
X45714Y296576D01*
X45660Y296619D01*
X45608Y296664D01*
X45559Y296713D01*
X45513Y296764D01*
X45470Y296817D01*
X45429Y296873D01*
X45392Y296931D01*
X45357Y296991D01*
X45327Y297052D01*
X45299Y297115D01*
X45275Y297180D01*
X45255Y297246D01*
X45238Y297313D01*
X45225Y297380D01*
X45216Y297448D01*
X45210Y297517D01*
X45208Y297586D01*
X47536Y295567D02*
X47595Y295531D01*
X47651Y295491D01*
X47705Y295448D01*
X47757Y295403D01*
X47806Y295354D01*
X47852Y295303D01*
X47895Y295250D01*
X47936Y295194D01*
X47973Y295136D01*
X48008Y295076D01*
X48038Y295015D01*
X48066Y294952D01*
X48090Y294887D01*
X48110Y294821D01*
X48127Y294754D01*
X48140Y294687D01*
X48149Y294619D01*
X48155Y294550D01*
X48157Y294481D01*
X47536Y295568D02*
X45829Y296499D01*
X51582Y293239D02*
X52824Y293239D01*
X51582Y293239D02*
X51512Y293241D01*
X51443Y293247D01*
X51374Y293257D01*
X51306Y293270D01*
X51238Y293288D01*
X51172Y293309D01*
X51107Y293334D01*
X51043Y293362D01*
X50981Y293394D01*
X50921Y293429D01*
X50863Y293468D01*
X50808Y293510D01*
X50754Y293555D01*
X50704Y293603D01*
X50656Y293653D01*
X50611Y293707D01*
X50569Y293762D01*
X50530Y293820D01*
X50495Y293880D01*
X50463Y293942D01*
X50435Y294006D01*
X50410Y294071D01*
X50389Y294137D01*
X50371Y294205D01*
X50358Y294273D01*
X50348Y294342D01*
X50342Y294411D01*
X50340Y294481D01*
X50340Y297586D01*
X50342Y297656D01*
X50348Y297725D01*
X50358Y297794D01*
X50371Y297862D01*
X50389Y297930D01*
X50410Y297996D01*
X50435Y298061D01*
X50463Y298125D01*
X50495Y298187D01*
X50530Y298247D01*
X50569Y298305D01*
X50611Y298360D01*
X50656Y298414D01*
X50704Y298464D01*
X50754Y298512D01*
X50808Y298557D01*
X50863Y298599D01*
X50921Y298638D01*
X50981Y298673D01*
X51043Y298705D01*
X51107Y298733D01*
X51172Y298758D01*
X51238Y298779D01*
X51306Y298797D01*
X51374Y298810D01*
X51443Y298820D01*
X51512Y298826D01*
X51582Y298828D01*
X51582Y298827D02*
X52824Y298827D01*
X55122Y298827D02*
X55122Y293239D01*
X57606Y293239D01*
X72147Y292982D02*
X72217Y292984D01*
X72286Y292990D01*
X72355Y293000D01*
X72423Y293013D01*
X72491Y293031D01*
X72557Y293052D01*
X72622Y293077D01*
X72686Y293105D01*
X72748Y293137D01*
X72808Y293172D01*
X72866Y293211D01*
X72921Y293253D01*
X72975Y293298D01*
X73025Y293346D01*
X73073Y293396D01*
X73118Y293450D01*
X73160Y293505D01*
X73199Y293563D01*
X73234Y293623D01*
X73266Y293685D01*
X73294Y293749D01*
X73319Y293814D01*
X73340Y293880D01*
X73358Y293948D01*
X73371Y294016D01*
X73381Y294085D01*
X73387Y294154D01*
X73389Y294224D01*
X72147Y292982D02*
X72048Y292984D01*
X71950Y292989D01*
X71852Y292999D01*
X71754Y293012D01*
X71657Y293028D01*
X71560Y293048D01*
X71465Y293072D01*
X71370Y293100D01*
X71276Y293131D01*
X71184Y293165D01*
X71093Y293203D01*
X71003Y293244D01*
X70915Y293289D01*
X70829Y293337D01*
X70745Y293388D01*
X70663Y293442D01*
X70582Y293500D01*
X70504Y293560D01*
X70429Y293623D01*
X70355Y293689D01*
X70285Y293758D01*
X70440Y297328D02*
X70442Y297398D01*
X70448Y297467D01*
X70458Y297536D01*
X70471Y297604D01*
X70489Y297672D01*
X70510Y297738D01*
X70535Y297803D01*
X70563Y297867D01*
X70595Y297929D01*
X70630Y297989D01*
X70669Y298047D01*
X70711Y298102D01*
X70756Y298156D01*
X70804Y298206D01*
X70854Y298254D01*
X70908Y298299D01*
X70963Y298341D01*
X71021Y298380D01*
X71081Y298415D01*
X71143Y298447D01*
X71207Y298475D01*
X71272Y298500D01*
X71338Y298521D01*
X71406Y298539D01*
X71474Y298552D01*
X71543Y298562D01*
X71612Y298568D01*
X71682Y298570D01*
X71681Y298569D02*
X71775Y298567D01*
X71868Y298561D01*
X71961Y298552D01*
X72054Y298539D01*
X72146Y298522D01*
X72237Y298502D01*
X72328Y298477D01*
X72417Y298450D01*
X72505Y298418D01*
X72592Y298383D01*
X72678Y298345D01*
X72761Y298303D01*
X72843Y298258D01*
X72924Y298210D01*
X73002Y298158D01*
X73078Y298103D01*
X71061Y296242D02*
X71002Y296278D01*
X70946Y296318D01*
X70892Y296361D01*
X70840Y296406D01*
X70791Y296455D01*
X70745Y296506D01*
X70702Y296559D01*
X70661Y296615D01*
X70624Y296673D01*
X70589Y296733D01*
X70559Y296794D01*
X70531Y296857D01*
X70507Y296922D01*
X70487Y296988D01*
X70470Y297055D01*
X70457Y297122D01*
X70448Y297190D01*
X70442Y297259D01*
X70440Y297328D01*
X72768Y295310D02*
X72827Y295274D01*
X72883Y295234D01*
X72937Y295191D01*
X72989Y295146D01*
X73038Y295097D01*
X73084Y295046D01*
X73127Y294993D01*
X73168Y294937D01*
X73205Y294879D01*
X73240Y294819D01*
X73270Y294758D01*
X73298Y294695D01*
X73322Y294630D01*
X73342Y294564D01*
X73359Y294497D01*
X73372Y294430D01*
X73381Y294362D01*
X73387Y294293D01*
X73389Y294224D01*
X72768Y295310D02*
X71061Y296242D01*
X76814Y292982D02*
X78055Y292982D01*
X76814Y292982D02*
X76744Y292984D01*
X76675Y292990D01*
X76606Y293000D01*
X76538Y293013D01*
X76470Y293031D01*
X76404Y293052D01*
X76339Y293077D01*
X76275Y293105D01*
X76213Y293137D01*
X76153Y293172D01*
X76095Y293211D01*
X76040Y293253D01*
X75986Y293298D01*
X75936Y293346D01*
X75888Y293396D01*
X75843Y293450D01*
X75801Y293505D01*
X75762Y293563D01*
X75727Y293623D01*
X75695Y293685D01*
X75667Y293749D01*
X75642Y293814D01*
X75621Y293880D01*
X75603Y293948D01*
X75590Y294016D01*
X75580Y294085D01*
X75574Y294154D01*
X75572Y294224D01*
X75572Y297328D01*
X75574Y297398D01*
X75580Y297467D01*
X75590Y297536D01*
X75603Y297604D01*
X75621Y297672D01*
X75642Y297738D01*
X75667Y297803D01*
X75695Y297867D01*
X75727Y297929D01*
X75762Y297989D01*
X75801Y298047D01*
X75843Y298102D01*
X75888Y298156D01*
X75936Y298206D01*
X75986Y298254D01*
X76040Y298299D01*
X76095Y298341D01*
X76153Y298380D01*
X76213Y298415D01*
X76275Y298447D01*
X76339Y298475D01*
X76404Y298500D01*
X76470Y298521D01*
X76538Y298539D01*
X76606Y298552D01*
X76675Y298562D01*
X76744Y298568D01*
X76814Y298570D01*
X78055Y298570D01*
X81712Y298570D02*
X79850Y292982D01*
X83575Y292982D02*
X81712Y298570D01*
X83109Y294379D02*
X80315Y294379D01*
X94744Y298312D02*
X96606Y292724D01*
X98469Y298312D01*
X101766Y292724D02*
X103008Y292724D01*
X101766Y292724D02*
X101696Y292726D01*
X101627Y292732D01*
X101558Y292742D01*
X101490Y292755D01*
X101422Y292773D01*
X101356Y292794D01*
X101291Y292819D01*
X101227Y292847D01*
X101165Y292879D01*
X101105Y292914D01*
X101047Y292953D01*
X100992Y292995D01*
X100938Y293040D01*
X100888Y293088D01*
X100840Y293138D01*
X100795Y293192D01*
X100753Y293247D01*
X100714Y293305D01*
X100679Y293365D01*
X100647Y293427D01*
X100619Y293491D01*
X100594Y293556D01*
X100573Y293622D01*
X100555Y293690D01*
X100542Y293758D01*
X100532Y293827D01*
X100526Y293896D01*
X100524Y293966D01*
X100524Y297071D01*
X100526Y297141D01*
X100532Y297210D01*
X100542Y297279D01*
X100555Y297347D01*
X100573Y297415D01*
X100594Y297481D01*
X100619Y297546D01*
X100647Y297610D01*
X100679Y297672D01*
X100714Y297732D01*
X100753Y297790D01*
X100795Y297845D01*
X100840Y297899D01*
X100888Y297949D01*
X100938Y297997D01*
X100992Y298042D01*
X101047Y298084D01*
X101105Y298123D01*
X101165Y298158D01*
X101227Y298190D01*
X101291Y298218D01*
X101356Y298243D01*
X101422Y298264D01*
X101490Y298282D01*
X101558Y298295D01*
X101627Y298305D01*
X101696Y298311D01*
X101766Y298313D01*
X101766Y298312D02*
X103008Y298312D01*
X106338Y292724D02*
X107580Y292724D01*
X106338Y292724D02*
X106268Y292726D01*
X106199Y292732D01*
X106130Y292742D01*
X106062Y292755D01*
X105994Y292773D01*
X105928Y292794D01*
X105863Y292819D01*
X105799Y292847D01*
X105737Y292879D01*
X105677Y292914D01*
X105619Y292953D01*
X105564Y292995D01*
X105510Y293040D01*
X105460Y293088D01*
X105412Y293138D01*
X105367Y293192D01*
X105325Y293247D01*
X105286Y293305D01*
X105251Y293365D01*
X105219Y293427D01*
X105191Y293491D01*
X105166Y293556D01*
X105145Y293622D01*
X105127Y293690D01*
X105114Y293758D01*
X105104Y293827D01*
X105098Y293896D01*
X105096Y293966D01*
X105096Y297071D01*
X105098Y297141D01*
X105104Y297210D01*
X105114Y297279D01*
X105127Y297347D01*
X105145Y297415D01*
X105166Y297481D01*
X105191Y297546D01*
X105219Y297610D01*
X105251Y297672D01*
X105286Y297732D01*
X105325Y297790D01*
X105367Y297845D01*
X105412Y297899D01*
X105460Y297949D01*
X105510Y297997D01*
X105564Y298042D01*
X105619Y298084D01*
X105677Y298123D01*
X105737Y298158D01*
X105799Y298190D01*
X105863Y298218D01*
X105928Y298243D01*
X105994Y298264D01*
X106062Y298282D01*
X106130Y298295D01*
X106199Y298305D01*
X106268Y298311D01*
X106338Y298313D01*
X106338Y298312D02*
X107580Y298312D01*
X121891Y296086D02*
X122822Y296086D01*
X122822Y292982D01*
X120960Y292982D01*
X120890Y292984D01*
X120821Y292990D01*
X120752Y293000D01*
X120684Y293013D01*
X120616Y293031D01*
X120550Y293052D01*
X120485Y293077D01*
X120421Y293105D01*
X120359Y293137D01*
X120299Y293172D01*
X120241Y293211D01*
X120186Y293253D01*
X120132Y293298D01*
X120082Y293346D01*
X120034Y293396D01*
X119989Y293450D01*
X119947Y293505D01*
X119908Y293563D01*
X119873Y293623D01*
X119841Y293685D01*
X119813Y293749D01*
X119788Y293814D01*
X119767Y293880D01*
X119749Y293948D01*
X119736Y294016D01*
X119726Y294085D01*
X119720Y294154D01*
X119718Y294224D01*
X119718Y297328D01*
X119720Y297398D01*
X119726Y297467D01*
X119736Y297536D01*
X119749Y297604D01*
X119767Y297672D01*
X119788Y297738D01*
X119813Y297803D01*
X119841Y297867D01*
X119873Y297929D01*
X119908Y297989D01*
X119947Y298047D01*
X119989Y298102D01*
X120034Y298156D01*
X120082Y298206D01*
X120132Y298254D01*
X120186Y298299D01*
X120241Y298341D01*
X120299Y298380D01*
X120359Y298415D01*
X120421Y298447D01*
X120485Y298475D01*
X120550Y298500D01*
X120616Y298521D01*
X120684Y298539D01*
X120752Y298552D01*
X120821Y298562D01*
X120890Y298568D01*
X120960Y298570D01*
X122822Y298570D01*
X125570Y298570D02*
X125570Y292982D01*
X128674Y292982D02*
X125570Y298570D01*
X128674Y298570D02*
X128674Y292982D01*
X131422Y292982D02*
X131422Y298570D01*
X132974Y298570D01*
X133050Y298568D01*
X133126Y298563D01*
X133202Y298553D01*
X133277Y298540D01*
X133351Y298523D01*
X133425Y298503D01*
X133497Y298479D01*
X133568Y298452D01*
X133638Y298421D01*
X133706Y298387D01*
X133772Y298349D01*
X133836Y298308D01*
X133899Y298265D01*
X133959Y298218D01*
X134016Y298168D01*
X134071Y298115D01*
X134124Y298060D01*
X134174Y298003D01*
X134221Y297943D01*
X134264Y297880D01*
X134305Y297816D01*
X134343Y297750D01*
X134377Y297682D01*
X134408Y297612D01*
X134435Y297541D01*
X134459Y297468D01*
X134479Y297395D01*
X134496Y297321D01*
X134509Y297246D01*
X134519Y297170D01*
X134524Y297094D01*
X134526Y297018D01*
X134527Y297018D02*
X134527Y294534D01*
X134526Y294534D02*
X134524Y294455D01*
X134518Y294377D01*
X134508Y294299D01*
X134494Y294222D01*
X134476Y294145D01*
X134455Y294069D01*
X134429Y293995D01*
X134400Y293922D01*
X134367Y293851D01*
X134331Y293781D01*
X134291Y293713D01*
X134248Y293647D01*
X134201Y293584D01*
X134152Y293523D01*
X134099Y293465D01*
X134043Y293409D01*
X133985Y293356D01*
X133924Y293307D01*
X133861Y293260D01*
X133795Y293217D01*
X133727Y293177D01*
X133658Y293141D01*
X133586Y293108D01*
X133513Y293079D01*
X133439Y293053D01*
X133363Y293032D01*
X133286Y293014D01*
X133209Y293000D01*
X133131Y292990D01*
X133053Y292984D01*
X132974Y292982D01*
X131422Y292982D01*
D11*
X-330120Y-71271D02*
X-339208Y-71271D01*
X-330120Y-71272D02*
X-330021Y-71274D01*
X-329921Y-71280D01*
X-329822Y-71289D01*
X-329724Y-71302D01*
X-329626Y-71319D01*
X-329528Y-71340D01*
X-329432Y-71365D01*
X-329337Y-71393D01*
X-329243Y-71425D01*
X-329150Y-71460D01*
X-329058Y-71499D01*
X-328968Y-71542D01*
X-328880Y-71587D01*
X-328793Y-71637D01*
X-328709Y-71689D01*
X-328626Y-71745D01*
X-328546Y-71803D01*
X-328468Y-71865D01*
X-328393Y-71930D01*
X-328320Y-71998D01*
X-328250Y-72068D01*
X-328182Y-72141D01*
X-328117Y-72216D01*
X-328055Y-72294D01*
X-327997Y-72374D01*
X-327941Y-72457D01*
X-327889Y-72541D01*
X-327839Y-72628D01*
X-327794Y-72716D01*
X-327751Y-72806D01*
X-327712Y-72898D01*
X-327677Y-72991D01*
X-327645Y-73085D01*
X-327617Y-73180D01*
X-327592Y-73276D01*
X-327571Y-73374D01*
X-327554Y-73472D01*
X-327541Y-73570D01*
X-327532Y-73669D01*
X-327526Y-73769D01*
X-327524Y-73868D01*
X-327524Y-75166D01*
X-327524Y-64163D02*
X-327524Y-60918D01*
X-327524Y-64163D02*
X-327526Y-64250D01*
X-327532Y-64338D01*
X-327542Y-64424D01*
X-327555Y-64511D01*
X-327573Y-64596D01*
X-327594Y-64681D01*
X-327619Y-64765D01*
X-327648Y-64847D01*
X-327681Y-64928D01*
X-327717Y-65008D01*
X-327756Y-65086D01*
X-327800Y-65162D01*
X-327846Y-65236D01*
X-327896Y-65307D01*
X-327949Y-65377D01*
X-328005Y-65444D01*
X-328064Y-65508D01*
X-328126Y-65570D01*
X-328190Y-65629D01*
X-328257Y-65685D01*
X-328327Y-65738D01*
X-328398Y-65788D01*
X-328472Y-65834D01*
X-328548Y-65878D01*
X-328626Y-65917D01*
X-328706Y-65953D01*
X-328787Y-65986D01*
X-328869Y-66015D01*
X-328953Y-66040D01*
X-329038Y-66061D01*
X-329123Y-66079D01*
X-329210Y-66092D01*
X-329296Y-66102D01*
X-329384Y-66108D01*
X-329471Y-66110D01*
X-329471Y-66111D02*
X-332717Y-66111D01*
X-332717Y-66110D02*
X-332818Y-66108D01*
X-332918Y-66102D01*
X-333018Y-66092D01*
X-333118Y-66079D01*
X-333217Y-66061D01*
X-333316Y-66040D01*
X-333413Y-66015D01*
X-333510Y-65986D01*
X-333605Y-65953D01*
X-333699Y-65917D01*
X-333791Y-65877D01*
X-333882Y-65834D01*
X-333971Y-65787D01*
X-334058Y-65737D01*
X-334144Y-65683D01*
X-334227Y-65626D01*
X-334307Y-65566D01*
X-334386Y-65503D01*
X-334462Y-65436D01*
X-334535Y-65367D01*
X-334605Y-65295D01*
X-334673Y-65221D01*
X-334738Y-65144D01*
X-334799Y-65064D01*
X-334858Y-64982D01*
X-334913Y-64898D01*
X-334965Y-64812D01*
X-335014Y-64724D01*
X-335059Y-64634D01*
X-335101Y-64542D01*
X-335139Y-64449D01*
X-335173Y-64354D01*
X-335204Y-64259D01*
X-335231Y-64162D01*
X-335254Y-64064D01*
X-335274Y-63965D01*
X-335289Y-63865D01*
X-335301Y-63765D01*
X-335309Y-63665D01*
X-335313Y-63564D01*
X-335313Y-63464D01*
X-335309Y-63363D01*
X-335301Y-63263D01*
X-335289Y-63163D01*
X-335274Y-63063D01*
X-335254Y-62964D01*
X-335231Y-62866D01*
X-335204Y-62769D01*
X-335173Y-62674D01*
X-335139Y-62579D01*
X-335101Y-62486D01*
X-335059Y-62394D01*
X-335014Y-62304D01*
X-334965Y-62216D01*
X-334913Y-62130D01*
X-334858Y-62046D01*
X-334799Y-61964D01*
X-334738Y-61884D01*
X-334673Y-61807D01*
X-334605Y-61733D01*
X-334535Y-61661D01*
X-334462Y-61592D01*
X-334386Y-61525D01*
X-334307Y-61462D01*
X-334227Y-61402D01*
X-334144Y-61345D01*
X-334058Y-61291D01*
X-333971Y-61241D01*
X-333882Y-61194D01*
X-333791Y-61151D01*
X-333699Y-61111D01*
X-333605Y-61075D01*
X-333510Y-61042D01*
X-333413Y-61013D01*
X-333316Y-60988D01*
X-333217Y-60967D01*
X-333118Y-60949D01*
X-333018Y-60936D01*
X-332918Y-60926D01*
X-332818Y-60920D01*
X-332717Y-60918D01*
X-331418Y-60918D01*
X-331418Y-66111D01*
X-329471Y-56055D02*
X-339208Y-56055D01*
X-329471Y-56055D02*
X-329384Y-56053D01*
X-329296Y-56047D01*
X-329210Y-56037D01*
X-329123Y-56024D01*
X-329038Y-56006D01*
X-328953Y-55985D01*
X-328869Y-55960D01*
X-328787Y-55931D01*
X-328706Y-55898D01*
X-328626Y-55862D01*
X-328548Y-55823D01*
X-328472Y-55779D01*
X-328398Y-55733D01*
X-328327Y-55683D01*
X-328257Y-55630D01*
X-328190Y-55574D01*
X-328126Y-55515D01*
X-328064Y-55453D01*
X-328005Y-55389D01*
X-327949Y-55322D01*
X-327896Y-55252D01*
X-327846Y-55181D01*
X-327800Y-55107D01*
X-327756Y-55031D01*
X-327717Y-54953D01*
X-327681Y-54873D01*
X-327648Y-54792D01*
X-327619Y-54710D01*
X-327594Y-54626D01*
X-327573Y-54541D01*
X-327555Y-54456D01*
X-327542Y-54369D01*
X-327532Y-54283D01*
X-327526Y-54195D01*
X-327524Y-54108D01*
X-329471Y-49959D02*
X-339208Y-49959D01*
X-329471Y-49959D02*
X-329384Y-49957D01*
X-329296Y-49951D01*
X-329210Y-49941D01*
X-329123Y-49928D01*
X-329038Y-49910D01*
X-328953Y-49889D01*
X-328869Y-49864D01*
X-328787Y-49835D01*
X-328706Y-49802D01*
X-328626Y-49766D01*
X-328548Y-49727D01*
X-328472Y-49683D01*
X-328398Y-49637D01*
X-328327Y-49587D01*
X-328257Y-49534D01*
X-328190Y-49478D01*
X-328126Y-49419D01*
X-328064Y-49357D01*
X-328005Y-49293D01*
X-327949Y-49226D01*
X-327896Y-49156D01*
X-327846Y-49085D01*
X-327800Y-49011D01*
X-327756Y-48935D01*
X-327717Y-48857D01*
X-327681Y-48777D01*
X-327648Y-48696D01*
X-327619Y-48614D01*
X-327594Y-48530D01*
X-327573Y-48445D01*
X-327555Y-48360D01*
X-327542Y-48273D01*
X-327532Y-48187D01*
X-327526Y-48099D01*
X-327524Y-48012D01*
X-323629Y-44394D02*
X-323629Y-43096D01*
X-335313Y-39201D01*
X-335313Y-44394D02*
X-327524Y-41797D01*
X-327524Y-28256D02*
X-327524Y-23063D01*
X-327524Y-28256D02*
X-339208Y-28256D01*
X-339208Y-23063D01*
X-334015Y-24362D02*
X-334015Y-28256D01*
X-335313Y-18486D02*
X-327524Y-18486D01*
X-335313Y-18486D02*
X-335313Y-15240D01*
X-335311Y-15153D01*
X-335305Y-15065D01*
X-335295Y-14979D01*
X-335282Y-14892D01*
X-335264Y-14807D01*
X-335243Y-14722D01*
X-335218Y-14638D01*
X-335189Y-14556D01*
X-335156Y-14475D01*
X-335120Y-14395D01*
X-335081Y-14317D01*
X-335037Y-14241D01*
X-334991Y-14167D01*
X-334941Y-14096D01*
X-334888Y-14026D01*
X-334832Y-13959D01*
X-334773Y-13895D01*
X-334712Y-13833D01*
X-334647Y-13774D01*
X-334580Y-13718D01*
X-334510Y-13665D01*
X-334439Y-13615D01*
X-334365Y-13569D01*
X-334289Y-13526D01*
X-334211Y-13486D01*
X-334131Y-13450D01*
X-334050Y-13417D01*
X-333968Y-13388D01*
X-333884Y-13363D01*
X-333799Y-13342D01*
X-333714Y-13324D01*
X-333627Y-13311D01*
X-333541Y-13301D01*
X-333453Y-13295D01*
X-333366Y-13293D01*
X-327524Y-13293D01*
X-327524Y-6238D02*
X-327524Y-3642D01*
X-327524Y-6238D02*
X-327526Y-6325D01*
X-327532Y-6413D01*
X-327542Y-6499D01*
X-327555Y-6586D01*
X-327573Y-6671D01*
X-327594Y-6756D01*
X-327619Y-6840D01*
X-327648Y-6922D01*
X-327681Y-7003D01*
X-327717Y-7083D01*
X-327756Y-7161D01*
X-327800Y-7237D01*
X-327846Y-7311D01*
X-327896Y-7382D01*
X-327949Y-7452D01*
X-328005Y-7519D01*
X-328064Y-7583D01*
X-328126Y-7645D01*
X-328190Y-7704D01*
X-328257Y-7760D01*
X-328327Y-7813D01*
X-328398Y-7863D01*
X-328472Y-7909D01*
X-328548Y-7953D01*
X-328626Y-7992D01*
X-328706Y-8028D01*
X-328787Y-8061D01*
X-328869Y-8090D01*
X-328953Y-8115D01*
X-329038Y-8136D01*
X-329123Y-8154D01*
X-329210Y-8167D01*
X-329296Y-8177D01*
X-329384Y-8183D01*
X-329471Y-8185D01*
X-329471Y-8186D02*
X-333366Y-8186D01*
X-333366Y-8185D02*
X-333453Y-8183D01*
X-333541Y-8177D01*
X-333627Y-8167D01*
X-333714Y-8154D01*
X-333799Y-8136D01*
X-333884Y-8115D01*
X-333968Y-8090D01*
X-334050Y-8061D01*
X-334131Y-8028D01*
X-334211Y-7992D01*
X-334289Y-7953D01*
X-334365Y-7909D01*
X-334439Y-7863D01*
X-334510Y-7813D01*
X-334580Y-7760D01*
X-334647Y-7704D01*
X-334711Y-7645D01*
X-334773Y-7583D01*
X-334832Y-7519D01*
X-334888Y-7452D01*
X-334941Y-7382D01*
X-334991Y-7311D01*
X-335037Y-7237D01*
X-335081Y-7161D01*
X-335120Y-7083D01*
X-335156Y-7003D01*
X-335189Y-6922D01*
X-335218Y-6840D01*
X-335243Y-6756D01*
X-335264Y-6671D01*
X-335282Y-6586D01*
X-335295Y-6499D01*
X-335305Y-6413D01*
X-335311Y-6325D01*
X-335313Y-6238D01*
X-335313Y-3642D01*
X-332717Y564D02*
X-330120Y564D01*
X-332717Y565D02*
X-332818Y567D01*
X-332918Y573D01*
X-333018Y583D01*
X-333118Y596D01*
X-333217Y614D01*
X-333316Y635D01*
X-333413Y660D01*
X-333510Y689D01*
X-333605Y722D01*
X-333699Y758D01*
X-333791Y798D01*
X-333882Y841D01*
X-333971Y888D01*
X-334058Y938D01*
X-334144Y992D01*
X-334227Y1049D01*
X-334307Y1109D01*
X-334386Y1172D01*
X-334462Y1239D01*
X-334535Y1308D01*
X-334605Y1380D01*
X-334673Y1454D01*
X-334738Y1531D01*
X-334799Y1611D01*
X-334858Y1693D01*
X-334913Y1777D01*
X-334965Y1863D01*
X-335014Y1951D01*
X-335059Y2041D01*
X-335101Y2133D01*
X-335139Y2226D01*
X-335173Y2321D01*
X-335204Y2416D01*
X-335231Y2513D01*
X-335254Y2611D01*
X-335274Y2710D01*
X-335289Y2810D01*
X-335301Y2910D01*
X-335309Y3010D01*
X-335313Y3111D01*
X-335313Y3211D01*
X-335309Y3312D01*
X-335301Y3412D01*
X-335289Y3512D01*
X-335274Y3612D01*
X-335254Y3711D01*
X-335231Y3809D01*
X-335204Y3906D01*
X-335173Y4001D01*
X-335139Y4096D01*
X-335101Y4189D01*
X-335059Y4281D01*
X-335014Y4371D01*
X-334965Y4459D01*
X-334913Y4545D01*
X-334858Y4629D01*
X-334799Y4711D01*
X-334738Y4791D01*
X-334673Y4868D01*
X-334605Y4942D01*
X-334535Y5014D01*
X-334462Y5083D01*
X-334386Y5150D01*
X-334307Y5213D01*
X-334227Y5273D01*
X-334144Y5330D01*
X-334058Y5384D01*
X-333971Y5434D01*
X-333882Y5481D01*
X-333791Y5524D01*
X-333699Y5564D01*
X-333605Y5600D01*
X-333510Y5633D01*
X-333413Y5662D01*
X-333316Y5687D01*
X-333217Y5708D01*
X-333118Y5726D01*
X-333018Y5739D01*
X-332918Y5749D01*
X-332818Y5755D01*
X-332717Y5757D01*
X-330120Y5757D01*
X-330019Y5755D01*
X-329919Y5749D01*
X-329819Y5739D01*
X-329719Y5726D01*
X-329620Y5708D01*
X-329521Y5687D01*
X-329424Y5662D01*
X-329327Y5633D01*
X-329232Y5600D01*
X-329138Y5564D01*
X-329046Y5524D01*
X-328955Y5481D01*
X-328866Y5434D01*
X-328779Y5384D01*
X-328693Y5330D01*
X-328610Y5273D01*
X-328530Y5213D01*
X-328451Y5150D01*
X-328375Y5083D01*
X-328302Y5014D01*
X-328232Y4942D01*
X-328164Y4868D01*
X-328099Y4791D01*
X-328038Y4711D01*
X-327979Y4629D01*
X-327924Y4545D01*
X-327872Y4459D01*
X-327823Y4371D01*
X-327778Y4281D01*
X-327736Y4189D01*
X-327698Y4096D01*
X-327664Y4001D01*
X-327633Y3906D01*
X-327606Y3809D01*
X-327583Y3711D01*
X-327563Y3612D01*
X-327548Y3512D01*
X-327536Y3412D01*
X-327528Y3312D01*
X-327524Y3211D01*
X-327524Y3111D01*
X-327528Y3010D01*
X-327536Y2910D01*
X-327548Y2810D01*
X-327563Y2710D01*
X-327583Y2611D01*
X-327606Y2513D01*
X-327633Y2416D01*
X-327664Y2321D01*
X-327698Y2226D01*
X-327736Y2133D01*
X-327778Y2041D01*
X-327823Y1951D01*
X-327872Y1863D01*
X-327924Y1777D01*
X-327979Y1693D01*
X-328038Y1611D01*
X-328099Y1531D01*
X-328164Y1454D01*
X-328232Y1380D01*
X-328302Y1308D01*
X-328375Y1239D01*
X-328451Y1172D01*
X-328530Y1109D01*
X-328610Y1049D01*
X-328693Y992D01*
X-328779Y938D01*
X-328866Y888D01*
X-328955Y841D01*
X-329046Y798D01*
X-329138Y758D01*
X-329232Y722D01*
X-329327Y689D01*
X-329424Y660D01*
X-329521Y635D01*
X-329620Y614D01*
X-329719Y596D01*
X-329819Y583D01*
X-329919Y573D01*
X-330019Y567D01*
X-330120Y565D01*
X-327524Y15604D02*
X-339208Y15604D01*
X-327524Y15604D02*
X-327524Y12359D01*
X-327526Y12272D01*
X-327532Y12184D01*
X-327542Y12098D01*
X-327555Y12011D01*
X-327573Y11926D01*
X-327594Y11841D01*
X-327619Y11757D01*
X-327648Y11675D01*
X-327681Y11594D01*
X-327717Y11514D01*
X-327756Y11436D01*
X-327800Y11360D01*
X-327846Y11286D01*
X-327896Y11215D01*
X-327949Y11145D01*
X-328005Y11078D01*
X-328064Y11014D01*
X-328126Y10952D01*
X-328190Y10893D01*
X-328257Y10837D01*
X-328327Y10784D01*
X-328398Y10734D01*
X-328472Y10688D01*
X-328548Y10644D01*
X-328626Y10605D01*
X-328706Y10569D01*
X-328787Y10536D01*
X-328869Y10507D01*
X-328953Y10482D01*
X-329038Y10461D01*
X-329123Y10443D01*
X-329210Y10430D01*
X-329296Y10420D01*
X-329384Y10414D01*
X-329471Y10412D01*
X-329471Y10411D02*
X-333366Y10411D01*
X-333366Y10412D02*
X-333453Y10414D01*
X-333541Y10420D01*
X-333627Y10430D01*
X-333714Y10443D01*
X-333799Y10461D01*
X-333884Y10482D01*
X-333968Y10507D01*
X-334050Y10536D01*
X-334131Y10569D01*
X-334211Y10605D01*
X-334289Y10644D01*
X-334365Y10688D01*
X-334439Y10734D01*
X-334510Y10784D01*
X-334580Y10837D01*
X-334647Y10893D01*
X-334711Y10952D01*
X-334773Y11014D01*
X-334832Y11078D01*
X-334888Y11145D01*
X-334941Y11215D01*
X-334991Y11286D01*
X-335037Y11360D01*
X-335081Y11436D01*
X-335120Y11514D01*
X-335156Y11594D01*
X-335189Y11675D01*
X-335218Y11757D01*
X-335243Y11841D01*
X-335264Y11926D01*
X-335282Y12011D01*
X-335295Y12098D01*
X-335305Y12184D01*
X-335311Y12272D01*
X-335313Y12359D01*
X-335313Y15604D01*
X-327524Y22704D02*
X-327524Y25950D01*
X-327524Y22704D02*
X-327526Y22617D01*
X-327532Y22529D01*
X-327542Y22443D01*
X-327555Y22356D01*
X-327573Y22271D01*
X-327594Y22186D01*
X-327619Y22102D01*
X-327648Y22020D01*
X-327681Y21939D01*
X-327717Y21859D01*
X-327756Y21781D01*
X-327800Y21705D01*
X-327846Y21631D01*
X-327896Y21560D01*
X-327949Y21490D01*
X-328005Y21423D01*
X-328064Y21359D01*
X-328126Y21297D01*
X-328190Y21238D01*
X-328257Y21182D01*
X-328327Y21129D01*
X-328398Y21079D01*
X-328472Y21033D01*
X-328548Y20989D01*
X-328626Y20950D01*
X-328706Y20914D01*
X-328787Y20881D01*
X-328869Y20852D01*
X-328953Y20827D01*
X-329038Y20806D01*
X-329123Y20788D01*
X-329210Y20775D01*
X-329296Y20765D01*
X-329384Y20759D01*
X-329471Y20757D01*
X-332717Y20757D01*
X-332717Y20758D02*
X-332818Y20760D01*
X-332918Y20766D01*
X-333018Y20776D01*
X-333118Y20789D01*
X-333217Y20807D01*
X-333316Y20828D01*
X-333413Y20853D01*
X-333510Y20882D01*
X-333605Y20915D01*
X-333699Y20951D01*
X-333791Y20991D01*
X-333882Y21034D01*
X-333971Y21081D01*
X-334058Y21131D01*
X-334144Y21185D01*
X-334227Y21242D01*
X-334307Y21302D01*
X-334386Y21365D01*
X-334462Y21432D01*
X-334535Y21501D01*
X-334605Y21573D01*
X-334673Y21647D01*
X-334738Y21724D01*
X-334799Y21804D01*
X-334858Y21886D01*
X-334913Y21970D01*
X-334965Y22056D01*
X-335014Y22144D01*
X-335059Y22234D01*
X-335101Y22326D01*
X-335139Y22419D01*
X-335173Y22514D01*
X-335204Y22609D01*
X-335231Y22706D01*
X-335254Y22804D01*
X-335274Y22903D01*
X-335289Y23003D01*
X-335301Y23103D01*
X-335309Y23203D01*
X-335313Y23304D01*
X-335313Y23404D01*
X-335309Y23505D01*
X-335301Y23605D01*
X-335289Y23705D01*
X-335274Y23805D01*
X-335254Y23904D01*
X-335231Y24002D01*
X-335204Y24099D01*
X-335173Y24194D01*
X-335139Y24289D01*
X-335101Y24382D01*
X-335059Y24474D01*
X-335014Y24564D01*
X-334965Y24652D01*
X-334913Y24738D01*
X-334858Y24822D01*
X-334799Y24904D01*
X-334738Y24984D01*
X-334673Y25061D01*
X-334605Y25135D01*
X-334535Y25207D01*
X-334462Y25276D01*
X-334386Y25343D01*
X-334307Y25406D01*
X-334227Y25466D01*
X-334144Y25523D01*
X-334058Y25577D01*
X-333971Y25627D01*
X-333882Y25674D01*
X-333791Y25717D01*
X-333699Y25757D01*
X-333605Y25793D01*
X-333510Y25826D01*
X-333413Y25855D01*
X-333316Y25880D01*
X-333217Y25901D01*
X-333118Y25919D01*
X-333018Y25932D01*
X-332918Y25942D01*
X-332818Y25948D01*
X-332717Y25950D01*
X-331418Y25950D01*
X-331418Y20757D01*
X-327524Y31111D02*
X-335313Y31111D01*
X-335313Y35005D01*
X-334015Y35005D01*
X-334015Y45423D02*
X-334015Y48669D01*
X-334013Y48782D01*
X-334007Y48895D01*
X-333997Y49008D01*
X-333983Y49121D01*
X-333966Y49233D01*
X-333944Y49344D01*
X-333919Y49454D01*
X-333889Y49564D01*
X-333856Y49672D01*
X-333819Y49779D01*
X-333779Y49885D01*
X-333734Y49989D01*
X-333686Y50092D01*
X-333635Y50193D01*
X-333580Y50292D01*
X-333522Y50389D01*
X-333460Y50484D01*
X-333395Y50577D01*
X-333327Y50667D01*
X-333256Y50755D01*
X-333181Y50841D01*
X-333104Y50924D01*
X-333024Y51004D01*
X-332941Y51081D01*
X-332855Y51156D01*
X-332767Y51227D01*
X-332677Y51295D01*
X-332584Y51360D01*
X-332489Y51422D01*
X-332392Y51480D01*
X-332293Y51535D01*
X-332192Y51586D01*
X-332089Y51634D01*
X-331985Y51679D01*
X-331879Y51719D01*
X-331772Y51756D01*
X-331664Y51789D01*
X-331554Y51819D01*
X-331444Y51844D01*
X-331333Y51866D01*
X-331221Y51883D01*
X-331108Y51897D01*
X-330995Y51907D01*
X-330882Y51913D01*
X-330769Y51915D01*
X-330656Y51913D01*
X-330543Y51907D01*
X-330430Y51897D01*
X-330317Y51883D01*
X-330205Y51866D01*
X-330094Y51844D01*
X-329984Y51819D01*
X-329874Y51789D01*
X-329766Y51756D01*
X-329659Y51719D01*
X-329553Y51679D01*
X-329449Y51634D01*
X-329346Y51586D01*
X-329245Y51535D01*
X-329146Y51480D01*
X-329049Y51422D01*
X-328954Y51360D01*
X-328861Y51295D01*
X-328771Y51227D01*
X-328683Y51156D01*
X-328597Y51081D01*
X-328514Y51004D01*
X-328434Y50924D01*
X-328357Y50841D01*
X-328282Y50755D01*
X-328211Y50667D01*
X-328143Y50577D01*
X-328078Y50484D01*
X-328016Y50389D01*
X-327958Y50292D01*
X-327903Y50193D01*
X-327852Y50092D01*
X-327804Y49989D01*
X-327759Y49885D01*
X-327719Y49779D01*
X-327682Y49672D01*
X-327649Y49564D01*
X-327619Y49454D01*
X-327594Y49344D01*
X-327572Y49233D01*
X-327555Y49121D01*
X-327541Y49008D01*
X-327531Y48895D01*
X-327525Y48782D01*
X-327523Y48669D01*
X-327524Y48669D02*
X-327524Y45423D01*
X-339208Y45423D01*
X-339208Y48669D01*
X-339207Y48669D02*
X-339205Y48770D01*
X-339199Y48870D01*
X-339189Y48970D01*
X-339176Y49070D01*
X-339158Y49169D01*
X-339137Y49268D01*
X-339112Y49365D01*
X-339083Y49462D01*
X-339050Y49557D01*
X-339014Y49651D01*
X-338974Y49743D01*
X-338931Y49834D01*
X-338884Y49923D01*
X-338834Y50010D01*
X-338780Y50096D01*
X-338723Y50179D01*
X-338663Y50259D01*
X-338600Y50338D01*
X-338533Y50414D01*
X-338464Y50487D01*
X-338392Y50557D01*
X-338318Y50625D01*
X-338241Y50690D01*
X-338161Y50751D01*
X-338079Y50810D01*
X-337995Y50865D01*
X-337909Y50917D01*
X-337821Y50966D01*
X-337731Y51011D01*
X-337639Y51053D01*
X-337546Y51091D01*
X-337451Y51125D01*
X-337356Y51156D01*
X-337259Y51183D01*
X-337161Y51206D01*
X-337062Y51226D01*
X-336962Y51241D01*
X-336862Y51253D01*
X-336762Y51261D01*
X-336661Y51265D01*
X-336561Y51265D01*
X-336460Y51261D01*
X-336360Y51253D01*
X-336260Y51241D01*
X-336160Y51226D01*
X-336061Y51206D01*
X-335963Y51183D01*
X-335866Y51156D01*
X-335771Y51125D01*
X-335676Y51091D01*
X-335583Y51053D01*
X-335491Y51011D01*
X-335401Y50966D01*
X-335313Y50917D01*
X-335227Y50865D01*
X-335143Y50810D01*
X-335061Y50751D01*
X-334981Y50690D01*
X-334904Y50625D01*
X-334830Y50557D01*
X-334758Y50487D01*
X-334689Y50414D01*
X-334622Y50338D01*
X-334559Y50259D01*
X-334499Y50179D01*
X-334442Y50096D01*
X-334388Y50010D01*
X-334338Y49923D01*
X-334291Y49834D01*
X-334248Y49743D01*
X-334208Y49651D01*
X-334172Y49557D01*
X-334139Y49462D01*
X-334110Y49365D01*
X-334085Y49268D01*
X-334064Y49169D01*
X-334046Y49070D01*
X-334033Y48970D01*
X-334023Y48870D01*
X-334017Y48770D01*
X-334015Y48669D01*
X-332717Y56190D02*
X-330120Y56190D01*
X-332717Y56191D02*
X-332818Y56193D01*
X-332918Y56199D01*
X-333018Y56209D01*
X-333118Y56222D01*
X-333217Y56240D01*
X-333316Y56261D01*
X-333413Y56286D01*
X-333510Y56315D01*
X-333605Y56348D01*
X-333699Y56384D01*
X-333791Y56424D01*
X-333882Y56467D01*
X-333971Y56514D01*
X-334058Y56564D01*
X-334144Y56618D01*
X-334227Y56675D01*
X-334307Y56735D01*
X-334386Y56798D01*
X-334462Y56865D01*
X-334535Y56934D01*
X-334605Y57006D01*
X-334673Y57080D01*
X-334738Y57157D01*
X-334799Y57237D01*
X-334858Y57319D01*
X-334913Y57403D01*
X-334965Y57489D01*
X-335014Y57577D01*
X-335059Y57667D01*
X-335101Y57759D01*
X-335139Y57852D01*
X-335173Y57947D01*
X-335204Y58042D01*
X-335231Y58139D01*
X-335254Y58237D01*
X-335274Y58336D01*
X-335289Y58436D01*
X-335301Y58536D01*
X-335309Y58636D01*
X-335313Y58737D01*
X-335313Y58837D01*
X-335309Y58938D01*
X-335301Y59038D01*
X-335289Y59138D01*
X-335274Y59238D01*
X-335254Y59337D01*
X-335231Y59435D01*
X-335204Y59532D01*
X-335173Y59627D01*
X-335139Y59722D01*
X-335101Y59815D01*
X-335059Y59907D01*
X-335014Y59997D01*
X-334965Y60085D01*
X-334913Y60171D01*
X-334858Y60255D01*
X-334799Y60337D01*
X-334738Y60417D01*
X-334673Y60494D01*
X-334605Y60568D01*
X-334535Y60640D01*
X-334462Y60709D01*
X-334386Y60776D01*
X-334307Y60839D01*
X-334227Y60899D01*
X-334144Y60956D01*
X-334058Y61010D01*
X-333971Y61060D01*
X-333882Y61107D01*
X-333791Y61150D01*
X-333699Y61190D01*
X-333605Y61226D01*
X-333510Y61259D01*
X-333413Y61288D01*
X-333316Y61313D01*
X-333217Y61334D01*
X-333118Y61352D01*
X-333018Y61365D01*
X-332918Y61375D01*
X-332818Y61381D01*
X-332717Y61383D01*
X-330120Y61383D01*
X-330019Y61381D01*
X-329919Y61375D01*
X-329819Y61365D01*
X-329719Y61352D01*
X-329620Y61334D01*
X-329521Y61313D01*
X-329424Y61288D01*
X-329327Y61259D01*
X-329232Y61226D01*
X-329138Y61190D01*
X-329046Y61150D01*
X-328955Y61107D01*
X-328866Y61060D01*
X-328779Y61010D01*
X-328693Y60956D01*
X-328610Y60899D01*
X-328530Y60839D01*
X-328451Y60776D01*
X-328375Y60709D01*
X-328302Y60640D01*
X-328232Y60568D01*
X-328164Y60494D01*
X-328099Y60417D01*
X-328038Y60337D01*
X-327979Y60255D01*
X-327924Y60171D01*
X-327872Y60085D01*
X-327823Y59997D01*
X-327778Y59907D01*
X-327736Y59815D01*
X-327698Y59722D01*
X-327664Y59627D01*
X-327633Y59532D01*
X-327606Y59435D01*
X-327583Y59337D01*
X-327563Y59238D01*
X-327548Y59138D01*
X-327536Y59038D01*
X-327528Y58938D01*
X-327524Y58837D01*
X-327524Y58737D01*
X-327528Y58636D01*
X-327536Y58536D01*
X-327548Y58436D01*
X-327563Y58336D01*
X-327583Y58237D01*
X-327606Y58139D01*
X-327633Y58042D01*
X-327664Y57947D01*
X-327698Y57852D01*
X-327736Y57759D01*
X-327778Y57667D01*
X-327823Y57577D01*
X-327872Y57489D01*
X-327924Y57403D01*
X-327979Y57319D01*
X-328038Y57237D01*
X-328099Y57157D01*
X-328164Y57080D01*
X-328232Y57006D01*
X-328302Y56934D01*
X-328375Y56865D01*
X-328451Y56798D01*
X-328530Y56735D01*
X-328610Y56675D01*
X-328693Y56618D01*
X-328779Y56564D01*
X-328866Y56514D01*
X-328955Y56467D01*
X-329046Y56424D01*
X-329138Y56384D01*
X-329232Y56348D01*
X-329327Y56315D01*
X-329424Y56286D01*
X-329521Y56261D01*
X-329620Y56240D01*
X-329719Y56222D01*
X-329819Y56209D01*
X-329919Y56199D01*
X-330019Y56193D01*
X-330120Y56191D01*
X-332068Y68309D02*
X-332068Y71230D01*
X-332068Y68309D02*
X-332066Y68215D01*
X-332060Y68121D01*
X-332051Y68028D01*
X-332037Y67935D01*
X-332020Y67843D01*
X-331998Y67751D01*
X-331974Y67661D01*
X-331945Y67571D01*
X-331913Y67483D01*
X-331877Y67396D01*
X-331837Y67311D01*
X-331794Y67228D01*
X-331748Y67146D01*
X-331698Y67066D01*
X-331645Y66989D01*
X-331589Y66914D01*
X-331530Y66841D01*
X-331468Y66770D01*
X-331403Y66702D01*
X-331335Y66637D01*
X-331264Y66575D01*
X-331191Y66516D01*
X-331116Y66460D01*
X-331039Y66407D01*
X-330959Y66357D01*
X-330877Y66311D01*
X-330794Y66268D01*
X-330709Y66228D01*
X-330622Y66192D01*
X-330534Y66160D01*
X-330444Y66131D01*
X-330354Y66107D01*
X-330262Y66085D01*
X-330170Y66068D01*
X-330077Y66054D01*
X-329984Y66045D01*
X-329890Y66039D01*
X-329796Y66037D01*
X-329702Y66039D01*
X-329608Y66045D01*
X-329515Y66054D01*
X-329422Y66068D01*
X-329330Y66085D01*
X-329238Y66107D01*
X-329148Y66131D01*
X-329058Y66160D01*
X-328970Y66192D01*
X-328883Y66228D01*
X-328798Y66268D01*
X-328715Y66311D01*
X-328633Y66357D01*
X-328553Y66407D01*
X-328476Y66460D01*
X-328401Y66516D01*
X-328328Y66575D01*
X-328257Y66637D01*
X-328189Y66702D01*
X-328124Y66770D01*
X-328062Y66841D01*
X-328003Y66914D01*
X-327947Y66989D01*
X-327894Y67066D01*
X-327844Y67146D01*
X-327798Y67228D01*
X-327755Y67311D01*
X-327715Y67396D01*
X-327679Y67483D01*
X-327647Y67571D01*
X-327618Y67661D01*
X-327594Y67751D01*
X-327572Y67843D01*
X-327555Y67935D01*
X-327541Y68028D01*
X-327532Y68121D01*
X-327526Y68215D01*
X-327524Y68309D01*
X-327524Y71230D01*
X-333366Y71230D01*
X-333453Y71228D01*
X-333541Y71222D01*
X-333627Y71212D01*
X-333714Y71199D01*
X-333799Y71181D01*
X-333884Y71160D01*
X-333968Y71135D01*
X-334050Y71106D01*
X-334131Y71073D01*
X-334211Y71037D01*
X-334289Y70998D01*
X-334365Y70954D01*
X-334439Y70908D01*
X-334510Y70858D01*
X-334580Y70805D01*
X-334647Y70749D01*
X-334711Y70690D01*
X-334773Y70628D01*
X-334832Y70564D01*
X-334888Y70497D01*
X-334941Y70427D01*
X-334991Y70356D01*
X-335037Y70282D01*
X-335081Y70206D01*
X-335120Y70128D01*
X-335156Y70048D01*
X-335189Y69967D01*
X-335218Y69885D01*
X-335243Y69801D01*
X-335264Y69716D01*
X-335282Y69631D01*
X-335295Y69544D01*
X-335305Y69458D01*
X-335311Y69370D01*
X-335313Y69283D01*
X-335313Y66686D01*
X-335313Y76830D02*
X-327524Y76830D01*
X-335313Y76830D02*
X-335313Y80725D01*
X-334015Y80725D01*
X-339208Y89518D02*
X-327524Y89518D01*
X-327524Y86272D01*
X-327526Y86185D01*
X-327532Y86097D01*
X-327542Y86011D01*
X-327555Y85924D01*
X-327573Y85839D01*
X-327594Y85754D01*
X-327619Y85670D01*
X-327648Y85588D01*
X-327681Y85507D01*
X-327717Y85427D01*
X-327756Y85349D01*
X-327800Y85273D01*
X-327846Y85199D01*
X-327896Y85128D01*
X-327949Y85058D01*
X-328005Y84991D01*
X-328064Y84927D01*
X-328126Y84865D01*
X-328190Y84806D01*
X-328257Y84750D01*
X-328327Y84697D01*
X-328398Y84647D01*
X-328472Y84601D01*
X-328548Y84557D01*
X-328626Y84518D01*
X-328706Y84482D01*
X-328787Y84449D01*
X-328869Y84420D01*
X-328953Y84395D01*
X-329038Y84374D01*
X-329123Y84356D01*
X-329210Y84343D01*
X-329296Y84333D01*
X-329384Y84327D01*
X-329471Y84325D01*
X-333366Y84325D01*
X-333453Y84327D01*
X-333541Y84333D01*
X-333627Y84343D01*
X-333714Y84356D01*
X-333799Y84374D01*
X-333884Y84395D01*
X-333968Y84420D01*
X-334050Y84449D01*
X-334131Y84482D01*
X-334211Y84518D01*
X-334289Y84557D01*
X-334365Y84601D01*
X-334439Y84647D01*
X-334510Y84697D01*
X-334580Y84750D01*
X-334647Y84806D01*
X-334711Y84865D01*
X-334773Y84927D01*
X-334832Y84991D01*
X-334888Y85058D01*
X-334941Y85128D01*
X-334991Y85199D01*
X-335037Y85273D01*
X-335081Y85349D01*
X-335120Y85427D01*
X-335156Y85507D01*
X-335189Y85588D01*
X-335218Y85670D01*
X-335243Y85754D01*
X-335264Y85839D01*
X-335282Y85924D01*
X-335295Y86011D01*
X-335305Y86097D01*
X-335311Y86185D01*
X-335313Y86272D01*
X-335313Y89518D01*
X175864Y-151677D02*
X183734Y-156221D01*
X183819Y-156272D01*
X183902Y-156327D01*
X183983Y-156384D01*
X184062Y-156445D01*
X184138Y-156509D01*
X184212Y-156576D01*
X184283Y-156645D01*
X184352Y-156717D01*
X184418Y-156792D01*
X184480Y-156869D01*
X184540Y-156948D01*
X184597Y-157030D01*
X184650Y-157114D01*
X184701Y-157200D01*
X184748Y-157287D01*
X184791Y-157377D01*
X184831Y-157468D01*
X184868Y-157560D01*
X184901Y-157654D01*
X184930Y-157749D01*
X184956Y-157845D01*
X184978Y-157942D01*
X184996Y-158040D01*
X185011Y-158138D01*
X185022Y-158237D01*
X185029Y-158336D01*
X185032Y-158436D01*
X185031Y-158535D01*
X185027Y-158635D01*
X185018Y-158734D01*
X185006Y-158832D01*
X184991Y-158931D01*
X184971Y-159028D01*
X184948Y-159125D01*
X184921Y-159221D01*
X184890Y-159315D01*
X184856Y-159409D01*
X184818Y-159501D01*
X184777Y-159591D01*
X184732Y-159680D01*
X184684Y-159767D01*
X184685Y-159768D02*
X184036Y-160892D01*
X190376Y-149909D02*
X190424Y-149822D01*
X190469Y-149733D01*
X190510Y-149643D01*
X190548Y-149551D01*
X190582Y-149457D01*
X190613Y-149363D01*
X190640Y-149267D01*
X190663Y-149170D01*
X190683Y-149073D01*
X190698Y-148974D01*
X190710Y-148876D01*
X190719Y-148777D01*
X190723Y-148677D01*
X190724Y-148578D01*
X190721Y-148478D01*
X190714Y-148379D01*
X190703Y-148280D01*
X190688Y-148182D01*
X190670Y-148084D01*
X190648Y-147987D01*
X190622Y-147891D01*
X190593Y-147796D01*
X190560Y-147702D01*
X190523Y-147610D01*
X190483Y-147519D01*
X190440Y-147429D01*
X190393Y-147342D01*
X190342Y-147256D01*
X190289Y-147172D01*
X190232Y-147090D01*
X190172Y-147011D01*
X190110Y-146934D01*
X190044Y-146859D01*
X189975Y-146787D01*
X189904Y-146718D01*
X189830Y-146651D01*
X189754Y-146587D01*
X189675Y-146526D01*
X189594Y-146469D01*
X189511Y-146414D01*
X189426Y-146363D01*
X190376Y-149910D02*
X190302Y-150034D01*
X190225Y-150156D01*
X190145Y-150276D01*
X190062Y-150393D01*
X189975Y-150509D01*
X189886Y-150622D01*
X189793Y-150733D01*
X189698Y-150842D01*
X189600Y-150948D01*
X189499Y-151051D01*
X189396Y-151151D01*
X189289Y-151249D01*
X189181Y-151344D01*
X189070Y-151436D01*
X188956Y-151525D01*
X188840Y-151612D01*
X188722Y-151695D01*
X188602Y-151775D01*
X188480Y-151851D01*
X188355Y-151925D01*
X188229Y-151995D01*
X188101Y-152062D01*
X187972Y-152125D01*
X187840Y-152185D01*
X187707Y-152242D01*
X187573Y-152295D01*
X187438Y-152344D01*
X187301Y-152390D01*
X187163Y-152432D01*
X187024Y-152471D01*
X180721Y-148458D02*
X180636Y-148407D01*
X180553Y-148352D01*
X180472Y-148294D01*
X180393Y-148233D01*
X180317Y-148170D01*
X180243Y-148103D01*
X180172Y-148034D01*
X180103Y-147961D01*
X180038Y-147887D01*
X179975Y-147810D01*
X179915Y-147730D01*
X179858Y-147648D01*
X179805Y-147564D01*
X179755Y-147479D01*
X179708Y-147391D01*
X179664Y-147302D01*
X179624Y-147210D01*
X179587Y-147118D01*
X179554Y-147024D01*
X179525Y-146929D01*
X179499Y-146833D01*
X179477Y-146736D01*
X179459Y-146638D01*
X179444Y-146540D01*
X179433Y-146441D01*
X179426Y-146342D01*
X179423Y-146242D01*
X179424Y-146143D01*
X179428Y-146043D01*
X179437Y-145944D01*
X179449Y-145845D01*
X179464Y-145747D01*
X179484Y-145650D01*
X179507Y-145553D01*
X179534Y-145457D01*
X179565Y-145363D01*
X179599Y-145269D01*
X179637Y-145177D01*
X179678Y-145087D01*
X179723Y-144998D01*
X179771Y-144911D01*
X179771Y-144910D02*
X179841Y-144793D01*
X179914Y-144678D01*
X179990Y-144565D01*
X180069Y-144454D01*
X180152Y-144346D01*
X180237Y-144240D01*
X180325Y-144136D01*
X180417Y-144035D01*
X180511Y-143936D01*
X180607Y-143840D01*
X180707Y-143747D01*
X180809Y-143657D01*
X180913Y-143569D01*
X181020Y-143485D01*
X181129Y-143403D01*
X181240Y-143325D01*
X181354Y-143250D01*
X181469Y-143178D01*
X181587Y-143109D01*
X181706Y-143043D01*
X181828Y-142981D01*
X181950Y-142922D01*
X182075Y-142867D01*
X183338Y-148469D02*
X183249Y-148518D01*
X183158Y-148562D01*
X183065Y-148604D01*
X182971Y-148641D01*
X182876Y-148675D01*
X182779Y-148705D01*
X182681Y-148732D01*
X182582Y-148755D01*
X182483Y-148774D01*
X182382Y-148789D01*
X182281Y-148800D01*
X182180Y-148807D01*
X182079Y-148811D01*
X181978Y-148810D01*
X181876Y-148806D01*
X181775Y-148798D01*
X181675Y-148786D01*
X181574Y-148770D01*
X181475Y-148750D01*
X181376Y-148726D01*
X181279Y-148699D01*
X181182Y-148668D01*
X181087Y-148633D01*
X180993Y-148594D01*
X180901Y-148552D01*
X180810Y-148507D01*
X180722Y-148458D01*
X186810Y-146351D02*
X186899Y-146302D01*
X186990Y-146258D01*
X187083Y-146216D01*
X187177Y-146179D01*
X187272Y-146145D01*
X187369Y-146115D01*
X187467Y-146088D01*
X187566Y-146065D01*
X187666Y-146046D01*
X187766Y-146031D01*
X187867Y-146020D01*
X187968Y-146013D01*
X188069Y-146009D01*
X188170Y-146010D01*
X188272Y-146014D01*
X188373Y-146022D01*
X188473Y-146034D01*
X188574Y-146050D01*
X188673Y-146070D01*
X188772Y-146094D01*
X188869Y-146121D01*
X188966Y-146152D01*
X189061Y-146187D01*
X189155Y-146226D01*
X189247Y-146268D01*
X189338Y-146313D01*
X189426Y-146362D01*
X186810Y-146351D02*
X183338Y-148469D01*
X185077Y-135721D02*
X195195Y-141563D01*
X186700Y-132910D02*
X183454Y-138531D01*
X195028Y-132765D02*
X198923Y-126019D01*
X205659Y-123439D02*
X195540Y-117597D01*
X197163Y-114787D01*
X197163Y-114786D02*
X197221Y-114689D01*
X197283Y-114594D01*
X197348Y-114501D01*
X197416Y-114411D01*
X197487Y-114323D01*
X197562Y-114237D01*
X197639Y-114154D01*
X197719Y-114074D01*
X197802Y-113997D01*
X197888Y-113922D01*
X197976Y-113851D01*
X198066Y-113783D01*
X198159Y-113718D01*
X198254Y-113656D01*
X198351Y-113598D01*
X198450Y-113543D01*
X198551Y-113492D01*
X198654Y-113444D01*
X198758Y-113399D01*
X198864Y-113359D01*
X198971Y-113322D01*
X199079Y-113289D01*
X199189Y-113259D01*
X199299Y-113234D01*
X199410Y-113212D01*
X199522Y-113195D01*
X199635Y-113181D01*
X199748Y-113171D01*
X199861Y-113165D01*
X199974Y-113163D01*
X200087Y-113165D01*
X200200Y-113171D01*
X200313Y-113181D01*
X200426Y-113195D01*
X200538Y-113212D01*
X200649Y-113234D01*
X200759Y-113259D01*
X200869Y-113289D01*
X200977Y-113322D01*
X201084Y-113359D01*
X201190Y-113399D01*
X201294Y-113444D01*
X201397Y-113492D01*
X201498Y-113543D01*
X201597Y-113598D01*
X201694Y-113656D01*
X201789Y-113718D01*
X201882Y-113783D01*
X201972Y-113851D01*
X202060Y-113922D01*
X202146Y-113997D01*
X202229Y-114074D01*
X202309Y-114154D01*
X202386Y-114237D01*
X202461Y-114323D01*
X202532Y-114411D01*
X202600Y-114501D01*
X202665Y-114594D01*
X202727Y-114689D01*
X202785Y-114786D01*
X202840Y-114885D01*
X202891Y-114986D01*
X202939Y-115089D01*
X202984Y-115193D01*
X203024Y-115299D01*
X203061Y-115406D01*
X203094Y-115514D01*
X203124Y-115624D01*
X203149Y-115734D01*
X203171Y-115845D01*
X203188Y-115957D01*
X203202Y-116070D01*
X203212Y-116183D01*
X203218Y-116296D01*
X203220Y-116409D01*
X203218Y-116522D01*
X203212Y-116635D01*
X203202Y-116748D01*
X203188Y-116861D01*
X203171Y-116973D01*
X203149Y-117084D01*
X203124Y-117194D01*
X203094Y-117304D01*
X203061Y-117412D01*
X203024Y-117519D01*
X202984Y-117625D01*
X202939Y-117729D01*
X202891Y-117832D01*
X202840Y-117933D01*
X202785Y-118032D01*
X202784Y-118032D02*
X201162Y-120843D01*
X211289Y-113687D02*
X201170Y-107845D01*
X205668Y-110442D02*
X208913Y-104820D01*
X204416Y-102224D02*
X214535Y-108066D01*
X-224963Y-163715D02*
X-232833Y-168258D01*
X-232920Y-168306D01*
X-233009Y-168351D01*
X-233099Y-168392D01*
X-233191Y-168430D01*
X-233285Y-168464D01*
X-233379Y-168495D01*
X-233475Y-168522D01*
X-233572Y-168545D01*
X-233669Y-168565D01*
X-233768Y-168580D01*
X-233866Y-168592D01*
X-233965Y-168601D01*
X-234065Y-168605D01*
X-234164Y-168606D01*
X-234264Y-168603D01*
X-234363Y-168596D01*
X-234462Y-168585D01*
X-234560Y-168570D01*
X-234658Y-168552D01*
X-234755Y-168530D01*
X-234851Y-168504D01*
X-234946Y-168475D01*
X-235040Y-168442D01*
X-235132Y-168405D01*
X-235223Y-168365D01*
X-235313Y-168322D01*
X-235400Y-168275D01*
X-235486Y-168224D01*
X-235570Y-168171D01*
X-235652Y-168114D01*
X-235731Y-168054D01*
X-235808Y-167992D01*
X-235883Y-167926D01*
X-235955Y-167857D01*
X-236024Y-167786D01*
X-236091Y-167712D01*
X-236155Y-167636D01*
X-236215Y-167557D01*
X-236273Y-167476D01*
X-236328Y-167393D01*
X-236379Y-167308D01*
X-236380Y-167308D02*
X-237029Y-166184D01*
X-230688Y-177166D02*
X-230637Y-177251D01*
X-230582Y-177334D01*
X-230525Y-177415D01*
X-230464Y-177494D01*
X-230400Y-177570D01*
X-230333Y-177644D01*
X-230264Y-177715D01*
X-230192Y-177784D01*
X-230117Y-177850D01*
X-230040Y-177912D01*
X-229961Y-177972D01*
X-229879Y-178029D01*
X-229795Y-178082D01*
X-229709Y-178133D01*
X-229622Y-178180D01*
X-229532Y-178223D01*
X-229441Y-178263D01*
X-229349Y-178300D01*
X-229255Y-178333D01*
X-229160Y-178362D01*
X-229064Y-178388D01*
X-228967Y-178410D01*
X-228869Y-178428D01*
X-228771Y-178443D01*
X-228672Y-178454D01*
X-228573Y-178461D01*
X-228473Y-178464D01*
X-228374Y-178463D01*
X-228274Y-178459D01*
X-228175Y-178450D01*
X-228076Y-178438D01*
X-227978Y-178423D01*
X-227881Y-178403D01*
X-227784Y-178380D01*
X-227688Y-178353D01*
X-227594Y-178322D01*
X-227500Y-178288D01*
X-227408Y-178250D01*
X-227318Y-178209D01*
X-227229Y-178164D01*
X-227142Y-178116D01*
X-230688Y-177166D02*
X-230759Y-177040D01*
X-230826Y-176913D01*
X-230890Y-176783D01*
X-230950Y-176652D01*
X-231007Y-176519D01*
X-231060Y-176385D01*
X-231110Y-176250D01*
X-231156Y-176113D01*
X-231199Y-175975D01*
X-231238Y-175836D01*
X-231273Y-175696D01*
X-231305Y-175555D01*
X-231333Y-175414D01*
X-231357Y-175272D01*
X-231378Y-175129D01*
X-231394Y-174985D01*
X-231407Y-174841D01*
X-231416Y-174697D01*
X-231421Y-174553D01*
X-231423Y-174409D01*
X-231421Y-174265D01*
X-231415Y-174120D01*
X-231405Y-173976D01*
X-231391Y-173833D01*
X-231374Y-173689D01*
X-231352Y-173547D01*
X-231327Y-173404D01*
X-231299Y-173263D01*
X-231266Y-173122D01*
X-231230Y-172982D01*
X-224603Y-169531D02*
X-224516Y-169483D01*
X-224427Y-169438D01*
X-224337Y-169397D01*
X-224245Y-169359D01*
X-224152Y-169325D01*
X-224057Y-169294D01*
X-223961Y-169267D01*
X-223864Y-169244D01*
X-223767Y-169224D01*
X-223669Y-169209D01*
X-223570Y-169197D01*
X-223471Y-169188D01*
X-223371Y-169184D01*
X-223272Y-169183D01*
X-223172Y-169186D01*
X-223073Y-169193D01*
X-222974Y-169204D01*
X-222876Y-169219D01*
X-222778Y-169237D01*
X-222681Y-169259D01*
X-222585Y-169285D01*
X-222490Y-169314D01*
X-222396Y-169347D01*
X-222304Y-169384D01*
X-222212Y-169424D01*
X-222123Y-169468D01*
X-222035Y-169515D01*
X-221950Y-169565D01*
X-221866Y-169618D01*
X-221784Y-169675D01*
X-221704Y-169735D01*
X-221627Y-169798D01*
X-221553Y-169863D01*
X-221480Y-169932D01*
X-221411Y-170003D01*
X-221344Y-170077D01*
X-221281Y-170153D01*
X-221220Y-170232D01*
X-221162Y-170313D01*
X-221107Y-170396D01*
X-221056Y-170481D01*
X-220990Y-170600D01*
X-220927Y-170721D01*
X-220867Y-170843D01*
X-220811Y-170967D01*
X-220758Y-171093D01*
X-220709Y-171220D01*
X-220663Y-171348D01*
X-220621Y-171477D01*
X-220583Y-171608D01*
X-220548Y-171740D01*
X-220517Y-171872D01*
X-220490Y-172006D01*
X-220466Y-172140D01*
X-220446Y-172275D01*
X-220430Y-172410D01*
X-220418Y-172546D01*
X-220410Y-172682D01*
X-220405Y-172818D01*
X-220404Y-172954D01*
X-220407Y-173090D01*
X-220414Y-173226D01*
X-220425Y-173362D01*
X-220439Y-173497D01*
X-225922Y-171791D02*
X-225919Y-171689D01*
X-225912Y-171588D01*
X-225902Y-171487D01*
X-225887Y-171387D01*
X-225869Y-171287D01*
X-225847Y-171188D01*
X-225821Y-171090D01*
X-225791Y-170993D01*
X-225758Y-170897D01*
X-225721Y-170803D01*
X-225680Y-170710D01*
X-225636Y-170619D01*
X-225588Y-170529D01*
X-225537Y-170442D01*
X-225482Y-170356D01*
X-225425Y-170273D01*
X-225364Y-170192D01*
X-225300Y-170113D01*
X-225233Y-170037D01*
X-225163Y-169963D01*
X-225091Y-169892D01*
X-225016Y-169824D01*
X-224938Y-169759D01*
X-224858Y-169697D01*
X-224775Y-169638D01*
X-224690Y-169583D01*
X-224603Y-169530D01*
X-225823Y-175856D02*
X-225826Y-175958D01*
X-225833Y-176059D01*
X-225843Y-176160D01*
X-225858Y-176260D01*
X-225876Y-176360D01*
X-225898Y-176459D01*
X-225924Y-176557D01*
X-225954Y-176654D01*
X-225987Y-176750D01*
X-226024Y-176844D01*
X-226065Y-176937D01*
X-226109Y-177028D01*
X-226157Y-177118D01*
X-226208Y-177205D01*
X-226263Y-177291D01*
X-226320Y-177374D01*
X-226381Y-177455D01*
X-226445Y-177534D01*
X-226512Y-177610D01*
X-226582Y-177684D01*
X-226654Y-177755D01*
X-226729Y-177823D01*
X-226807Y-177888D01*
X-226887Y-177950D01*
X-226970Y-178009D01*
X-227055Y-178064D01*
X-227141Y-178117D01*
X-225823Y-175857D02*
X-225922Y-171791D01*
X-215751Y-179671D02*
X-225869Y-185513D01*
X-214128Y-182482D02*
X-217373Y-176860D01*
X-218167Y-189767D02*
X-214272Y-196513D01*
X-213924Y-206202D02*
X-213873Y-206287D01*
X-213818Y-206370D01*
X-213761Y-206451D01*
X-213700Y-206530D01*
X-213636Y-206606D01*
X-213569Y-206680D01*
X-213500Y-206751D01*
X-213428Y-206820D01*
X-213353Y-206886D01*
X-213276Y-206948D01*
X-213197Y-207008D01*
X-213115Y-207065D01*
X-213031Y-207118D01*
X-212945Y-207169D01*
X-212858Y-207216D01*
X-212768Y-207259D01*
X-212677Y-207299D01*
X-212585Y-207336D01*
X-212491Y-207369D01*
X-212396Y-207398D01*
X-212300Y-207424D01*
X-212203Y-207446D01*
X-212105Y-207464D01*
X-212007Y-207479D01*
X-211908Y-207490D01*
X-211809Y-207497D01*
X-211709Y-207500D01*
X-211610Y-207499D01*
X-211510Y-207495D01*
X-211411Y-207486D01*
X-211312Y-207474D01*
X-211214Y-207459D01*
X-211117Y-207439D01*
X-211020Y-207416D01*
X-210924Y-207389D01*
X-210830Y-207358D01*
X-210736Y-207324D01*
X-210644Y-207286D01*
X-210554Y-207245D01*
X-210465Y-207200D01*
X-210378Y-207152D01*
X-213924Y-206202D02*
X-213995Y-206076D01*
X-214062Y-205949D01*
X-214126Y-205819D01*
X-214186Y-205688D01*
X-214243Y-205555D01*
X-214296Y-205421D01*
X-214346Y-205286D01*
X-214392Y-205149D01*
X-214435Y-205011D01*
X-214474Y-204872D01*
X-214509Y-204732D01*
X-214541Y-204591D01*
X-214569Y-204450D01*
X-214593Y-204308D01*
X-214614Y-204165D01*
X-214630Y-204021D01*
X-214643Y-203877D01*
X-214652Y-203733D01*
X-214657Y-203589D01*
X-214659Y-203445D01*
X-214657Y-203301D01*
X-214651Y-203156D01*
X-214641Y-203012D01*
X-214627Y-202869D01*
X-214610Y-202725D01*
X-214588Y-202583D01*
X-214563Y-202440D01*
X-214535Y-202299D01*
X-214502Y-202158D01*
X-214466Y-202018D01*
X-207839Y-198566D02*
X-207752Y-198518D01*
X-207663Y-198473D01*
X-207573Y-198432D01*
X-207481Y-198394D01*
X-207388Y-198360D01*
X-207293Y-198329D01*
X-207197Y-198302D01*
X-207100Y-198279D01*
X-207003Y-198259D01*
X-206905Y-198244D01*
X-206806Y-198232D01*
X-206707Y-198223D01*
X-206607Y-198219D01*
X-206508Y-198218D01*
X-206408Y-198221D01*
X-206309Y-198228D01*
X-206210Y-198239D01*
X-206112Y-198254D01*
X-206014Y-198272D01*
X-205917Y-198294D01*
X-205821Y-198320D01*
X-205726Y-198349D01*
X-205632Y-198382D01*
X-205540Y-198419D01*
X-205448Y-198459D01*
X-205359Y-198503D01*
X-205271Y-198550D01*
X-205186Y-198600D01*
X-205102Y-198653D01*
X-205020Y-198710D01*
X-204940Y-198770D01*
X-204863Y-198833D01*
X-204789Y-198898D01*
X-204716Y-198967D01*
X-204647Y-199038D01*
X-204580Y-199112D01*
X-204517Y-199188D01*
X-204456Y-199267D01*
X-204398Y-199348D01*
X-204343Y-199431D01*
X-204292Y-199516D01*
X-204292Y-199517D02*
X-204226Y-199636D01*
X-204163Y-199757D01*
X-204103Y-199879D01*
X-204047Y-200003D01*
X-203994Y-200129D01*
X-203945Y-200256D01*
X-203899Y-200384D01*
X-203857Y-200513D01*
X-203819Y-200644D01*
X-203784Y-200776D01*
X-203753Y-200908D01*
X-203726Y-201042D01*
X-203702Y-201176D01*
X-203682Y-201311D01*
X-203666Y-201446D01*
X-203654Y-201582D01*
X-203646Y-201718D01*
X-203641Y-201854D01*
X-203640Y-201990D01*
X-203643Y-202126D01*
X-203650Y-202262D01*
X-203661Y-202398D01*
X-203675Y-202533D01*
X-209158Y-200827D02*
X-209155Y-200725D01*
X-209148Y-200624D01*
X-209138Y-200523D01*
X-209123Y-200423D01*
X-209105Y-200323D01*
X-209083Y-200224D01*
X-209057Y-200126D01*
X-209027Y-200029D01*
X-208994Y-199933D01*
X-208957Y-199839D01*
X-208916Y-199746D01*
X-208872Y-199655D01*
X-208824Y-199565D01*
X-208773Y-199478D01*
X-208718Y-199392D01*
X-208661Y-199309D01*
X-208600Y-199228D01*
X-208536Y-199149D01*
X-208469Y-199073D01*
X-208399Y-198999D01*
X-208327Y-198928D01*
X-208252Y-198860D01*
X-208174Y-198795D01*
X-208094Y-198733D01*
X-208011Y-198674D01*
X-207926Y-198619D01*
X-207839Y-198566D01*
X-209059Y-204892D02*
X-209062Y-204994D01*
X-209069Y-205095D01*
X-209079Y-205196D01*
X-209094Y-205296D01*
X-209112Y-205396D01*
X-209134Y-205495D01*
X-209160Y-205593D01*
X-209190Y-205690D01*
X-209223Y-205786D01*
X-209260Y-205880D01*
X-209301Y-205973D01*
X-209345Y-206064D01*
X-209393Y-206154D01*
X-209444Y-206241D01*
X-209499Y-206327D01*
X-209556Y-206410D01*
X-209617Y-206491D01*
X-209681Y-206570D01*
X-209748Y-206646D01*
X-209818Y-206720D01*
X-209890Y-206791D01*
X-209965Y-206859D01*
X-210043Y-206924D01*
X-210123Y-206986D01*
X-210206Y-207045D01*
X-210291Y-207100D01*
X-210377Y-207153D01*
X-209059Y-204892D02*
X-209158Y-200827D01*
X-200001Y-206950D02*
X-210120Y-212792D01*
X-200001Y-206950D02*
X-198378Y-209761D01*
X-198378Y-209760D02*
X-198323Y-209859D01*
X-198272Y-209960D01*
X-198224Y-210063D01*
X-198179Y-210167D01*
X-198139Y-210273D01*
X-198102Y-210380D01*
X-198069Y-210488D01*
X-198039Y-210598D01*
X-198014Y-210708D01*
X-197992Y-210819D01*
X-197975Y-210931D01*
X-197961Y-211044D01*
X-197951Y-211157D01*
X-197945Y-211270D01*
X-197943Y-211383D01*
X-197945Y-211496D01*
X-197951Y-211609D01*
X-197961Y-211722D01*
X-197975Y-211835D01*
X-197992Y-211947D01*
X-198014Y-212058D01*
X-198039Y-212168D01*
X-198069Y-212278D01*
X-198102Y-212386D01*
X-198139Y-212493D01*
X-198179Y-212599D01*
X-198224Y-212703D01*
X-198272Y-212806D01*
X-198323Y-212907D01*
X-198378Y-213006D01*
X-198436Y-213103D01*
X-198498Y-213198D01*
X-198563Y-213291D01*
X-198631Y-213381D01*
X-198702Y-213469D01*
X-198777Y-213555D01*
X-198854Y-213638D01*
X-198934Y-213718D01*
X-199017Y-213795D01*
X-199103Y-213870D01*
X-199191Y-213941D01*
X-199281Y-214009D01*
X-199374Y-214074D01*
X-199469Y-214136D01*
X-199566Y-214194D01*
X-199665Y-214249D01*
X-199766Y-214300D01*
X-199869Y-214348D01*
X-199973Y-214393D01*
X-200079Y-214433D01*
X-200186Y-214470D01*
X-200294Y-214503D01*
X-200404Y-214533D01*
X-200514Y-214558D01*
X-200625Y-214580D01*
X-200737Y-214597D01*
X-200850Y-214611D01*
X-200963Y-214621D01*
X-201076Y-214627D01*
X-201189Y-214629D01*
X-201302Y-214627D01*
X-201415Y-214621D01*
X-201528Y-214611D01*
X-201641Y-214597D01*
X-201753Y-214580D01*
X-201864Y-214558D01*
X-201974Y-214533D01*
X-202084Y-214503D01*
X-202192Y-214470D01*
X-202299Y-214433D01*
X-202405Y-214393D01*
X-202509Y-214348D01*
X-202612Y-214300D01*
X-202713Y-214249D01*
X-202812Y-214194D01*
X-202909Y-214136D01*
X-203004Y-214074D01*
X-203097Y-214009D01*
X-203187Y-213941D01*
X-203276Y-213870D01*
X-203361Y-213795D01*
X-203444Y-213718D01*
X-203524Y-213638D01*
X-203601Y-213555D01*
X-203676Y-213469D01*
X-203747Y-213381D01*
X-203815Y-213291D01*
X-203880Y-213198D01*
X-203942Y-213103D01*
X-204000Y-213006D01*
X-205623Y-210195D01*
X-203675Y-213568D02*
X-206874Y-218413D01*
X181332Y152277D02*
X183361Y163784D01*
X186557Y163220D01*
X186557Y163221D02*
X186668Y163199D01*
X186778Y163174D01*
X186888Y163144D01*
X186996Y163111D01*
X187103Y163074D01*
X187209Y163034D01*
X187313Y162989D01*
X187416Y162941D01*
X187517Y162890D01*
X187616Y162835D01*
X187713Y162777D01*
X187808Y162715D01*
X187901Y162650D01*
X187991Y162582D01*
X188079Y162511D01*
X188165Y162436D01*
X188248Y162359D01*
X188328Y162279D01*
X188405Y162196D01*
X188480Y162110D01*
X188551Y162022D01*
X188619Y161932D01*
X188684Y161839D01*
X188746Y161744D01*
X188804Y161647D01*
X188859Y161548D01*
X188910Y161447D01*
X188958Y161344D01*
X189003Y161240D01*
X189043Y161134D01*
X189080Y161027D01*
X189113Y160919D01*
X189143Y160809D01*
X189168Y160699D01*
X189190Y160588D01*
X189207Y160476D01*
X189221Y160363D01*
X189231Y160250D01*
X189237Y160137D01*
X189239Y160024D01*
X189237Y159911D01*
X189231Y159798D01*
X189221Y159685D01*
X189207Y159572D01*
X189190Y159460D01*
X189168Y159349D01*
X189143Y159239D01*
X189113Y159129D01*
X189080Y159021D01*
X189043Y158914D01*
X189003Y158808D01*
X188958Y158704D01*
X188910Y158601D01*
X188859Y158500D01*
X188804Y158401D01*
X188746Y158304D01*
X188684Y158209D01*
X188619Y158116D01*
X188551Y158026D01*
X188480Y157937D01*
X188405Y157852D01*
X188328Y157769D01*
X188248Y157689D01*
X188165Y157612D01*
X188079Y157537D01*
X187991Y157466D01*
X187901Y157398D01*
X187808Y157333D01*
X187713Y157271D01*
X187616Y157213D01*
X187517Y157158D01*
X187416Y157107D01*
X187313Y157059D01*
X187209Y157014D01*
X187103Y156974D01*
X186996Y156937D01*
X186888Y156904D01*
X186778Y156874D01*
X186668Y156849D01*
X186557Y156827D01*
X186445Y156810D01*
X186332Y156796D01*
X186219Y156786D01*
X186106Y156780D01*
X185993Y156778D01*
X185880Y156780D01*
X185767Y156786D01*
X185654Y156796D01*
X185541Y156810D01*
X185429Y156827D01*
X185430Y156828D02*
X182234Y157391D01*
X186069Y156715D02*
X187724Y151150D01*
X198493Y155843D02*
X200410Y155504D01*
X199283Y149112D01*
X195448Y149788D01*
X195351Y149808D01*
X195254Y149830D01*
X195158Y149857D01*
X195063Y149887D01*
X194970Y149921D01*
X194878Y149958D01*
X194787Y149999D01*
X194698Y150044D01*
X194611Y150091D01*
X194525Y150142D01*
X194442Y150197D01*
X194361Y150254D01*
X194282Y150314D01*
X194205Y150378D01*
X194131Y150444D01*
X194059Y150513D01*
X193991Y150585D01*
X193925Y150659D01*
X193862Y150736D01*
X193801Y150816D01*
X193744Y150897D01*
X193690Y150981D01*
X193640Y151066D01*
X193593Y151154D01*
X193549Y151243D01*
X193508Y151334D01*
X193471Y151426D01*
X193438Y151520D01*
X193408Y151615D01*
X193382Y151711D01*
X193359Y151807D01*
X193341Y151905D01*
X193326Y152003D01*
X193314Y152102D01*
X193307Y152201D01*
X193303Y152301D01*
X193304Y152400D01*
X193308Y152500D01*
X193315Y152599D01*
X193327Y152698D01*
X193342Y152796D01*
X194469Y159189D01*
X194489Y159286D01*
X194511Y159383D01*
X194538Y159479D01*
X194568Y159574D01*
X194602Y159667D01*
X194639Y159759D01*
X194680Y159850D01*
X194725Y159939D01*
X194772Y160026D01*
X194823Y160112D01*
X194878Y160195D01*
X194935Y160276D01*
X194995Y160355D01*
X195059Y160432D01*
X195125Y160506D01*
X195194Y160578D01*
X195266Y160646D01*
X195340Y160712D01*
X195417Y160775D01*
X195497Y160836D01*
X195578Y160893D01*
X195662Y160947D01*
X195747Y160997D01*
X195835Y161044D01*
X195924Y161088D01*
X196015Y161129D01*
X196107Y161166D01*
X196201Y161199D01*
X196296Y161229D01*
X196392Y161255D01*
X196488Y161278D01*
X196586Y161296D01*
X196684Y161311D01*
X196783Y161323D01*
X196882Y161330D01*
X196982Y161334D01*
X197081Y161333D01*
X197181Y161329D01*
X197280Y161322D01*
X197379Y161310D01*
X197477Y161295D01*
X201312Y160618D01*
X206191Y154485D02*
X209388Y153921D01*
X209388Y153922D02*
X209499Y153900D01*
X209609Y153875D01*
X209719Y153845D01*
X209827Y153812D01*
X209934Y153775D01*
X210040Y153735D01*
X210144Y153690D01*
X210247Y153642D01*
X210348Y153591D01*
X210447Y153536D01*
X210544Y153478D01*
X210639Y153416D01*
X210732Y153351D01*
X210822Y153283D01*
X210910Y153212D01*
X210996Y153137D01*
X211079Y153060D01*
X211159Y152980D01*
X211236Y152897D01*
X211311Y152811D01*
X211382Y152723D01*
X211450Y152633D01*
X211515Y152540D01*
X211577Y152445D01*
X211635Y152348D01*
X211690Y152249D01*
X211741Y152148D01*
X211789Y152045D01*
X211834Y151941D01*
X211874Y151835D01*
X211911Y151728D01*
X211944Y151620D01*
X211974Y151510D01*
X211999Y151400D01*
X212021Y151289D01*
X212038Y151177D01*
X212052Y151064D01*
X212062Y150951D01*
X212068Y150838D01*
X212070Y150725D01*
X212068Y150612D01*
X212062Y150499D01*
X212052Y150386D01*
X212038Y150273D01*
X212021Y150161D01*
X211999Y150050D01*
X211974Y149940D01*
X211944Y149830D01*
X211911Y149722D01*
X211874Y149615D01*
X211834Y149509D01*
X211789Y149405D01*
X211741Y149302D01*
X211690Y149201D01*
X211635Y149102D01*
X211577Y149005D01*
X211515Y148910D01*
X211450Y148817D01*
X211382Y148727D01*
X211311Y148639D01*
X211236Y148553D01*
X211159Y148470D01*
X211079Y148390D01*
X210996Y148313D01*
X210910Y148238D01*
X210822Y148167D01*
X210732Y148099D01*
X210639Y148034D01*
X210544Y147972D01*
X210447Y147914D01*
X210348Y147859D01*
X210247Y147808D01*
X210144Y147760D01*
X210040Y147715D01*
X209934Y147675D01*
X209827Y147638D01*
X209719Y147605D01*
X209609Y147575D01*
X209499Y147550D01*
X209388Y147528D01*
X209276Y147511D01*
X209163Y147497D01*
X209050Y147487D01*
X208937Y147481D01*
X208824Y147479D01*
X208711Y147481D01*
X208598Y147487D01*
X208485Y147497D01*
X208372Y147511D01*
X208260Y147528D01*
X208261Y147529D02*
X205064Y148093D01*
X207093Y159599D01*
X210289Y159036D01*
X210290Y159035D02*
X210389Y159015D01*
X210487Y158992D01*
X210584Y158965D01*
X210679Y158934D01*
X210774Y158900D01*
X210867Y158862D01*
X210959Y158820D01*
X211049Y158775D01*
X211137Y158726D01*
X211223Y158674D01*
X211307Y158619D01*
X211389Y158560D01*
X211469Y158499D01*
X211546Y158434D01*
X211620Y158366D01*
X211692Y158296D01*
X211761Y158223D01*
X211828Y158147D01*
X211891Y158068D01*
X211951Y157988D01*
X212008Y157905D01*
X212062Y157819D01*
X212112Y157732D01*
X212159Y157643D01*
X212202Y157552D01*
X212242Y157460D01*
X212278Y157366D01*
X212311Y157271D01*
X212340Y157174D01*
X212365Y157077D01*
X212386Y156978D01*
X212404Y156879D01*
X212417Y156779D01*
X212427Y156679D01*
X212433Y156579D01*
X212435Y156478D01*
X212433Y156377D01*
X212427Y156277D01*
X212417Y156177D01*
X212404Y156077D01*
X212386Y155978D01*
X212365Y155879D01*
X212340Y155782D01*
X212311Y155685D01*
X212278Y155590D01*
X212242Y155496D01*
X212202Y155404D01*
X212159Y155313D01*
X212112Y155224D01*
X212062Y155137D01*
X212008Y155051D01*
X211951Y154968D01*
X211891Y154888D01*
X211828Y154809D01*
X211761Y154733D01*
X211692Y154660D01*
X211620Y154590D01*
X211546Y154522D01*
X211469Y154457D01*
X211389Y154396D01*
X211307Y154337D01*
X211223Y154282D01*
X211137Y154230D01*
X211049Y154181D01*
X210959Y154136D01*
X210867Y154094D01*
X210774Y154056D01*
X210679Y154022D01*
X210584Y153991D01*
X210487Y153964D01*
X210389Y153941D01*
X210290Y153921D01*
X210190Y153906D01*
X210090Y153894D01*
X209990Y153886D01*
X209889Y153882D01*
X209789Y153882D01*
X209688Y153886D01*
X209588Y153894D01*
X209488Y153906D01*
X209388Y153921D01*
X224306Y144700D02*
X226863Y144249D01*
X224306Y144700D02*
X224209Y144720D01*
X224112Y144742D01*
X224016Y144769D01*
X223921Y144799D01*
X223828Y144833D01*
X223736Y144870D01*
X223645Y144911D01*
X223556Y144956D01*
X223469Y145003D01*
X223383Y145054D01*
X223300Y145109D01*
X223219Y145166D01*
X223140Y145226D01*
X223063Y145290D01*
X222989Y145356D01*
X222917Y145425D01*
X222849Y145497D01*
X222783Y145571D01*
X222720Y145648D01*
X222659Y145728D01*
X222602Y145809D01*
X222548Y145893D01*
X222498Y145978D01*
X222451Y146066D01*
X222407Y146155D01*
X222366Y146246D01*
X222329Y146338D01*
X222296Y146432D01*
X222266Y146527D01*
X222240Y146623D01*
X222217Y146719D01*
X222199Y146817D01*
X222184Y146915D01*
X222172Y147014D01*
X222165Y147113D01*
X222161Y147213D01*
X222162Y147312D01*
X222166Y147412D01*
X222173Y147511D01*
X222185Y147610D01*
X222200Y147708D01*
X222200Y147707D02*
X223327Y154100D01*
X223347Y154197D01*
X223369Y154294D01*
X223396Y154390D01*
X223426Y154485D01*
X223460Y154578D01*
X223497Y154670D01*
X223538Y154761D01*
X223583Y154850D01*
X223630Y154937D01*
X223681Y155023D01*
X223736Y155106D01*
X223793Y155187D01*
X223853Y155266D01*
X223917Y155343D01*
X223983Y155417D01*
X224052Y155489D01*
X224124Y155557D01*
X224198Y155623D01*
X224275Y155686D01*
X224355Y155747D01*
X224436Y155804D01*
X224520Y155858D01*
X224605Y155908D01*
X224693Y155955D01*
X224782Y155999D01*
X224873Y156040D01*
X224965Y156077D01*
X225059Y156110D01*
X225154Y156140D01*
X225250Y156166D01*
X225346Y156189D01*
X225444Y156207D01*
X225542Y156222D01*
X225641Y156234D01*
X225740Y156241D01*
X225840Y156245D01*
X225939Y156244D01*
X226039Y156240D01*
X226138Y156233D01*
X226237Y156221D01*
X226335Y156206D01*
X228892Y155755D01*
X231953Y148624D02*
X231502Y146067D01*
X231953Y148624D02*
X231973Y148723D01*
X231996Y148821D01*
X232023Y148918D01*
X232054Y149013D01*
X232088Y149108D01*
X232126Y149201D01*
X232168Y149293D01*
X232213Y149383D01*
X232262Y149471D01*
X232314Y149557D01*
X232369Y149641D01*
X232428Y149723D01*
X232489Y149803D01*
X232554Y149880D01*
X232622Y149954D01*
X232692Y150026D01*
X232765Y150095D01*
X232841Y150162D01*
X232920Y150225D01*
X233000Y150285D01*
X233083Y150342D01*
X233169Y150396D01*
X233256Y150446D01*
X233345Y150493D01*
X233436Y150536D01*
X233528Y150576D01*
X233622Y150612D01*
X233717Y150645D01*
X233814Y150674D01*
X233911Y150699D01*
X234010Y150720D01*
X234109Y150738D01*
X234209Y150751D01*
X234309Y150761D01*
X234409Y150767D01*
X234510Y150769D01*
X234611Y150767D01*
X234711Y150761D01*
X234811Y150751D01*
X234911Y150738D01*
X235010Y150720D01*
X235109Y150699D01*
X235206Y150674D01*
X235303Y150645D01*
X235398Y150612D01*
X235492Y150576D01*
X235584Y150536D01*
X235675Y150493D01*
X235764Y150446D01*
X235851Y150396D01*
X235937Y150342D01*
X236020Y150285D01*
X236100Y150225D01*
X236179Y150162D01*
X236255Y150095D01*
X236328Y150026D01*
X236398Y149954D01*
X236466Y149880D01*
X236531Y149803D01*
X236592Y149723D01*
X236651Y149641D01*
X236706Y149557D01*
X236758Y149471D01*
X236807Y149383D01*
X236852Y149293D01*
X236894Y149201D01*
X236932Y149108D01*
X236966Y149013D01*
X236997Y148918D01*
X237024Y148821D01*
X237047Y148723D01*
X237067Y148624D01*
X237082Y148524D01*
X237094Y148424D01*
X237102Y148324D01*
X237106Y148223D01*
X237106Y148123D01*
X237102Y148022D01*
X237094Y147922D01*
X237082Y147822D01*
X237067Y147722D01*
X237067Y147723D02*
X236616Y145166D01*
X236616Y145165D02*
X236596Y145066D01*
X236573Y144968D01*
X236546Y144871D01*
X236515Y144776D01*
X236481Y144681D01*
X236443Y144588D01*
X236401Y144496D01*
X236356Y144406D01*
X236307Y144318D01*
X236255Y144232D01*
X236200Y144148D01*
X236141Y144066D01*
X236080Y143986D01*
X236015Y143909D01*
X235947Y143835D01*
X235877Y143763D01*
X235804Y143694D01*
X235728Y143627D01*
X235649Y143564D01*
X235569Y143504D01*
X235486Y143447D01*
X235400Y143393D01*
X235313Y143343D01*
X235224Y143296D01*
X235133Y143253D01*
X235041Y143213D01*
X234947Y143177D01*
X234852Y143144D01*
X234755Y143115D01*
X234658Y143090D01*
X234559Y143069D01*
X234460Y143051D01*
X234360Y143038D01*
X234260Y143028D01*
X234160Y143022D01*
X234059Y143020D01*
X233958Y143022D01*
X233858Y143028D01*
X233758Y143038D01*
X233658Y143051D01*
X233559Y143069D01*
X233460Y143090D01*
X233363Y143115D01*
X233266Y143144D01*
X233171Y143177D01*
X233077Y143213D01*
X232985Y143253D01*
X232894Y143296D01*
X232805Y143343D01*
X232718Y143393D01*
X232632Y143447D01*
X232549Y143504D01*
X232469Y143564D01*
X232390Y143627D01*
X232314Y143694D01*
X232241Y143763D01*
X232171Y143835D01*
X232103Y143909D01*
X232038Y143986D01*
X231977Y144066D01*
X231918Y144148D01*
X231863Y144232D01*
X231811Y144318D01*
X231762Y144406D01*
X231717Y144496D01*
X231675Y144588D01*
X231637Y144681D01*
X231603Y144776D01*
X231572Y144871D01*
X231545Y144968D01*
X231522Y145066D01*
X231502Y145165D01*
X231487Y145265D01*
X231475Y145365D01*
X231467Y145465D01*
X231463Y145566D01*
X231463Y145666D01*
X231467Y145767D01*
X231475Y145867D01*
X231487Y145967D01*
X231502Y146067D01*
X241292Y143682D02*
X242983Y153271D01*
X241293Y143682D02*
X241279Y143596D01*
X241270Y143509D01*
X241265Y143422D01*
X241263Y143334D01*
X241265Y143247D01*
X241272Y143160D01*
X241282Y143073D01*
X241296Y142987D01*
X241314Y142901D01*
X241336Y142817D01*
X241361Y142733D01*
X241391Y142651D01*
X241424Y142570D01*
X241460Y142490D01*
X241500Y142413D01*
X241544Y142337D01*
X241590Y142263D01*
X241641Y142192D01*
X241694Y142122D01*
X241750Y142056D01*
X241809Y141991D01*
X241872Y141930D01*
X241936Y141871D01*
X242004Y141816D01*
X242073Y141763D01*
X242146Y141714D01*
X242220Y141668D01*
X242296Y141625D01*
X242374Y141586D01*
X242454Y141550D01*
X242535Y141518D01*
X242618Y141489D01*
X242701Y141465D01*
X242786Y141444D01*
X242872Y141427D01*
X247261Y143289D02*
X247712Y145846D01*
X247732Y145945D01*
X247755Y146043D01*
X247782Y146140D01*
X247813Y146235D01*
X247847Y146330D01*
X247885Y146423D01*
X247927Y146515D01*
X247972Y146605D01*
X248021Y146693D01*
X248073Y146779D01*
X248128Y146863D01*
X248187Y146945D01*
X248248Y147025D01*
X248313Y147102D01*
X248381Y147176D01*
X248451Y147248D01*
X248524Y147317D01*
X248600Y147384D01*
X248679Y147447D01*
X248759Y147507D01*
X248842Y147564D01*
X248928Y147618D01*
X249015Y147668D01*
X249104Y147715D01*
X249195Y147758D01*
X249287Y147798D01*
X249381Y147834D01*
X249476Y147867D01*
X249573Y147896D01*
X249670Y147921D01*
X249769Y147942D01*
X249868Y147960D01*
X249968Y147973D01*
X250068Y147983D01*
X250168Y147989D01*
X250269Y147991D01*
X250370Y147989D01*
X250470Y147983D01*
X250570Y147973D01*
X250670Y147960D01*
X250769Y147942D01*
X250868Y147921D01*
X250965Y147896D01*
X251062Y147867D01*
X251157Y147834D01*
X251251Y147798D01*
X251343Y147758D01*
X251434Y147715D01*
X251523Y147668D01*
X251610Y147618D01*
X251696Y147564D01*
X251779Y147507D01*
X251859Y147447D01*
X251938Y147384D01*
X252014Y147317D01*
X252087Y147248D01*
X252157Y147176D01*
X252225Y147102D01*
X252290Y147025D01*
X252351Y146945D01*
X252410Y146863D01*
X252465Y146779D01*
X252517Y146693D01*
X252566Y146605D01*
X252611Y146515D01*
X252653Y146423D01*
X252691Y146330D01*
X252725Y146235D01*
X252756Y146140D01*
X252783Y146043D01*
X252806Y145945D01*
X252826Y145846D01*
X252841Y145746D01*
X252853Y145646D01*
X252861Y145546D01*
X252865Y145445D01*
X252865Y145345D01*
X252861Y145244D01*
X252853Y145144D01*
X252841Y145044D01*
X252826Y144944D01*
X252375Y142387D01*
X252355Y142288D01*
X252332Y142190D01*
X252305Y142093D01*
X252274Y141998D01*
X252240Y141903D01*
X252202Y141810D01*
X252160Y141718D01*
X252115Y141628D01*
X252066Y141540D01*
X252014Y141454D01*
X251959Y141370D01*
X251900Y141288D01*
X251839Y141208D01*
X251774Y141131D01*
X251706Y141057D01*
X251636Y140985D01*
X251563Y140916D01*
X251487Y140849D01*
X251408Y140786D01*
X251328Y140726D01*
X251245Y140669D01*
X251159Y140615D01*
X251072Y140565D01*
X250983Y140518D01*
X250892Y140475D01*
X250800Y140435D01*
X250706Y140399D01*
X250611Y140366D01*
X250514Y140337D01*
X250417Y140312D01*
X250318Y140291D01*
X250219Y140273D01*
X250119Y140260D01*
X250019Y140250D01*
X249919Y140244D01*
X249818Y140242D01*
X249717Y140244D01*
X249617Y140250D01*
X249517Y140260D01*
X249417Y140273D01*
X249318Y140291D01*
X249219Y140312D01*
X249122Y140337D01*
X249025Y140366D01*
X248930Y140399D01*
X248836Y140435D01*
X248744Y140475D01*
X248653Y140518D01*
X248564Y140565D01*
X248477Y140615D01*
X248391Y140669D01*
X248308Y140726D01*
X248228Y140786D01*
X248149Y140849D01*
X248073Y140916D01*
X248000Y140985D01*
X247930Y141057D01*
X247862Y141131D01*
X247797Y141208D01*
X247736Y141288D01*
X247677Y141370D01*
X247622Y141454D01*
X247570Y141540D01*
X247521Y141628D01*
X247476Y141718D01*
X247434Y141810D01*
X247396Y141903D01*
X247362Y141998D01*
X247331Y142093D01*
X247304Y142190D01*
X247281Y142288D01*
X247261Y142387D01*
X247246Y142487D01*
X247234Y142587D01*
X247226Y142687D01*
X247222Y142788D01*
X247222Y142888D01*
X247226Y142989D01*
X247234Y143089D01*
X247246Y143189D01*
X247261Y143289D01*
X257006Y138934D02*
X258359Y146605D01*
X262194Y145928D01*
X261969Y144650D01*
X274019Y135934D02*
X274117Y135919D01*
X274216Y135907D01*
X274315Y135900D01*
X274415Y135896D01*
X274514Y135895D01*
X274614Y135899D01*
X274713Y135906D01*
X274812Y135918D01*
X274910Y135933D01*
X275008Y135951D01*
X275104Y135974D01*
X275200Y136000D01*
X275295Y136030D01*
X275389Y136063D01*
X275481Y136100D01*
X275572Y136141D01*
X275661Y136184D01*
X275749Y136232D01*
X275834Y136282D01*
X275918Y136336D01*
X275999Y136393D01*
X276079Y136454D01*
X276156Y136517D01*
X276230Y136583D01*
X276302Y136651D01*
X276371Y136723D01*
X276437Y136797D01*
X276501Y136874D01*
X276561Y136953D01*
X276618Y137034D01*
X276673Y137117D01*
X276724Y137203D01*
X276771Y137290D01*
X276816Y137379D01*
X276857Y137470D01*
X276894Y137562D01*
X276928Y137655D01*
X276958Y137750D01*
X276985Y137846D01*
X277007Y137943D01*
X277027Y138040D01*
X274019Y135933D02*
X273877Y135960D01*
X273736Y135991D01*
X273596Y136025D01*
X273457Y136063D01*
X273319Y136105D01*
X273181Y136150D01*
X273046Y136199D01*
X272911Y136252D01*
X272778Y136308D01*
X272647Y136367D01*
X272517Y136430D01*
X272388Y136496D01*
X272262Y136566D01*
X272137Y136639D01*
X272015Y136715D01*
X271894Y136795D01*
X271776Y136877D01*
X271659Y136963D01*
X271546Y137052D01*
X271434Y137143D01*
X271325Y137238D01*
X271218Y137335D01*
X271114Y137435D01*
X271013Y137538D01*
X270915Y137644D01*
X270819Y137752D01*
X270726Y137862D01*
X270636Y137975D01*
X270549Y138090D01*
X270465Y138208D01*
X272082Y145503D02*
X272102Y145600D01*
X272124Y145697D01*
X272151Y145793D01*
X272181Y145888D01*
X272215Y145981D01*
X272252Y146073D01*
X272293Y146164D01*
X272338Y146253D01*
X272385Y146340D01*
X272436Y146426D01*
X272491Y146509D01*
X272548Y146590D01*
X272608Y146669D01*
X272672Y146746D01*
X272738Y146820D01*
X272807Y146892D01*
X272879Y146960D01*
X272953Y147026D01*
X273030Y147089D01*
X273110Y147150D01*
X273191Y147207D01*
X273275Y147261D01*
X273360Y147311D01*
X273448Y147358D01*
X273537Y147402D01*
X273628Y147443D01*
X273720Y147480D01*
X273814Y147513D01*
X273909Y147543D01*
X274005Y147569D01*
X274101Y147592D01*
X274199Y147610D01*
X274297Y147625D01*
X274396Y147637D01*
X274495Y147644D01*
X274595Y147648D01*
X274694Y147647D01*
X274794Y147643D01*
X274893Y147636D01*
X274992Y147624D01*
X275090Y147609D01*
X275089Y147609D02*
X275223Y147584D01*
X275356Y147554D01*
X275488Y147521D01*
X275619Y147485D01*
X275750Y147444D01*
X275878Y147400D01*
X276006Y147353D01*
X276132Y147302D01*
X276257Y147247D01*
X276380Y147189D01*
X276502Y147128D01*
X276622Y147063D01*
X276740Y146995D01*
X276855Y146923D01*
X276969Y146849D01*
X277081Y146771D01*
X277191Y146690D01*
X277298Y146606D01*
X277403Y146519D01*
X277505Y146429D01*
X277605Y146336D01*
X277702Y146241D01*
X277797Y146143D01*
X272966Y143040D02*
X272890Y143107D01*
X272817Y143178D01*
X272747Y143251D01*
X272679Y143326D01*
X272614Y143404D01*
X272553Y143485D01*
X272495Y143568D01*
X272439Y143653D01*
X272387Y143740D01*
X272339Y143829D01*
X272294Y143920D01*
X272253Y144013D01*
X272215Y144107D01*
X272180Y144202D01*
X272150Y144299D01*
X272123Y144397D01*
X272100Y144495D01*
X272081Y144595D01*
X272065Y144695D01*
X272054Y144796D01*
X272046Y144897D01*
X272042Y144998D01*
X272043Y145100D01*
X272047Y145201D01*
X272055Y145302D01*
X272066Y145403D01*
X272082Y145503D01*
X276143Y140503D02*
X276219Y140436D01*
X276292Y140365D01*
X276362Y140292D01*
X276430Y140217D01*
X276494Y140139D01*
X276556Y140058D01*
X276614Y139975D01*
X276670Y139890D01*
X276721Y139803D01*
X276770Y139714D01*
X276815Y139623D01*
X276856Y139531D01*
X276894Y139436D01*
X276929Y139341D01*
X276959Y139244D01*
X276986Y139147D01*
X277009Y139048D01*
X277028Y138948D01*
X277044Y138848D01*
X277055Y138747D01*
X277063Y138646D01*
X277067Y138545D01*
X277066Y138443D01*
X277062Y138342D01*
X277054Y138241D01*
X277043Y138140D01*
X277027Y138040D01*
X276143Y140503D02*
X272966Y143040D01*
X282872Y134373D02*
X286068Y133809D01*
X282872Y134374D02*
X282786Y134391D01*
X282701Y134412D01*
X282618Y134436D01*
X282535Y134465D01*
X282454Y134497D01*
X282374Y134533D01*
X282296Y134572D01*
X282220Y134615D01*
X282146Y134661D01*
X282073Y134710D01*
X282004Y134763D01*
X281936Y134818D01*
X281872Y134877D01*
X281809Y134938D01*
X281750Y135003D01*
X281694Y135069D01*
X281641Y135139D01*
X281590Y135210D01*
X281544Y135284D01*
X281500Y135360D01*
X281460Y135437D01*
X281424Y135517D01*
X281391Y135598D01*
X281361Y135680D01*
X281336Y135764D01*
X281314Y135848D01*
X281296Y135934D01*
X281282Y136020D01*
X281272Y136107D01*
X281265Y136194D01*
X281263Y136281D01*
X281265Y136369D01*
X281270Y136456D01*
X281279Y136543D01*
X281293Y136629D01*
X281292Y136629D02*
X281856Y139825D01*
X281876Y139924D01*
X281899Y140022D01*
X281926Y140119D01*
X281957Y140214D01*
X281991Y140309D01*
X282029Y140402D01*
X282071Y140494D01*
X282116Y140584D01*
X282165Y140672D01*
X282217Y140758D01*
X282272Y140842D01*
X282331Y140924D01*
X282392Y141004D01*
X282457Y141081D01*
X282525Y141155D01*
X282595Y141227D01*
X282668Y141296D01*
X282744Y141363D01*
X282823Y141426D01*
X282903Y141486D01*
X282986Y141543D01*
X283072Y141597D01*
X283159Y141647D01*
X283248Y141694D01*
X283339Y141737D01*
X283431Y141777D01*
X283525Y141813D01*
X283620Y141846D01*
X283717Y141875D01*
X283814Y141900D01*
X283913Y141921D01*
X284012Y141939D01*
X284112Y141952D01*
X284212Y141962D01*
X284312Y141968D01*
X284413Y141970D01*
X284514Y141968D01*
X284614Y141962D01*
X284714Y141952D01*
X284814Y141939D01*
X284913Y141921D01*
X285012Y141900D01*
X285109Y141875D01*
X285206Y141846D01*
X285301Y141813D01*
X285395Y141777D01*
X285487Y141737D01*
X285578Y141694D01*
X285667Y141647D01*
X285754Y141597D01*
X285840Y141543D01*
X285923Y141486D01*
X286003Y141426D01*
X286082Y141363D01*
X286158Y141296D01*
X286231Y141227D01*
X286301Y141155D01*
X286369Y141081D01*
X286434Y141004D01*
X286495Y140924D01*
X286554Y140842D01*
X286609Y140758D01*
X286661Y140672D01*
X286710Y140584D01*
X286755Y140494D01*
X286797Y140402D01*
X286835Y140309D01*
X286869Y140214D01*
X286900Y140119D01*
X286927Y140022D01*
X286950Y139924D01*
X286970Y139825D01*
X286985Y139725D01*
X286997Y139625D01*
X287005Y139525D01*
X287009Y139424D01*
X287009Y139324D01*
X287005Y139223D01*
X286997Y139123D01*
X286985Y139023D01*
X286970Y138923D01*
X286744Y137645D01*
X281630Y138546D01*
X291085Y132925D02*
X292437Y140596D01*
X295633Y140032D01*
X295633Y140031D02*
X295719Y140014D01*
X295804Y139993D01*
X295887Y139969D01*
X295970Y139940D01*
X296051Y139908D01*
X296131Y139872D01*
X296209Y139833D01*
X296285Y139790D01*
X296359Y139744D01*
X296432Y139695D01*
X296501Y139642D01*
X296569Y139587D01*
X296633Y139528D01*
X296696Y139467D01*
X296755Y139402D01*
X296811Y139336D01*
X296864Y139266D01*
X296915Y139195D01*
X296961Y139121D01*
X297005Y139045D01*
X297045Y138968D01*
X297081Y138888D01*
X297114Y138807D01*
X297144Y138725D01*
X297169Y138641D01*
X297191Y138557D01*
X297209Y138471D01*
X297223Y138385D01*
X297233Y138298D01*
X297240Y138211D01*
X297242Y138124D01*
X297240Y138036D01*
X297235Y137949D01*
X297226Y137862D01*
X297212Y137776D01*
X297213Y137776D02*
X296199Y132023D01*
X302963Y135444D02*
X305934Y133602D01*
X302963Y135444D02*
X302895Y135489D01*
X302828Y135537D01*
X302764Y135588D01*
X302703Y135642D01*
X302644Y135700D01*
X302589Y135760D01*
X302536Y135822D01*
X302486Y135888D01*
X302440Y135955D01*
X302397Y136025D01*
X302357Y136097D01*
X302321Y136170D01*
X302289Y136245D01*
X302260Y136322D01*
X302235Y136400D01*
X302214Y136479D01*
X302197Y136559D01*
X302183Y136640D01*
X302174Y136722D01*
X302168Y136803D01*
X302167Y136885D01*
X302170Y136967D01*
X302176Y137049D01*
X302187Y137130D01*
X302201Y137211D01*
X302219Y137291D01*
X302242Y137370D01*
X302268Y137447D01*
X302297Y137524D01*
X302331Y137598D01*
X302368Y137671D01*
X302409Y137743D01*
X302452Y137812D01*
X302500Y137879D01*
X302550Y137943D01*
X302604Y138005D01*
X302660Y138065D01*
X302720Y138121D01*
X302782Y138175D01*
X302846Y138225D01*
X302913Y138272D01*
X302982Y138316D01*
X303054Y138357D01*
X303127Y138394D01*
X303202Y138427D01*
X303278Y138457D01*
X303356Y138483D01*
X303435Y138505D01*
X303514Y138523D01*
X303595Y138538D01*
X303676Y138548D01*
X303758Y138554D01*
X303840Y138557D01*
X303922Y138555D01*
X304004Y138550D01*
X304085Y138541D01*
X304166Y138527D01*
X304166Y138528D02*
X304340Y138493D01*
X304513Y138453D01*
X304685Y138409D01*
X304855Y138362D01*
X305025Y138310D01*
X305193Y138254D01*
X305360Y138194D01*
X305525Y138130D01*
X305689Y138062D01*
X305851Y137990D01*
X306011Y137915D01*
X306170Y137835D01*
X306326Y137752D01*
X306480Y137665D01*
X306633Y137574D01*
X306783Y137479D01*
X306930Y137382D01*
X305934Y133601D02*
X306002Y133556D01*
X306069Y133508D01*
X306133Y133457D01*
X306194Y133403D01*
X306253Y133345D01*
X306308Y133285D01*
X306361Y133223D01*
X306411Y133157D01*
X306457Y133090D01*
X306500Y133020D01*
X306540Y132948D01*
X306576Y132875D01*
X306608Y132800D01*
X306637Y132723D01*
X306662Y132645D01*
X306683Y132566D01*
X306700Y132486D01*
X306714Y132405D01*
X306723Y132323D01*
X306729Y132242D01*
X306730Y132160D01*
X306727Y132078D01*
X306721Y131996D01*
X306710Y131915D01*
X306696Y131834D01*
X306678Y131754D01*
X306655Y131675D01*
X306629Y131598D01*
X306600Y131521D01*
X306566Y131447D01*
X306529Y131374D01*
X306488Y131302D01*
X306445Y131233D01*
X306397Y131166D01*
X306347Y131102D01*
X306293Y131040D01*
X306237Y130980D01*
X306177Y130924D01*
X306115Y130870D01*
X306051Y130820D01*
X305984Y130773D01*
X305915Y130729D01*
X305843Y130688D01*
X305770Y130651D01*
X305695Y130618D01*
X305619Y130588D01*
X305541Y130562D01*
X305462Y130540D01*
X305383Y130522D01*
X305302Y130507D01*
X305221Y130497D01*
X305139Y130491D01*
X305057Y130488D01*
X304975Y130490D01*
X304893Y130495D01*
X304812Y130504D01*
X304731Y130518D01*
X304731Y130519D02*
X304476Y130570D01*
X304222Y130628D01*
X303970Y130692D01*
X303719Y130762D01*
X303470Y130838D01*
X303223Y130920D01*
X302977Y131007D01*
X302734Y131100D01*
X302494Y131199D01*
X302255Y131304D01*
X302019Y131414D01*
X301786Y131530D01*
X301556Y131651D01*
X301328Y131778D01*
X311422Y131975D02*
X311873Y134532D01*
X311893Y134631D01*
X311916Y134729D01*
X311943Y134826D01*
X311974Y134921D01*
X312008Y135016D01*
X312046Y135109D01*
X312088Y135201D01*
X312133Y135291D01*
X312182Y135379D01*
X312234Y135465D01*
X312289Y135549D01*
X312348Y135631D01*
X312409Y135711D01*
X312474Y135788D01*
X312542Y135862D01*
X312612Y135934D01*
X312685Y136003D01*
X312761Y136070D01*
X312840Y136133D01*
X312920Y136193D01*
X313003Y136250D01*
X313089Y136304D01*
X313176Y136354D01*
X313265Y136401D01*
X313356Y136444D01*
X313448Y136484D01*
X313542Y136520D01*
X313637Y136553D01*
X313734Y136582D01*
X313831Y136607D01*
X313930Y136628D01*
X314029Y136646D01*
X314129Y136659D01*
X314229Y136669D01*
X314329Y136675D01*
X314430Y136677D01*
X314531Y136675D01*
X314631Y136669D01*
X314731Y136659D01*
X314831Y136646D01*
X314930Y136628D01*
X315029Y136607D01*
X315126Y136582D01*
X315223Y136553D01*
X315318Y136520D01*
X315412Y136484D01*
X315504Y136444D01*
X315595Y136401D01*
X315684Y136354D01*
X315771Y136304D01*
X315857Y136250D01*
X315940Y136193D01*
X316020Y136133D01*
X316099Y136070D01*
X316175Y136003D01*
X316248Y135934D01*
X316318Y135862D01*
X316386Y135788D01*
X316451Y135711D01*
X316512Y135631D01*
X316571Y135549D01*
X316626Y135465D01*
X316678Y135379D01*
X316727Y135291D01*
X316772Y135201D01*
X316814Y135109D01*
X316852Y135016D01*
X316886Y134921D01*
X316917Y134826D01*
X316944Y134729D01*
X316967Y134631D01*
X316987Y134532D01*
X317002Y134432D01*
X317014Y134332D01*
X317022Y134232D01*
X317026Y134131D01*
X317026Y134031D01*
X317022Y133930D01*
X317014Y133830D01*
X317002Y133730D01*
X316987Y133630D01*
X316536Y131073D01*
X316516Y130974D01*
X316493Y130876D01*
X316466Y130779D01*
X316435Y130684D01*
X316401Y130589D01*
X316363Y130496D01*
X316321Y130404D01*
X316276Y130314D01*
X316227Y130226D01*
X316175Y130140D01*
X316120Y130056D01*
X316061Y129974D01*
X316000Y129894D01*
X315935Y129817D01*
X315867Y129743D01*
X315797Y129671D01*
X315724Y129602D01*
X315648Y129535D01*
X315569Y129472D01*
X315489Y129412D01*
X315406Y129355D01*
X315320Y129301D01*
X315233Y129251D01*
X315144Y129204D01*
X315053Y129161D01*
X314961Y129121D01*
X314867Y129085D01*
X314772Y129052D01*
X314675Y129023D01*
X314578Y128998D01*
X314479Y128977D01*
X314380Y128959D01*
X314280Y128946D01*
X314180Y128936D01*
X314080Y128930D01*
X313979Y128928D01*
X313878Y128930D01*
X313778Y128936D01*
X313678Y128946D01*
X313578Y128959D01*
X313479Y128977D01*
X313380Y128998D01*
X313283Y129023D01*
X313186Y129052D01*
X313091Y129085D01*
X312997Y129121D01*
X312905Y129161D01*
X312814Y129204D01*
X312725Y129251D01*
X312638Y129301D01*
X312552Y129355D01*
X312469Y129412D01*
X312389Y129472D01*
X312310Y129535D01*
X312234Y129602D01*
X312161Y129671D01*
X312091Y129743D01*
X312023Y129817D01*
X311958Y129894D01*
X311897Y129974D01*
X311838Y130056D01*
X311783Y130140D01*
X311731Y130226D01*
X311682Y130314D01*
X311637Y130404D01*
X311595Y130496D01*
X311557Y130589D01*
X311523Y130684D01*
X311492Y130779D01*
X311465Y130876D01*
X311442Y130974D01*
X311422Y131073D01*
X311407Y131173D01*
X311395Y131273D01*
X311387Y131373D01*
X311383Y131474D01*
X311383Y131574D01*
X311387Y131675D01*
X311395Y131775D01*
X311407Y131875D01*
X311422Y131975D01*
X321167Y127620D02*
X322519Y135291D01*
X326355Y134615D01*
X326130Y133336D01*
X-105664Y-10308D02*
X-117348Y-10308D01*
X-105664Y-11606D02*
X-105664Y-9010D01*
X-117348Y-9010D02*
X-117348Y-11606D01*
X-105664Y-1846D02*
X-105664Y750D01*
X-105664Y-1846D02*
X-105666Y-1945D01*
X-105672Y-2045D01*
X-105681Y-2144D01*
X-105694Y-2242D01*
X-105711Y-2340D01*
X-105732Y-2438D01*
X-105757Y-2534D01*
X-105785Y-2629D01*
X-105817Y-2723D01*
X-105852Y-2816D01*
X-105891Y-2908D01*
X-105934Y-2998D01*
X-105979Y-3086D01*
X-106029Y-3173D01*
X-106081Y-3257D01*
X-106137Y-3340D01*
X-106195Y-3420D01*
X-106257Y-3498D01*
X-106322Y-3573D01*
X-106390Y-3646D01*
X-106460Y-3716D01*
X-106533Y-3784D01*
X-106608Y-3849D01*
X-106686Y-3911D01*
X-106766Y-3969D01*
X-106849Y-4025D01*
X-106933Y-4077D01*
X-107020Y-4127D01*
X-107108Y-4172D01*
X-107198Y-4215D01*
X-107290Y-4254D01*
X-107383Y-4289D01*
X-107477Y-4321D01*
X-107572Y-4349D01*
X-107668Y-4374D01*
X-107766Y-4395D01*
X-107864Y-4412D01*
X-107962Y-4425D01*
X-108061Y-4434D01*
X-108161Y-4440D01*
X-108260Y-4442D01*
X-108260Y-4443D02*
X-114752Y-4443D01*
X-114752Y-4442D02*
X-114851Y-4440D01*
X-114951Y-4434D01*
X-115050Y-4425D01*
X-115148Y-4412D01*
X-115246Y-4395D01*
X-115344Y-4374D01*
X-115440Y-4349D01*
X-115535Y-4321D01*
X-115629Y-4289D01*
X-115722Y-4254D01*
X-115814Y-4215D01*
X-115904Y-4172D01*
X-115992Y-4127D01*
X-116079Y-4077D01*
X-116163Y-4025D01*
X-116246Y-3969D01*
X-116326Y-3911D01*
X-116404Y-3849D01*
X-116479Y-3784D01*
X-116552Y-3716D01*
X-116622Y-3646D01*
X-116690Y-3573D01*
X-116755Y-3498D01*
X-116817Y-3420D01*
X-116875Y-3340D01*
X-116931Y-3257D01*
X-116983Y-3173D01*
X-117033Y-3086D01*
X-117078Y-2998D01*
X-117121Y-2908D01*
X-117160Y-2816D01*
X-117195Y-2724D01*
X-117227Y-2629D01*
X-117255Y-2534D01*
X-117280Y-2438D01*
X-117301Y-2340D01*
X-117318Y-2242D01*
X-117331Y-2144D01*
X-117340Y-2045D01*
X-117346Y-1945D01*
X-117348Y-1846D01*
X-117348Y750D01*
X-114752Y5115D02*
X-117348Y8361D01*
X-105664Y8361D01*
X-105664Y11606D02*
X-105664Y5115D01*
D12*
X-136756Y-28750D02*
X-136754Y-28680D01*
X-136748Y-28610D01*
X-136738Y-28541D01*
X-136725Y-28472D01*
X-136707Y-28404D01*
X-136686Y-28337D01*
X-136661Y-28272D01*
X-136632Y-28208D01*
X-136600Y-28145D01*
X-136564Y-28085D01*
X-136525Y-28027D01*
X-136483Y-27971D01*
X-136438Y-27917D01*
X-136390Y-27866D01*
X-136339Y-27818D01*
X-136285Y-27773D01*
X-136229Y-27731D01*
X-136171Y-27692D01*
X-136111Y-27656D01*
X-136048Y-27624D01*
X-135984Y-27595D01*
X-135919Y-27570D01*
X-135852Y-27549D01*
X-135784Y-27531D01*
X-135715Y-27518D01*
X-135646Y-27508D01*
X-135576Y-27502D01*
X-135506Y-27500D01*
X-135436Y-27502D01*
X-135366Y-27508D01*
X-135297Y-27518D01*
X-135228Y-27531D01*
X-135160Y-27549D01*
X-135093Y-27570D01*
X-135028Y-27595D01*
X-134964Y-27624D01*
X-134901Y-27656D01*
X-134841Y-27692D01*
X-134783Y-27731D01*
X-134727Y-27773D01*
X-134673Y-27818D01*
X-134622Y-27866D01*
X-134574Y-27917D01*
X-134529Y-27971D01*
X-134487Y-28027D01*
X-134448Y-28085D01*
X-134412Y-28145D01*
X-134380Y-28208D01*
X-134351Y-28272D01*
X-134326Y-28337D01*
X-134305Y-28404D01*
X-134287Y-28472D01*
X-134274Y-28541D01*
X-134264Y-28610D01*
X-134258Y-28680D01*
X-134256Y-28750D01*
X-134258Y-28820D01*
X-134264Y-28890D01*
X-134274Y-28959D01*
X-134287Y-29028D01*
X-134305Y-29096D01*
X-134326Y-29163D01*
X-134351Y-29228D01*
X-134380Y-29292D01*
X-134412Y-29355D01*
X-134448Y-29415D01*
X-134487Y-29473D01*
X-134529Y-29529D01*
X-134574Y-29583D01*
X-134622Y-29634D01*
X-134673Y-29682D01*
X-134727Y-29727D01*
X-134783Y-29769D01*
X-134841Y-29808D01*
X-134901Y-29844D01*
X-134964Y-29876D01*
X-135028Y-29905D01*
X-135093Y-29930D01*
X-135160Y-29951D01*
X-135228Y-29969D01*
X-135297Y-29982D01*
X-135366Y-29992D01*
X-135436Y-29998D01*
X-135506Y-30000D01*
X-135576Y-29998D01*
X-135646Y-29992D01*
X-135715Y-29982D01*
X-135784Y-29969D01*
X-135852Y-29951D01*
X-135919Y-29930D01*
X-135984Y-29905D01*
X-136048Y-29876D01*
X-136111Y-29844D01*
X-136171Y-29808D01*
X-136229Y-29769D01*
X-136285Y-29727D01*
X-136339Y-29682D01*
X-136390Y-29634D01*
X-136438Y-29583D01*
X-136483Y-29529D01*
X-136525Y-29473D01*
X-136564Y-29415D01*
X-136600Y-29355D01*
X-136632Y-29292D01*
X-136661Y-29228D01*
X-136686Y-29163D01*
X-136707Y-29096D01*
X-136725Y-29028D01*
X-136738Y-28959D01*
X-136748Y-28890D01*
X-136754Y-28820D01*
X-136756Y-28750D01*
D13*
X-284011Y-121149D02*
X-279833Y-129008D01*
X-284011Y-121149D02*
X-304672Y-132135D01*
X-316325Y-150903D02*
X-293884Y-193108D01*
X-255326Y-175098D02*
X-251148Y-182956D01*
X-271809Y-193941D01*
D14*
X-263400Y-126647D02*
X-263398Y-126584D01*
X-263392Y-126522D01*
X-263382Y-126460D01*
X-263369Y-126398D01*
X-263351Y-126338D01*
X-263330Y-126279D01*
X-263305Y-126221D01*
X-263276Y-126165D01*
X-263244Y-126111D01*
X-263209Y-126059D01*
X-263171Y-126010D01*
X-263129Y-125962D01*
X-263085Y-125918D01*
X-263037Y-125876D01*
X-262988Y-125838D01*
X-262936Y-125803D01*
X-262882Y-125771D01*
X-262826Y-125742D01*
X-262768Y-125717D01*
X-262709Y-125696D01*
X-262649Y-125678D01*
X-262587Y-125665D01*
X-262525Y-125655D01*
X-262463Y-125649D01*
X-262400Y-125647D01*
X-262337Y-125649D01*
X-262275Y-125655D01*
X-262213Y-125665D01*
X-262151Y-125678D01*
X-262091Y-125696D01*
X-262032Y-125717D01*
X-261974Y-125742D01*
X-261918Y-125771D01*
X-261864Y-125803D01*
X-261812Y-125838D01*
X-261763Y-125876D01*
X-261715Y-125918D01*
X-261671Y-125962D01*
X-261629Y-126010D01*
X-261591Y-126059D01*
X-261556Y-126111D01*
X-261524Y-126165D01*
X-261495Y-126221D01*
X-261470Y-126279D01*
X-261449Y-126338D01*
X-261431Y-126398D01*
X-261418Y-126460D01*
X-261408Y-126522D01*
X-261402Y-126584D01*
X-261400Y-126647D01*
X-261402Y-126710D01*
X-261408Y-126772D01*
X-261418Y-126834D01*
X-261431Y-126896D01*
X-261449Y-126956D01*
X-261470Y-127015D01*
X-261495Y-127073D01*
X-261524Y-127129D01*
X-261556Y-127183D01*
X-261591Y-127235D01*
X-261629Y-127284D01*
X-261671Y-127332D01*
X-261715Y-127376D01*
X-261763Y-127418D01*
X-261812Y-127456D01*
X-261864Y-127491D01*
X-261918Y-127523D01*
X-261974Y-127552D01*
X-262032Y-127577D01*
X-262091Y-127598D01*
X-262151Y-127616D01*
X-262213Y-127629D01*
X-262275Y-127639D01*
X-262337Y-127645D01*
X-262400Y-127647D01*
X-262463Y-127645D01*
X-262525Y-127639D01*
X-262587Y-127629D01*
X-262649Y-127616D01*
X-262709Y-127598D01*
X-262768Y-127577D01*
X-262826Y-127552D01*
X-262882Y-127523D01*
X-262936Y-127491D01*
X-262988Y-127456D01*
X-263037Y-127418D01*
X-263085Y-127376D01*
X-263129Y-127332D01*
X-263171Y-127284D01*
X-263209Y-127235D01*
X-263244Y-127183D01*
X-263276Y-127129D01*
X-263305Y-127073D01*
X-263330Y-127015D01*
X-263351Y-126956D01*
X-263369Y-126896D01*
X-263382Y-126834D01*
X-263392Y-126772D01*
X-263398Y-126710D01*
X-263400Y-126647D01*
D15*
X-265089Y-110903D02*
X-260030Y-108213D01*
X-265088Y-110903D02*
X-265160Y-110939D01*
X-265234Y-110972D01*
X-265309Y-111001D01*
X-265385Y-111026D01*
X-265463Y-111047D01*
X-265541Y-111064D01*
X-265620Y-111078D01*
X-265700Y-111087D01*
X-265780Y-111093D01*
X-265861Y-111095D01*
X-265941Y-111093D01*
X-266021Y-111087D01*
X-266101Y-111077D01*
X-266180Y-111063D01*
X-266258Y-111045D01*
X-266336Y-111023D01*
X-266412Y-110998D01*
X-266487Y-110969D01*
X-266560Y-110936D01*
X-266632Y-110900D01*
X-266702Y-110860D01*
X-266769Y-110817D01*
X-266835Y-110771D01*
X-266898Y-110721D01*
X-266959Y-110669D01*
X-267017Y-110613D01*
X-267072Y-110555D01*
X-267125Y-110494D01*
X-267174Y-110430D01*
X-267220Y-110364D01*
X-267263Y-110297D01*
X-267302Y-110227D01*
X-267302Y-110226D02*
X-267687Y-109503D01*
X-259863Y-112014D02*
X-257457Y-113052D01*
X-263961Y-116510D01*
X-264922Y-114704D02*
X-263000Y-118317D01*
D16*
X-137506Y336219D02*
X-112106Y336219D01*
X-112106Y361619D01*
X-137506Y361619D01*
X-137506Y336219D01*
D17*
X-124806Y367969D02*
X-124806Y425119D01*
D16*
X-112106Y336219D02*
X-86706Y336219D01*
X-86706Y361619D01*
X-112106Y361619D01*
D17*
X-99406Y367969D02*
X-99406Y425119D01*
D16*
X-86706Y336219D02*
X-61306Y336219D01*
X-61306Y361619D01*
X-86706Y361619D01*
D17*
X-74006Y367969D02*
X-74006Y425119D01*
D16*
X-61306Y336219D02*
X-35906Y336219D01*
X-35906Y361619D01*
X-61306Y361619D01*
D17*
X-48606Y367969D02*
X-48606Y425119D01*
D16*
X-35906Y336219D02*
X-10506Y336219D01*
X-10506Y361619D01*
X-35906Y361619D01*
D17*
X-23206Y367969D02*
X-23206Y425119D01*
D16*
X-10506Y336219D02*
X14894Y336219D01*
X14894Y361619D01*
X-10506Y361619D01*
D17*
X2194Y367969D02*
X2194Y425119D01*
D16*
X14894Y336219D02*
X40294Y336219D01*
X40294Y361619D01*
X14894Y361619D01*
D17*
X27594Y367969D02*
X27594Y425119D01*
D16*
X40294Y336219D02*
X65694Y336219D01*
X65694Y361619D01*
X40294Y361619D01*
D17*
X52994Y367969D02*
X52994Y425119D01*
D16*
X65694Y336219D02*
X91094Y336219D01*
X91094Y361619D01*
X65694Y361619D01*
D17*
X78394Y367969D02*
X78394Y425119D01*
D16*
X91094Y336219D02*
X116494Y336219D01*
X116494Y361619D01*
X91094Y361619D01*
D17*
X103794Y367969D02*
X103794Y425119D01*
D16*
X116494Y336219D02*
X141894Y336219D01*
X141894Y361619D01*
X116494Y361619D01*
D17*
X129194Y367969D02*
X129194Y425119D01*
D13*
X-147031Y321614D02*
X-155921Y321614D01*
X-147031Y321614D02*
X-146931Y321612D01*
X-146832Y321606D01*
X-146732Y321596D01*
X-146634Y321583D01*
X-146535Y321565D01*
X-146438Y321544D01*
X-146342Y321519D01*
X-146246Y321490D01*
X-146152Y321457D01*
X-146059Y321421D01*
X-145968Y321381D01*
X-145878Y321337D01*
X-145790Y321290D01*
X-145704Y321240D01*
X-145620Y321186D01*
X-145538Y321129D01*
X-145459Y321069D01*
X-145381Y321005D01*
X-145307Y320939D01*
X-145235Y320870D01*
X-145166Y320798D01*
X-145100Y320724D01*
X-145036Y320646D01*
X-144976Y320567D01*
X-144919Y320485D01*
X-144865Y320401D01*
X-144815Y320315D01*
X-144768Y320227D01*
X-144724Y320137D01*
X-144684Y320046D01*
X-144648Y319953D01*
X-144615Y319859D01*
X-144586Y319763D01*
X-144561Y319667D01*
X-144540Y319570D01*
X-144522Y319471D01*
X-144509Y319373D01*
X-144499Y319273D01*
X-144493Y319174D01*
X-144491Y319074D01*
X-144491Y317804D01*
X-144491Y327594D02*
X-155921Y327594D01*
X-155921Y330769D01*
X-155919Y330880D01*
X-155913Y330990D01*
X-155904Y331101D01*
X-155890Y331211D01*
X-155873Y331320D01*
X-155852Y331429D01*
X-155827Y331537D01*
X-155798Y331644D01*
X-155766Y331750D01*
X-155730Y331855D01*
X-155690Y331958D01*
X-155647Y332060D01*
X-155600Y332161D01*
X-155549Y332260D01*
X-155496Y332357D01*
X-155439Y332451D01*
X-155378Y332544D01*
X-155315Y332635D01*
X-155248Y332724D01*
X-155178Y332810D01*
X-155105Y332893D01*
X-155030Y332975D01*
X-154952Y333053D01*
X-154870Y333128D01*
X-154787Y333201D01*
X-154701Y333271D01*
X-154612Y333338D01*
X-154521Y333401D01*
X-154428Y333462D01*
X-154334Y333519D01*
X-154237Y333572D01*
X-154138Y333623D01*
X-154037Y333670D01*
X-153935Y333713D01*
X-153832Y333753D01*
X-153727Y333789D01*
X-153621Y333821D01*
X-153514Y333850D01*
X-153406Y333875D01*
X-153297Y333896D01*
X-153188Y333913D01*
X-153078Y333927D01*
X-152967Y333936D01*
X-152857Y333942D01*
X-152746Y333944D01*
X-152635Y333942D01*
X-152525Y333936D01*
X-152414Y333927D01*
X-152304Y333913D01*
X-152195Y333896D01*
X-152086Y333875D01*
X-151978Y333850D01*
X-151871Y333821D01*
X-151765Y333789D01*
X-151660Y333753D01*
X-151557Y333713D01*
X-151455Y333670D01*
X-151354Y333623D01*
X-151255Y333572D01*
X-151159Y333519D01*
X-151064Y333462D01*
X-150971Y333401D01*
X-150880Y333338D01*
X-150791Y333271D01*
X-150705Y333201D01*
X-150622Y333128D01*
X-150540Y333053D01*
X-150462Y332975D01*
X-150387Y332893D01*
X-150314Y332810D01*
X-150244Y332724D01*
X-150177Y332635D01*
X-150114Y332544D01*
X-150053Y332451D01*
X-149996Y332357D01*
X-149943Y332260D01*
X-149892Y332161D01*
X-149845Y332060D01*
X-149802Y331958D01*
X-149762Y331855D01*
X-149726Y331750D01*
X-149694Y331644D01*
X-149665Y331537D01*
X-149640Y331429D01*
X-149619Y331320D01*
X-149602Y331211D01*
X-149588Y331101D01*
X-149579Y330990D01*
X-149573Y330880D01*
X-149571Y330769D01*
X-149571Y327594D01*
X-153381Y338452D02*
X-155921Y341627D01*
X-144491Y341627D01*
X-144491Y338452D02*
X-144491Y344802D01*
D18*
X-124806Y364159D03*
X-99406Y364159D03*
X-74006Y364159D03*
X-48606Y364159D03*
X-23206Y364159D03*
X2194Y364159D03*
X27594Y364159D03*
X52994Y364159D03*
X78394Y364159D03*
X103794Y364159D03*
X129194Y364159D03*
D19*
X-124806Y331139D03*
X-99406Y331139D03*
X-74006Y331139D03*
X-48606Y331139D03*
X-23206Y331139D03*
X2194Y331139D03*
X27594Y331139D03*
X52994Y331139D03*
X78394Y331139D03*
X103794Y331139D03*
X129194Y331139D03*
D11*
X280802Y-159132D02*
X288509Y-163948D01*
X288509Y-163947D02*
X288592Y-164002D01*
X288673Y-164059D01*
X288752Y-164120D01*
X288829Y-164183D01*
X288903Y-164250D01*
X288974Y-164319D01*
X289043Y-164391D01*
X289109Y-164465D01*
X289172Y-164542D01*
X289232Y-164621D01*
X289289Y-164703D01*
X289343Y-164786D01*
X289393Y-164872D01*
X289441Y-164960D01*
X289484Y-165049D01*
X289525Y-165140D01*
X289562Y-165232D01*
X289595Y-165326D01*
X289625Y-165421D01*
X289651Y-165517D01*
X289673Y-165614D01*
X289692Y-165711D01*
X289707Y-165810D01*
X289718Y-165908D01*
X289725Y-166008D01*
X289729Y-166107D01*
X289728Y-166206D01*
X289724Y-166306D01*
X289716Y-166405D01*
X289705Y-166504D01*
X289689Y-166602D01*
X289670Y-166700D01*
X289647Y-166796D01*
X289620Y-166892D01*
X289590Y-166987D01*
X289556Y-167080D01*
X289519Y-167172D01*
X289478Y-167263D01*
X289433Y-167352D01*
X289386Y-167439D01*
X289335Y-167525D01*
X288647Y-168626D01*
X285489Y-151632D02*
X285547Y-151543D01*
X285608Y-151455D01*
X285673Y-151370D01*
X285741Y-151288D01*
X285811Y-151208D01*
X285885Y-151131D01*
X285961Y-151056D01*
X286040Y-150984D01*
X286121Y-150915D01*
X286205Y-150849D01*
X286292Y-150787D01*
X286380Y-150727D01*
X286471Y-150671D01*
X286563Y-150618D01*
X286658Y-150568D01*
X286754Y-150522D01*
X286852Y-150480D01*
X286951Y-150441D01*
X287052Y-150406D01*
X287154Y-150374D01*
X287257Y-150346D01*
X287361Y-150322D01*
X287466Y-150302D01*
X287571Y-150286D01*
X287677Y-150273D01*
X287784Y-150265D01*
X287890Y-150260D01*
X287997Y-150259D01*
X288103Y-150262D01*
X288210Y-150269D01*
X288316Y-150280D01*
X288422Y-150295D01*
X288527Y-150313D01*
X288631Y-150336D01*
X288735Y-150362D01*
X288837Y-150392D01*
X288938Y-150426D01*
X289038Y-150463D01*
X289137Y-150504D01*
X289234Y-150548D01*
X289329Y-150596D01*
X289422Y-150648D01*
X289514Y-150703D01*
X285488Y-151632D02*
X285426Y-151736D01*
X285367Y-151841D01*
X285311Y-151949D01*
X285259Y-152058D01*
X285210Y-152169D01*
X285165Y-152281D01*
X285124Y-152395D01*
X285086Y-152510D01*
X285052Y-152626D01*
X285022Y-152743D01*
X284996Y-152861D01*
X284973Y-152980D01*
X284954Y-153100D01*
X284939Y-153220D01*
X284928Y-153340D01*
X284921Y-153461D01*
X284918Y-153582D01*
X284919Y-153703D01*
X284924Y-153824D01*
X284932Y-153945D01*
X284944Y-154065D01*
X284961Y-154185D01*
X284981Y-154305D01*
X285005Y-154423D01*
X285033Y-154541D01*
X285064Y-154658D01*
X285099Y-154774D01*
X285138Y-154888D01*
X285181Y-155001D01*
X285227Y-155113D01*
X285277Y-155223D01*
X285331Y-155332D01*
X285388Y-155439D01*
X285448Y-155544D01*
X285512Y-155647D01*
X285579Y-155747D01*
X285649Y-155846D01*
X285722Y-155942D01*
X285798Y-156036D01*
X290925Y-152733D02*
X290901Y-152625D01*
X290873Y-152518D01*
X290841Y-152412D01*
X290806Y-152308D01*
X290767Y-152204D01*
X290724Y-152102D01*
X290678Y-152002D01*
X290628Y-151903D01*
X290575Y-151806D01*
X290519Y-151712D01*
X290459Y-151619D01*
X290396Y-151528D01*
X290330Y-151440D01*
X290260Y-151353D01*
X290188Y-151270D01*
X290113Y-151189D01*
X290035Y-151111D01*
X289954Y-151035D01*
X289871Y-150963D01*
X289785Y-150893D01*
X289697Y-150826D01*
X289607Y-150763D01*
X289514Y-150703D01*
X290924Y-152732D02*
X293505Y-160851D01*
X296945Y-155347D01*
D20*
X175609Y-197382D02*
X175611Y-197285D01*
X175617Y-197189D01*
X175627Y-197092D01*
X175641Y-196997D01*
X175658Y-196901D01*
X175680Y-196807D01*
X175705Y-196714D01*
X175734Y-196621D01*
X175767Y-196530D01*
X175804Y-196441D01*
X175844Y-196353D01*
X175888Y-196267D01*
X175935Y-196182D01*
X175986Y-196100D01*
X176040Y-196019D01*
X176097Y-195941D01*
X176157Y-195866D01*
X176220Y-195792D01*
X176287Y-195722D01*
X176356Y-195654D01*
X176428Y-195589D01*
X176502Y-195527D01*
X176579Y-195469D01*
X176658Y-195413D01*
X176740Y-195361D01*
X176823Y-195312D01*
X176908Y-195266D01*
X176996Y-195224D01*
X177084Y-195186D01*
X177175Y-195151D01*
X177266Y-195120D01*
X177359Y-195093D01*
X177453Y-195069D01*
X177548Y-195050D01*
X177643Y-195034D01*
X177739Y-195022D01*
X177836Y-195014D01*
X177933Y-195010D01*
X178029Y-195010D01*
X178126Y-195014D01*
X178223Y-195022D01*
X178319Y-195034D01*
X178414Y-195050D01*
X178509Y-195069D01*
X178603Y-195093D01*
X178696Y-195120D01*
X178787Y-195151D01*
X178878Y-195186D01*
X178966Y-195224D01*
X179054Y-195266D01*
X179139Y-195312D01*
X179222Y-195361D01*
X179304Y-195413D01*
X179383Y-195469D01*
X179460Y-195527D01*
X179534Y-195589D01*
X179606Y-195654D01*
X179675Y-195722D01*
X179742Y-195792D01*
X179805Y-195866D01*
X179865Y-195941D01*
X179922Y-196019D01*
X179976Y-196100D01*
X180027Y-196182D01*
X180074Y-196267D01*
X180118Y-196353D01*
X180158Y-196441D01*
X180195Y-196530D01*
X180228Y-196621D01*
X180257Y-196714D01*
X180282Y-196807D01*
X180304Y-196901D01*
X180321Y-196997D01*
X180335Y-197092D01*
X180345Y-197189D01*
X180351Y-197285D01*
X180353Y-197382D01*
X180351Y-197479D01*
X180345Y-197575D01*
X180335Y-197672D01*
X180321Y-197767D01*
X180304Y-197863D01*
X180282Y-197957D01*
X180257Y-198050D01*
X180228Y-198143D01*
X180195Y-198234D01*
X180158Y-198323D01*
X180118Y-198411D01*
X180074Y-198497D01*
X180027Y-198582D01*
X179976Y-198664D01*
X179922Y-198745D01*
X179865Y-198823D01*
X179805Y-198898D01*
X179742Y-198972D01*
X179675Y-199042D01*
X179606Y-199110D01*
X179534Y-199175D01*
X179460Y-199237D01*
X179383Y-199295D01*
X179304Y-199351D01*
X179222Y-199403D01*
X179139Y-199452D01*
X179054Y-199498D01*
X178966Y-199540D01*
X178878Y-199578D01*
X178787Y-199613D01*
X178696Y-199644D01*
X178603Y-199671D01*
X178509Y-199695D01*
X178414Y-199714D01*
X178319Y-199730D01*
X178223Y-199742D01*
X178126Y-199750D01*
X178029Y-199754D01*
X177933Y-199754D01*
X177836Y-199750D01*
X177739Y-199742D01*
X177643Y-199730D01*
X177548Y-199714D01*
X177453Y-199695D01*
X177359Y-199671D01*
X177266Y-199644D01*
X177175Y-199613D01*
X177084Y-199578D01*
X176996Y-199540D01*
X176908Y-199498D01*
X176823Y-199452D01*
X176740Y-199403D01*
X176658Y-199351D01*
X176579Y-199295D01*
X176502Y-199237D01*
X176428Y-199175D01*
X176356Y-199110D01*
X176287Y-199042D01*
X176220Y-198972D01*
X176157Y-198898D01*
X176097Y-198823D01*
X176040Y-198745D01*
X175986Y-198664D01*
X175935Y-198582D01*
X175888Y-198497D01*
X175844Y-198411D01*
X175804Y-198323D01*
X175767Y-198234D01*
X175734Y-198143D01*
X175705Y-198050D01*
X175680Y-197957D01*
X175658Y-197863D01*
X175641Y-197767D01*
X175627Y-197672D01*
X175617Y-197575D01*
X175611Y-197479D01*
X175609Y-197382D01*
D14*
X267526Y-226333D02*
X324535Y-135100D01*
X300909Y-101199D02*
X268683Y-81062D01*
X194495Y-199789D02*
X226721Y-219926D01*
X194495Y-199789D02*
X206678Y-180292D01*
X256935Y-99863D02*
X268683Y-81062D01*
D16*
X355036Y67653D02*
X359447Y92667D01*
X355036Y67653D02*
X380050Y63243D01*
X384461Y88257D01*
X359447Y92667D01*
D17*
X388509Y74647D02*
X444791Y64723D01*
D16*
X355036Y67653D02*
X350625Y42639D01*
X375639Y38229D01*
X380050Y63243D01*
D17*
X384098Y49633D02*
X440380Y39709D01*
D16*
X350625Y42639D02*
X346215Y17625D01*
X371229Y13214D01*
X375639Y38229D01*
D17*
X379688Y24619D02*
X435969Y14695D01*
D16*
X346215Y17625D02*
X341804Y-7389D01*
X366818Y-11800D01*
X371229Y13214D01*
D17*
X375277Y-395D02*
X431559Y-10319D01*
D16*
X341804Y-7389D02*
X337393Y-32403D01*
X362407Y-36814D01*
X366818Y-11800D01*
D17*
X370866Y-25409D02*
X427148Y-35333D01*
D16*
X337393Y-32403D02*
X332983Y-57417D01*
X357997Y-61828D01*
X362407Y-36814D01*
D17*
X366456Y-50424D02*
X422737Y-60347D01*
D16*
X332983Y-57417D02*
X328572Y-82431D01*
X353586Y-86842D01*
X357997Y-61828D01*
D17*
X362045Y-75438D02*
X418327Y-85362D01*
D13*
X346717Y104584D02*
X348261Y113339D01*
X346717Y104584D02*
X346698Y104486D01*
X346675Y104389D01*
X346648Y104293D01*
X346618Y104198D01*
X346583Y104104D01*
X346545Y104012D01*
X346504Y103922D01*
X346459Y103833D01*
X346410Y103745D01*
X346358Y103660D01*
X346303Y103577D01*
X346245Y103496D01*
X346183Y103418D01*
X346118Y103342D01*
X346051Y103269D01*
X345980Y103198D01*
X345907Y103130D01*
X345832Y103065D01*
X345753Y103003D01*
X345673Y102944D01*
X345590Y102889D01*
X345505Y102836D01*
X345418Y102788D01*
X345329Y102742D01*
X345239Y102700D01*
X345147Y102662D01*
X345053Y102627D01*
X344959Y102596D01*
X344863Y102569D01*
X344766Y102545D01*
X344668Y102526D01*
X344570Y102510D01*
X344471Y102498D01*
X344371Y102490D01*
X344271Y102486D01*
X344172Y102485D01*
X344072Y102489D01*
X343973Y102497D01*
X343874Y102508D01*
X343775Y102524D01*
X343775Y102523D02*
X342524Y102744D01*
X352166Y101044D02*
X354151Y112300D01*
X357277Y111749D01*
X357386Y111728D01*
X357494Y111703D01*
X357601Y111674D01*
X357707Y111642D01*
X357812Y111606D01*
X357915Y111566D01*
X358017Y111523D01*
X358118Y111476D01*
X358217Y111425D01*
X358314Y111372D01*
X358409Y111315D01*
X358501Y111254D01*
X358592Y111191D01*
X358681Y111124D01*
X358767Y111054D01*
X358850Y110981D01*
X358932Y110906D01*
X359010Y110828D01*
X359085Y110746D01*
X359158Y110663D01*
X359228Y110577D01*
X359295Y110488D01*
X359358Y110397D01*
X359419Y110304D01*
X359476Y110209D01*
X359529Y110113D01*
X359580Y110014D01*
X359627Y109913D01*
X359670Y109811D01*
X359710Y109708D01*
X359746Y109603D01*
X359778Y109497D01*
X359807Y109390D01*
X359832Y109282D01*
X359853Y109173D01*
X359870Y109064D01*
X359884Y108954D01*
X359893Y108843D01*
X359899Y108733D01*
X359901Y108622D01*
X359899Y108511D01*
X359893Y108401D01*
X359884Y108290D01*
X359870Y108180D01*
X359853Y108071D01*
X359832Y107962D01*
X359807Y107854D01*
X359778Y107747D01*
X359746Y107641D01*
X359710Y107536D01*
X359670Y107433D01*
X359627Y107331D01*
X359580Y107230D01*
X359529Y107131D01*
X359476Y107034D01*
X359419Y106939D01*
X359358Y106847D01*
X359295Y106756D01*
X359228Y106667D01*
X359158Y106581D01*
X359085Y106498D01*
X359010Y106416D01*
X358932Y106338D01*
X358850Y106263D01*
X358767Y106190D01*
X358681Y106120D01*
X358592Y106053D01*
X358501Y105990D01*
X358408Y105929D01*
X358313Y105872D01*
X358217Y105819D01*
X358118Y105768D01*
X358017Y105721D01*
X357915Y105678D01*
X357812Y105638D01*
X357707Y105602D01*
X357601Y105570D01*
X357494Y105541D01*
X357386Y105516D01*
X357277Y105495D01*
X357168Y105478D01*
X357058Y105464D01*
X356947Y105455D01*
X356837Y105449D01*
X356726Y105447D01*
X356615Y105449D01*
X356505Y105455D01*
X356394Y105464D01*
X356284Y105478D01*
X356175Y105495D01*
X353048Y106047D01*
X368283Y109808D02*
X368386Y109788D01*
X368487Y109764D01*
X368588Y109736D01*
X368687Y109705D01*
X368786Y109671D01*
X368883Y109632D01*
X368979Y109591D01*
X369073Y109545D01*
X369165Y109497D01*
X369255Y109445D01*
X369344Y109389D01*
X369430Y109331D01*
X369515Y109269D01*
X369597Y109205D01*
X369676Y109137D01*
X369753Y109067D01*
X369828Y108994D01*
X369899Y108918D01*
X369968Y108839D01*
X370034Y108758D01*
X370097Y108675D01*
X370157Y108590D01*
X370214Y108502D01*
X370267Y108412D01*
X370317Y108321D01*
X370364Y108228D01*
X370407Y108133D01*
X370447Y108036D01*
X370483Y107938D01*
X370516Y107839D01*
X370545Y107739D01*
X370571Y107638D01*
X370592Y107536D01*
X370610Y107433D01*
X370624Y107330D01*
X370635Y107226D01*
X370641Y107122D01*
X370644Y107017D01*
X370643Y106913D01*
X370638Y106809D01*
X370629Y106705D01*
X370617Y106601D01*
X370601Y106498D01*
X368283Y109808D02*
X368167Y109827D01*
X368049Y109842D01*
X367931Y109853D01*
X367813Y109860D01*
X367695Y109864D01*
X367576Y109863D01*
X367458Y109859D01*
X367340Y109851D01*
X367222Y109839D01*
X367105Y109824D01*
X366988Y109805D01*
X366872Y109781D01*
X366757Y109755D01*
X366642Y109724D01*
X366529Y109690D01*
X366417Y109652D01*
X366306Y109611D01*
X366197Y109566D01*
X366089Y109517D01*
X365982Y109465D01*
X365878Y109410D01*
X365775Y109351D01*
X365674Y109289D01*
X365575Y109224D01*
X365478Y109156D01*
X365384Y109084D01*
X365292Y109010D01*
X365202Y108933D01*
X365115Y108852D01*
X365031Y108769D01*
X364949Y108684D01*
X364870Y108596D01*
X364794Y108505D01*
X364721Y108412D01*
X364651Y108316D01*
X364584Y108219D01*
X364521Y108119D01*
X364460Y108017D01*
X364403Y107913D01*
X369277Y104475D02*
X369366Y104536D01*
X369453Y104601D01*
X369537Y104668D01*
X369619Y104739D01*
X369699Y104812D01*
X369776Y104888D01*
X369850Y104966D01*
X369921Y105048D01*
X369989Y105131D01*
X370055Y105217D01*
X370117Y105306D01*
X370176Y105396D01*
X370232Y105489D01*
X370285Y105583D01*
X370334Y105679D01*
X370380Y105777D01*
X370422Y105876D01*
X370461Y105977D01*
X370497Y106079D01*
X370528Y106182D01*
X370556Y106287D01*
X370581Y106392D01*
X370601Y106498D01*
X369277Y104475D02*
X362859Y99158D01*
X369113Y98056D01*
D18*
G36*
X381594Y71998D02*
X382918Y79502D01*
X387920Y78620D01*
X386596Y71116D01*
X381594Y71998D01*
G37*
G36*
X377183Y46984D02*
X378507Y54488D01*
X383509Y53606D01*
X382185Y46102D01*
X377183Y46984D01*
G37*
G36*
X372773Y21969D02*
X374097Y29473D01*
X379099Y28591D01*
X377775Y21087D01*
X372773Y21969D01*
G37*
G36*
X368362Y-3045D02*
X369686Y4459D01*
X374688Y3577D01*
X373364Y-3927D01*
X368362Y-3045D01*
G37*
G36*
X363951Y-28059D02*
X365275Y-20555D01*
X370277Y-21437D01*
X368953Y-28941D01*
X363951Y-28059D01*
G37*
G36*
X359541Y-53073D02*
X360865Y-45569D01*
X365867Y-46451D01*
X364543Y-53955D01*
X359541Y-53073D01*
G37*
G36*
X355130Y-78087D02*
X356454Y-70583D01*
X361456Y-71465D01*
X360132Y-78969D01*
X355130Y-78087D01*
G37*
D19*
G36*
X346574Y78174D02*
X347897Y85677D01*
X357902Y83912D01*
X356579Y76409D01*
X346574Y78174D01*
G37*
G36*
X342164Y53159D02*
X343487Y60662D01*
X353492Y58897D01*
X352169Y51394D01*
X342164Y53159D01*
G37*
G36*
X337753Y28145D02*
X339076Y35648D01*
X349081Y33883D01*
X347758Y26380D01*
X337753Y28145D01*
G37*
G36*
X333342Y3131D02*
X334665Y10634D01*
X344670Y8869D01*
X343347Y1366D01*
X333342Y3131D01*
G37*
G36*
X328932Y-21883D02*
X330255Y-14380D01*
X340260Y-16145D01*
X338937Y-23648D01*
X328932Y-21883D01*
G37*
G36*
X324521Y-46897D02*
X325844Y-39394D01*
X335849Y-41159D01*
X334526Y-48662D01*
X324521Y-46897D01*
G37*
G36*
X320111Y-71911D02*
X321434Y-64408D01*
X331439Y-66173D01*
X330116Y-73676D01*
X320111Y-71911D01*
G37*
D11*
X-317765Y-91308D02*
X-319063Y-89059D01*
X-319062Y-89059D02*
X-319110Y-88972D01*
X-319155Y-88883D01*
X-319196Y-88793D01*
X-319234Y-88701D01*
X-319268Y-88607D01*
X-319299Y-88513D01*
X-319326Y-88417D01*
X-319349Y-88320D01*
X-319369Y-88223D01*
X-319384Y-88124D01*
X-319396Y-88026D01*
X-319405Y-87927D01*
X-319409Y-87827D01*
X-319410Y-87728D01*
X-319407Y-87628D01*
X-319400Y-87529D01*
X-319389Y-87430D01*
X-319374Y-87332D01*
X-319356Y-87234D01*
X-319334Y-87137D01*
X-319308Y-87041D01*
X-319279Y-86946D01*
X-319246Y-86852D01*
X-319209Y-86760D01*
X-319169Y-86669D01*
X-319126Y-86579D01*
X-319079Y-86492D01*
X-319028Y-86406D01*
X-318975Y-86322D01*
X-318918Y-86240D01*
X-318858Y-86161D01*
X-318796Y-86084D01*
X-318730Y-86009D01*
X-318661Y-85937D01*
X-318590Y-85868D01*
X-318516Y-85801D01*
X-318440Y-85737D01*
X-318361Y-85676D01*
X-318280Y-85619D01*
X-318197Y-85564D01*
X-318112Y-85513D01*
X-318113Y-85513D02*
X-312491Y-82267D01*
X-312491Y-82268D02*
X-312404Y-82220D01*
X-312315Y-82175D01*
X-312225Y-82134D01*
X-312133Y-82096D01*
X-312039Y-82062D01*
X-311945Y-82031D01*
X-311849Y-82004D01*
X-311752Y-81981D01*
X-311655Y-81961D01*
X-311556Y-81946D01*
X-311458Y-81934D01*
X-311359Y-81925D01*
X-311259Y-81921D01*
X-311160Y-81920D01*
X-311060Y-81923D01*
X-310961Y-81930D01*
X-310862Y-81941D01*
X-310764Y-81956D01*
X-310666Y-81974D01*
X-310569Y-81996D01*
X-310473Y-82022D01*
X-310378Y-82051D01*
X-310284Y-82084D01*
X-310192Y-82121D01*
X-310101Y-82161D01*
X-310011Y-82204D01*
X-309924Y-82251D01*
X-309838Y-82302D01*
X-309754Y-82355D01*
X-309672Y-82412D01*
X-309593Y-82472D01*
X-309516Y-82534D01*
X-309441Y-82600D01*
X-309369Y-82669D01*
X-309300Y-82740D01*
X-309233Y-82814D01*
X-309169Y-82890D01*
X-309109Y-82969D01*
X-309051Y-83050D01*
X-308996Y-83133D01*
X-308945Y-83218D01*
X-308944Y-83217D02*
X-307646Y-85466D01*
X-307712Y-90545D02*
X-303841Y-92057D01*
X-313959Y-97899D01*
X-315582Y-95089D02*
X-312337Y-100710D01*
X-279559Y-69010D02*
X-280857Y-66762D01*
X-280857Y-66761D02*
X-280905Y-66674D01*
X-280950Y-66585D01*
X-280991Y-66495D01*
X-281029Y-66403D01*
X-281063Y-66309D01*
X-281094Y-66215D01*
X-281121Y-66119D01*
X-281144Y-66022D01*
X-281164Y-65925D01*
X-281179Y-65826D01*
X-281191Y-65728D01*
X-281200Y-65629D01*
X-281204Y-65529D01*
X-281205Y-65430D01*
X-281202Y-65330D01*
X-281195Y-65231D01*
X-281184Y-65132D01*
X-281169Y-65034D01*
X-281151Y-64936D01*
X-281129Y-64839D01*
X-281103Y-64743D01*
X-281074Y-64648D01*
X-281041Y-64554D01*
X-281004Y-64462D01*
X-280964Y-64371D01*
X-280921Y-64281D01*
X-280874Y-64194D01*
X-280823Y-64108D01*
X-280770Y-64024D01*
X-280713Y-63942D01*
X-280653Y-63863D01*
X-280591Y-63786D01*
X-280525Y-63711D01*
X-280456Y-63639D01*
X-280385Y-63570D01*
X-280311Y-63503D01*
X-280235Y-63439D01*
X-280156Y-63378D01*
X-280075Y-63321D01*
X-279992Y-63266D01*
X-279907Y-63215D01*
X-274285Y-59969D01*
X-274285Y-59970D02*
X-274198Y-59922D01*
X-274109Y-59877D01*
X-274019Y-59836D01*
X-273927Y-59798D01*
X-273833Y-59764D01*
X-273739Y-59733D01*
X-273643Y-59706D01*
X-273546Y-59683D01*
X-273449Y-59663D01*
X-273350Y-59648D01*
X-273252Y-59636D01*
X-273153Y-59627D01*
X-273053Y-59623D01*
X-272954Y-59622D01*
X-272854Y-59625D01*
X-272755Y-59632D01*
X-272656Y-59643D01*
X-272558Y-59658D01*
X-272460Y-59676D01*
X-272363Y-59698D01*
X-272267Y-59724D01*
X-272172Y-59753D01*
X-272078Y-59786D01*
X-271986Y-59823D01*
X-271895Y-59863D01*
X-271805Y-59906D01*
X-271718Y-59953D01*
X-271632Y-60004D01*
X-271548Y-60057D01*
X-271466Y-60114D01*
X-271387Y-60174D01*
X-271310Y-60236D01*
X-271235Y-60302D01*
X-271163Y-60371D01*
X-271094Y-60442D01*
X-271027Y-60516D01*
X-270963Y-60592D01*
X-270903Y-60671D01*
X-270845Y-60752D01*
X-270790Y-60835D01*
X-270739Y-60920D01*
X-269440Y-63168D01*
X-265472Y-70041D02*
X-265421Y-70134D01*
X-265372Y-70229D01*
X-265328Y-70326D01*
X-265287Y-70424D01*
X-265249Y-70524D01*
X-265215Y-70626D01*
X-265185Y-70728D01*
X-265159Y-70831D01*
X-265136Y-70936D01*
X-265118Y-71041D01*
X-265103Y-71146D01*
X-265092Y-71252D01*
X-265084Y-71359D01*
X-265081Y-71465D01*
X-265082Y-71572D01*
X-265086Y-71679D01*
X-265095Y-71785D01*
X-265107Y-71891D01*
X-265123Y-71997D01*
X-265143Y-72101D01*
X-265167Y-72205D01*
X-265195Y-72308D01*
X-265226Y-72410D01*
X-265261Y-72511D01*
X-265300Y-72611D01*
X-265342Y-72709D01*
X-265388Y-72805D01*
X-265438Y-72899D01*
X-265490Y-72992D01*
X-265546Y-73083D01*
X-265606Y-73172D01*
X-265668Y-73258D01*
X-265734Y-73342D01*
X-265803Y-73424D01*
X-265875Y-73503D01*
X-265949Y-73579D01*
X-266026Y-73653D01*
X-266106Y-73723D01*
X-266189Y-73791D01*
X-266274Y-73856D01*
X-266361Y-73917D01*
X-266450Y-73976D01*
X-266541Y-74031D01*
X-265474Y-70041D02*
X-265536Y-69937D01*
X-265601Y-69836D01*
X-265670Y-69736D01*
X-265742Y-69639D01*
X-265817Y-69544D01*
X-265895Y-69451D01*
X-265976Y-69361D01*
X-266060Y-69274D01*
X-266146Y-69190D01*
X-266236Y-69108D01*
X-266327Y-69029D01*
X-266422Y-68954D01*
X-266519Y-68881D01*
X-266618Y-68811D01*
X-266719Y-68745D01*
X-266822Y-68682D01*
X-266927Y-68623D01*
X-267035Y-68566D01*
X-267144Y-68514D01*
X-267254Y-68465D01*
X-267366Y-68419D01*
X-267480Y-68377D01*
X-267594Y-68339D01*
X-267710Y-68304D01*
X-267827Y-68273D01*
X-267945Y-68246D01*
X-268064Y-68223D01*
X-268184Y-68204D01*
X-268304Y-68189D01*
X-268424Y-68177D01*
X-268545Y-68169D01*
X-268666Y-68165D01*
X-268787Y-68166D01*
X-268908Y-68170D01*
X-269028Y-68177D01*
X-269149Y-68189D01*
X-269269Y-68205D01*
X-269388Y-68224D01*
X-269507Y-68248D01*
X-268997Y-74323D02*
X-268890Y-74353D01*
X-268783Y-74378D01*
X-268674Y-74400D01*
X-268565Y-74418D01*
X-268456Y-74432D01*
X-268346Y-74442D01*
X-268236Y-74449D01*
X-268125Y-74451D01*
X-268015Y-74450D01*
X-267904Y-74444D01*
X-267794Y-74435D01*
X-267685Y-74422D01*
X-267576Y-74405D01*
X-267467Y-74384D01*
X-267359Y-74360D01*
X-267253Y-74331D01*
X-267147Y-74299D01*
X-267043Y-74263D01*
X-266939Y-74224D01*
X-266838Y-74181D01*
X-266738Y-74134D01*
X-266639Y-74084D01*
X-266543Y-74031D01*
X-268996Y-74323D02*
X-277376Y-72791D01*
X-274131Y-78412D01*
M02*
