G04 EAGLE Gerber X2 export*
%TF.Part,Single*%
%TF.FileFunction,Paste,Top*%
%TF.FilePolarity,Positive*%
%TF.GenerationSoftware,Autodesk,EAGLE,8.7.1*%
%TF.CreationDate,2019-11-11T18:06:01Z*%
G75*
%MOMM*%
%FSLAX34Y34*%
%LPD*%
%AMOC8*
5,1,8,0,0,1.08239X$1,22.5*%
G01*
%ADD10R,0.300000X0.850000*%
%ADD11R,4.000000X3.450000*%
%ADD12R,1.550000X0.600000*%
%ADD13R,1.800000X1.200000*%
%ADD14R,3.500000X1.000000*%
%ADD15R,3.500000X1.600000*%
%ADD16R,1.100000X1.000000*%


D10*
X-129006Y-24500D03*
X-124006Y-24500D03*
X-119006Y-24500D03*
X-114006Y-24500D03*
X-109006Y-24500D03*
X-104006Y-24500D03*
X-99006Y-24500D03*
X-94006Y-24500D03*
X-94006Y24500D03*
X-99006Y24500D03*
X-104006Y24500D03*
X-109006Y24500D03*
X-114006Y24500D03*
X-119006Y24500D03*
X-124006Y24500D03*
X-129006Y24500D03*
D11*
X-111506Y0D03*
D12*
G36*
X-265848Y-131879D02*
X-279533Y-139155D01*
X-282350Y-133857D01*
X-268665Y-126581D01*
X-265848Y-131879D01*
G37*
D13*
G36*
X-303654Y-140654D02*
X-319546Y-149104D01*
X-325180Y-138510D01*
X-309288Y-130060D01*
X-303654Y-140654D01*
G37*
G36*
X-272669Y-198928D02*
X-288561Y-207378D01*
X-294195Y-196784D01*
X-278303Y-188334D01*
X-272669Y-198928D01*
G37*
D12*
G36*
X-261154Y-140708D02*
X-274839Y-147984D01*
X-277656Y-142686D01*
X-263971Y-135410D01*
X-261154Y-140708D01*
G37*
G36*
X-256459Y-149538D02*
X-270144Y-156814D01*
X-272961Y-151516D01*
X-259276Y-144240D01*
X-256459Y-149538D01*
G37*
G36*
X-251764Y-158367D02*
X-265449Y-165643D01*
X-268266Y-160345D01*
X-254581Y-153069D01*
X-251764Y-158367D01*
G37*
G36*
X-247069Y-167197D02*
X-260754Y-174473D01*
X-263571Y-169175D01*
X-249886Y-161899D01*
X-247069Y-167197D01*
G37*
D14*
G36*
X224703Y-189185D02*
X195022Y-170639D01*
X200321Y-162159D01*
X230002Y-180705D01*
X224703Y-189185D01*
G37*
G36*
X235302Y-172224D02*
X205621Y-153678D01*
X210920Y-145198D01*
X240601Y-163744D01*
X235302Y-172224D01*
G37*
G36*
X245900Y-155263D02*
X216219Y-136717D01*
X221518Y-128237D01*
X251199Y-146783D01*
X245900Y-155263D01*
G37*
G36*
X256499Y-138302D02*
X226818Y-119756D01*
X232117Y-111276D01*
X261798Y-129822D01*
X256499Y-138302D01*
G37*
G36*
X267097Y-121341D02*
X237416Y-102795D01*
X242715Y-94315D01*
X272396Y-112861D01*
X267097Y-121341D01*
G37*
D15*
G36*
X326564Y-133738D02*
X296883Y-115192D01*
X305362Y-101624D01*
X335043Y-120170D01*
X326564Y-133738D01*
G37*
G36*
X258734Y-242288D02*
X229053Y-223742D01*
X237532Y-210174D01*
X267213Y-228720D01*
X258734Y-242288D01*
G37*
D16*
G36*
X-329209Y-95201D02*
X-334709Y-85675D01*
X-326049Y-80675D01*
X-320549Y-90201D01*
X-329209Y-95201D01*
G37*
G36*
X-320709Y-109923D02*
X-326209Y-100397D01*
X-317549Y-95397D01*
X-312049Y-104923D01*
X-320709Y-109923D01*
G37*
G36*
X-291004Y-72903D02*
X-296504Y-63377D01*
X-287844Y-58377D01*
X-282344Y-67903D01*
X-291004Y-72903D01*
G37*
G36*
X-282504Y-87626D02*
X-288004Y-78100D01*
X-279344Y-73100D01*
X-273844Y-82626D01*
X-282504Y-87626D01*
G37*
M02*
